G04 #@! TF.FileFunction,Soldermask,Bot*
%FSLAX46Y46*%
G04 Gerber Fmt 4.6, Leading zero omitted, Abs format (unit mm)*
G04 Created by KiCad (PCBNEW (2015-11-29 BZR 6336, Git 7b0d981)-product) date 12/9/2015 5:57:17 PM*
%MOMM*%
G01*
G04 APERTURE LIST*
%ADD10C,0.100000*%
%ADD11R,2.432000X2.127200*%
%ADD12O,2.432000X2.127200*%
%ADD13C,1.924000*%
%ADD14R,1.924000X1.924000*%
%ADD15C,1.797000*%
%ADD16O,2.700000X2.000000*%
%ADD17R,1.700000X1.700000*%
%ADD18C,1.700000*%
%ADD19O,1.901140X1.299160*%
%ADD20R,0.700000X1.200000*%
%ADD21R,2.000000X0.800000*%
%ADD22R,1.800000X2.000000*%
%ADD23O,2.000000X1.300000*%
%ADD24C,4.464000*%
G04 APERTURE END LIST*
D10*
D11*
X170688000Y-93980000D03*
D12*
X170688000Y-96520000D03*
X170688000Y-99060000D03*
X170688000Y-101600000D03*
X170688000Y-104140000D03*
X170688000Y-106680000D03*
X170688000Y-109220000D03*
X170688000Y-111760000D03*
D13*
X164378640Y-60655200D03*
X161838640Y-60655200D03*
X159298640Y-60655200D03*
X156758640Y-60655200D03*
X154218640Y-60655200D03*
X151678640Y-60655200D03*
X149138640Y-60655200D03*
X144058640Y-60655200D03*
X141518640Y-60655200D03*
X138978640Y-60655200D03*
X136438640Y-60655200D03*
X133898640Y-60655200D03*
X131358640Y-60655200D03*
X128818640Y-60655200D03*
X126278640Y-60655200D03*
X164388800Y-106426000D03*
X161848800Y-106426000D03*
X159308800Y-106426000D03*
X156768800Y-106426000D03*
X154228800Y-106426000D03*
X151688800Y-106426000D03*
X149148800Y-106426000D03*
X146608800Y-106426000D03*
X144068800Y-106426000D03*
X141528800Y-106426000D03*
X138988800Y-106426000D03*
X136448800Y-106426000D03*
X133908800Y-106426000D03*
X131368800Y-106426000D03*
X128828800Y-106426000D03*
D14*
X126288800Y-106426000D03*
D15*
X146598640Y-60655200D03*
D16*
X161544000Y-66040000D03*
X161544000Y-68580000D03*
X161544000Y-71120000D03*
X161544000Y-73660000D03*
X161544000Y-76200000D03*
X161544000Y-78740000D03*
X161544000Y-81280000D03*
X161544000Y-83820000D03*
X161544000Y-86360000D03*
X161544000Y-88900000D03*
X153924000Y-88900000D03*
X153924000Y-86360000D03*
X153924000Y-83820000D03*
X153924000Y-81280000D03*
X153924000Y-78740000D03*
X153924000Y-76200000D03*
X153924000Y-73660000D03*
X153924000Y-71120000D03*
X153924000Y-68580000D03*
X153924000Y-66040000D03*
D17*
X171323000Y-65786000D03*
D18*
X173823000Y-65786000D03*
D17*
X173736000Y-83820000D03*
D18*
X171236000Y-83820000D03*
D17*
X128524000Y-93726000D03*
D18*
X128524000Y-96226000D03*
D17*
X173736000Y-75184000D03*
D18*
X171236000Y-75184000D03*
D11*
X161544000Y-94996000D03*
D12*
X161544000Y-97536000D03*
X161544000Y-100076000D03*
D19*
X172847000Y-70485000D03*
X172847000Y-71755000D03*
X172847000Y-69215000D03*
D16*
X136779000Y-66040000D03*
X136779000Y-68580000D03*
X136779000Y-71120000D03*
X136779000Y-73660000D03*
X136779000Y-76200000D03*
X136779000Y-78740000D03*
X136779000Y-81280000D03*
X136779000Y-83820000D03*
X136779000Y-86360000D03*
X136779000Y-88900000D03*
X129159000Y-88900000D03*
X129159000Y-86360000D03*
X129159000Y-83820000D03*
X129159000Y-81280000D03*
X129159000Y-78740000D03*
X129159000Y-76200000D03*
X129159000Y-73660000D03*
X129159000Y-71120000D03*
X129159000Y-68580000D03*
X129159000Y-66040000D03*
D11*
X122428000Y-66040000D03*
D12*
X122428000Y-68580000D03*
X122428000Y-71120000D03*
X122428000Y-73660000D03*
X122428000Y-76200000D03*
X122428000Y-78740000D03*
X122428000Y-81280000D03*
X122428000Y-83820000D03*
X122428000Y-86360000D03*
X122428000Y-88900000D03*
D11*
X168148000Y-66040000D03*
D12*
X168148000Y-68580000D03*
X168148000Y-71120000D03*
X168148000Y-73660000D03*
X168148000Y-76200000D03*
X168148000Y-78740000D03*
X168148000Y-81280000D03*
X168148000Y-83820000D03*
X168148000Y-86360000D03*
X168148000Y-88900000D03*
D15*
X150876000Y-68580000D03*
X150876000Y-76200000D03*
D20*
X147094000Y-101335000D03*
X147094000Y-103135000D03*
X150594000Y-101335000D03*
X150594000Y-103135000D03*
X147594000Y-101335000D03*
X148094000Y-101335000D03*
X148594000Y-101335000D03*
X149094000Y-101335000D03*
X149594000Y-101335000D03*
X150094000Y-101335000D03*
X147594000Y-103135000D03*
X148094000Y-103135000D03*
X148594000Y-103135000D03*
X149594000Y-103135000D03*
X149094000Y-103135000D03*
X150094000Y-103135000D03*
X143538000Y-64886000D03*
X143538000Y-66686000D03*
X147038000Y-64886000D03*
X147038000Y-66686000D03*
X144038000Y-64886000D03*
X144538000Y-64886000D03*
X145038000Y-64886000D03*
X145538000Y-64886000D03*
X146038000Y-64886000D03*
X146538000Y-64886000D03*
X144038000Y-66686000D03*
X144538000Y-66686000D03*
X145038000Y-66686000D03*
X146038000Y-66686000D03*
X145538000Y-66686000D03*
X146538000Y-66686000D03*
X134394000Y-101335000D03*
X134394000Y-103135000D03*
X137894000Y-101335000D03*
X137894000Y-103135000D03*
X134894000Y-101335000D03*
X135394000Y-101335000D03*
X135894000Y-101335000D03*
X136394000Y-101335000D03*
X136894000Y-101335000D03*
X137394000Y-101335000D03*
X134894000Y-103135000D03*
X135394000Y-103135000D03*
X135894000Y-103135000D03*
X136894000Y-103135000D03*
X136394000Y-103135000D03*
X137394000Y-103135000D03*
D21*
X171157460Y-57246100D03*
X171157460Y-57896100D03*
X171157460Y-58546100D03*
X171157460Y-59196100D03*
X171157460Y-59846100D03*
D22*
X171270000Y-55397000D03*
X171270000Y-61697000D03*
D23*
X173857460Y-55247000D03*
X173857460Y-61847000D03*
D24*
X118110000Y-56261000D03*
X167259000Y-110871000D03*
X149987000Y-56261000D03*
X126111000Y-110871000D03*
D11*
X119888000Y-93980000D03*
D12*
X119888000Y-96520000D03*
X119888000Y-99060000D03*
X119888000Y-101600000D03*
X119888000Y-104140000D03*
X119888000Y-106680000D03*
X119888000Y-109220000D03*
X119888000Y-111760000D03*
D11*
X168148000Y-93980000D03*
D12*
X168148000Y-96520000D03*
X168148000Y-99060000D03*
M02*
