G04 #@! TF.FileFunction,Soldermask,Top*
%FSLAX46Y46*%
G04 Gerber Fmt 4.6, Leading zero omitted, Abs format (unit mm)*
G04 Created by KiCad (PCBNEW (2015-11-29 BZR 6336, Git 7b0d981)-product) date 12/9/2015 5:57:17 PM*
%MOMM*%
G01*
G04 APERTURE LIST*
%ADD10C,0.100000*%
%ADD11R,2.432000X2.127200*%
%ADD12O,2.432000X2.127200*%
%ADD13C,1.924000*%
%ADD14R,1.924000X1.924000*%
%ADD15C,1.797000*%
%ADD16O,2.700000X2.000000*%
%ADD17R,1.700000X1.700000*%
%ADD18C,1.700000*%
%ADD19O,1.901140X1.299160*%
%ADD20R,1.000000X1.900000*%
%ADD21R,1.900000X1.000000*%
%ADD22R,0.825000X1.400000*%
%ADD23O,2.000000X1.300000*%
%ADD24C,4.464000*%
G04 APERTURE END LIST*
D10*
D11*
X170688000Y-93980000D03*
D12*
X170688000Y-96520000D03*
X170688000Y-99060000D03*
X170688000Y-101600000D03*
X170688000Y-104140000D03*
X170688000Y-106680000D03*
X170688000Y-109220000D03*
X170688000Y-111760000D03*
D13*
X164378640Y-60655200D03*
X161838640Y-60655200D03*
X159298640Y-60655200D03*
X156758640Y-60655200D03*
X154218640Y-60655200D03*
X151678640Y-60655200D03*
X149138640Y-60655200D03*
X144058640Y-60655200D03*
X141518640Y-60655200D03*
X138978640Y-60655200D03*
X136438640Y-60655200D03*
X133898640Y-60655200D03*
X131358640Y-60655200D03*
X128818640Y-60655200D03*
X126278640Y-60655200D03*
X164388800Y-106426000D03*
X161848800Y-106426000D03*
X159308800Y-106426000D03*
X156768800Y-106426000D03*
X154228800Y-106426000D03*
X151688800Y-106426000D03*
X149148800Y-106426000D03*
X146608800Y-106426000D03*
X144068800Y-106426000D03*
X141528800Y-106426000D03*
X138988800Y-106426000D03*
X136448800Y-106426000D03*
X133908800Y-106426000D03*
X131368800Y-106426000D03*
X128828800Y-106426000D03*
D14*
X126288800Y-106426000D03*
D15*
X146598640Y-60655200D03*
D16*
X161544000Y-66040000D03*
X161544000Y-68580000D03*
X161544000Y-71120000D03*
X161544000Y-73660000D03*
X161544000Y-76200000D03*
X161544000Y-78740000D03*
X161544000Y-81280000D03*
X161544000Y-83820000D03*
X161544000Y-86360000D03*
X161544000Y-88900000D03*
X153924000Y-88900000D03*
X153924000Y-86360000D03*
X153924000Y-83820000D03*
X153924000Y-81280000D03*
X153924000Y-78740000D03*
X153924000Y-76200000D03*
X153924000Y-73660000D03*
X153924000Y-71120000D03*
X153924000Y-68580000D03*
X153924000Y-66040000D03*
D17*
X171323000Y-65786000D03*
D18*
X173823000Y-65786000D03*
D17*
X173736000Y-83820000D03*
D18*
X171236000Y-83820000D03*
D17*
X128524000Y-93726000D03*
D18*
X128524000Y-96226000D03*
D17*
X173736000Y-75184000D03*
D18*
X171236000Y-75184000D03*
D11*
X161544000Y-94996000D03*
D12*
X161544000Y-97536000D03*
X161544000Y-100076000D03*
D19*
X172847000Y-70485000D03*
X172847000Y-71755000D03*
X172847000Y-69215000D03*
D16*
X136779000Y-66040000D03*
X136779000Y-68580000D03*
X136779000Y-71120000D03*
X136779000Y-73660000D03*
X136779000Y-76200000D03*
X136779000Y-78740000D03*
X136779000Y-81280000D03*
X136779000Y-83820000D03*
X136779000Y-86360000D03*
X136779000Y-88900000D03*
X129159000Y-88900000D03*
X129159000Y-86360000D03*
X129159000Y-83820000D03*
X129159000Y-81280000D03*
X129159000Y-78740000D03*
X129159000Y-76200000D03*
X129159000Y-73660000D03*
X129159000Y-71120000D03*
X129159000Y-68580000D03*
X129159000Y-66040000D03*
D20*
X145923000Y-99093000D03*
X147193000Y-99093000D03*
X148463000Y-99093000D03*
X149733000Y-99093000D03*
X151003000Y-99093000D03*
X152273000Y-99093000D03*
X153543000Y-99093000D03*
X154813000Y-99093000D03*
X154813000Y-93693000D03*
X153543000Y-93693000D03*
X152273000Y-93693000D03*
X151003000Y-93693000D03*
X149733000Y-93693000D03*
X148463000Y-93693000D03*
X147193000Y-93693000D03*
X145923000Y-93693000D03*
D21*
X142588000Y-69469000D03*
X142588000Y-70739000D03*
X142588000Y-72009000D03*
X142588000Y-73279000D03*
X142588000Y-74549000D03*
X142588000Y-75819000D03*
X142588000Y-77089000D03*
X142588000Y-78359000D03*
X147988000Y-78359000D03*
X147988000Y-77089000D03*
X147988000Y-75819000D03*
X147988000Y-74549000D03*
X147988000Y-73279000D03*
X147988000Y-72009000D03*
X147988000Y-70739000D03*
X147988000Y-69469000D03*
D20*
X132969000Y-99093000D03*
X134239000Y-99093000D03*
X135509000Y-99093000D03*
X136779000Y-99093000D03*
X138049000Y-99093000D03*
X139319000Y-99093000D03*
X140589000Y-99093000D03*
X141859000Y-99093000D03*
X141859000Y-93693000D03*
X140589000Y-93693000D03*
X139319000Y-93693000D03*
X138049000Y-93693000D03*
X136779000Y-93693000D03*
X135509000Y-93693000D03*
X134239000Y-93693000D03*
X132969000Y-93693000D03*
D21*
X142588000Y-81407000D03*
X142588000Y-82677000D03*
X142588000Y-83947000D03*
X142588000Y-85217000D03*
X142588000Y-86487000D03*
X142588000Y-87757000D03*
X142588000Y-89027000D03*
X142588000Y-90297000D03*
X147988000Y-90297000D03*
X147988000Y-89027000D03*
X147988000Y-87757000D03*
X147988000Y-86487000D03*
X147988000Y-85217000D03*
X147988000Y-83947000D03*
X147988000Y-82677000D03*
X147988000Y-81407000D03*
D11*
X122428000Y-66040000D03*
D12*
X122428000Y-68580000D03*
X122428000Y-71120000D03*
X122428000Y-73660000D03*
X122428000Y-76200000D03*
X122428000Y-78740000D03*
X122428000Y-81280000D03*
X122428000Y-83820000D03*
X122428000Y-86360000D03*
X122428000Y-88900000D03*
D11*
X168148000Y-66040000D03*
D12*
X168148000Y-68580000D03*
X168148000Y-71120000D03*
X168148000Y-73660000D03*
X168148000Y-76200000D03*
X168148000Y-78740000D03*
X168148000Y-81280000D03*
X168148000Y-83820000D03*
X168148000Y-86360000D03*
X168148000Y-88900000D03*
D15*
X150876000Y-68580000D03*
X150876000Y-76200000D03*
D22*
X146044000Y-103135000D03*
X146044000Y-101335000D03*
X151644000Y-103135000D03*
X151644000Y-101335000D03*
X146844000Y-103135000D03*
X147644000Y-103135000D03*
X148444000Y-103135000D03*
X149244000Y-103135000D03*
X150044000Y-103135000D03*
X150844000Y-103135000D03*
X146844000Y-101335000D03*
X147644000Y-101335000D03*
X148444000Y-101335000D03*
X150044000Y-101335000D03*
X149244000Y-101335000D03*
X150844000Y-101335000D03*
X142488000Y-66686000D03*
X142488000Y-64886000D03*
X148088000Y-66686000D03*
X148088000Y-64886000D03*
X143288000Y-66686000D03*
X144088000Y-66686000D03*
X144888000Y-66686000D03*
X145688000Y-66686000D03*
X146488000Y-66686000D03*
X147288000Y-66686000D03*
X143288000Y-64886000D03*
X144088000Y-64886000D03*
X144888000Y-64886000D03*
X146488000Y-64886000D03*
X145688000Y-64886000D03*
X147288000Y-64886000D03*
X133344000Y-103135000D03*
X133344000Y-101335000D03*
X138944000Y-103135000D03*
X138944000Y-101335000D03*
X134144000Y-103135000D03*
X134944000Y-103135000D03*
X135744000Y-103135000D03*
X136544000Y-103135000D03*
X137344000Y-103135000D03*
X138144000Y-103135000D03*
X134144000Y-101335000D03*
X134944000Y-101335000D03*
X135744000Y-101335000D03*
X137344000Y-101335000D03*
X136544000Y-101335000D03*
X138144000Y-101335000D03*
D23*
X173857460Y-55247000D03*
X173857460Y-61847000D03*
D24*
X118110000Y-56261000D03*
X167259000Y-110871000D03*
X149987000Y-56261000D03*
X126111000Y-110871000D03*
D11*
X119888000Y-93980000D03*
D12*
X119888000Y-96520000D03*
X119888000Y-99060000D03*
X119888000Y-101600000D03*
X119888000Y-104140000D03*
X119888000Y-106680000D03*
X119888000Y-109220000D03*
X119888000Y-111760000D03*
D11*
X168148000Y-93980000D03*
D12*
X168148000Y-96520000D03*
X168148000Y-99060000D03*
M02*
