M48
;DRILL file {KiCad (2015-11-29 BZR 6336, Git 7b0d981)-product} date 12/9/2015 5:56:38 PM
;FORMAT={-:-/ absolute / inch / decimal}
FMAT,2
INCH,TZ
T1C0.020
T2C0.020
T3C0.024
T4C0.025
T5C0.031
T6C0.032
T7C0.032
T8C0.040
T9C0.120
%
G90
G05
M72
T2
X5.2184Y-3.9867
X5.221Y-2.824
X5.2239Y-4.0249
X5.2482Y-3.8483
X5.3217Y-3.8486
X5.3242Y-3.4619
X5.3389Y-3.6355
X5.3698Y-3.8477
X5.4409Y-3.6208
X5.4481Y-3.8486
X5.5003Y-4.0213
X5.5011Y-3.9539
X5.5784Y-2.6024
X5.6043Y-2.6683
X5.6583Y-2.6851
X5.6873Y-2.7137
X5.6885Y-2.8149
X5.7124Y-2.6845
X5.7241Y-3.954
X5.7551Y-2.6775
X5.7567Y-3.8486
X5.7942Y-3.7422
X5.7951Y-2.6686
X5.7983Y-3.1686
X5.8067Y-3.8481
X5.8339Y-2.6694
X5.8599Y-3.8481
X5.8794Y-2.7841
X5.8844Y-2.8543
X5.899Y-3.629
X5.9049Y-3.8486
X5.9439Y-3.6361
X5.9507Y-3.8484
X5.9835Y-3.2037
X5.9963Y-4.0249
X6.0034Y-3.9739
X6.4782Y-3.123
X6.4903Y-3.6349
X6.5229Y-3.803
X6.6545Y-2.4833
T3
X6.805Y-2.725
X6.805Y-2.775
X6.805Y-2.825
T4
X5.7009Y-3.7268
X6.2075Y-3.9873
T5
X5.06Y-3.69
X5.085Y-2.6
X5.085Y-2.7
X5.085Y-2.8
X5.085Y-2.9
X5.085Y-3.
X5.085Y-3.1
X5.085Y-3.2
X5.085Y-3.3
X5.085Y-3.4
X5.085Y-3.5
X5.385Y-2.6
X5.385Y-2.7
X5.385Y-2.8
X5.385Y-2.9
X5.385Y-3.
X5.385Y-3.1
X5.385Y-3.2
X5.385Y-3.3
X5.385Y-3.4
X5.385Y-3.5
X6.06Y-2.6
X6.06Y-2.7
X6.06Y-2.8
X6.06Y-2.9
X6.06Y-3.
X6.06Y-3.1
X6.06Y-3.2
X6.06Y-3.3
X6.06Y-3.4
X6.06Y-3.5
X6.36Y-2.6
X6.36Y-2.7
X6.36Y-2.8
X6.36Y-2.9
X6.36Y-3.
X6.36Y-3.1
X6.36Y-3.2
X6.36Y-3.3
X6.36Y-3.4
X6.36Y-3.5
X6.745Y-2.59
X6.84Y-2.96
X6.84Y-3.3
T6
X5.06Y-3.7884
X6.7416Y-2.96
X6.7416Y-3.3
X6.8434Y-2.59
T7
X4.9716Y-2.388
X4.972Y-4.19
X5.0716Y-2.388
X5.072Y-4.19
X5.1716Y-2.388
X5.2716Y-2.388
X5.3716Y-2.388
X5.372Y-4.19
X5.4716Y-2.388
X5.472Y-4.19
X5.5716Y-2.388
X5.572Y-4.19
X5.6716Y-2.388
X5.672Y-4.19
X5.7716Y-2.388
X5.772Y-4.19
X5.8716Y-2.388
X5.872Y-4.19
X5.94Y-2.7
X5.94Y-3.
X5.9716Y-2.388
X5.972Y-4.19
X6.0716Y-2.388
X6.072Y-4.19
X6.1716Y-2.388
X6.172Y-4.19
X6.2716Y-2.388
X6.272Y-4.19
X6.3716Y-2.388
X6.372Y-4.19
X6.4716Y-2.388
X6.472Y-4.19
T8
X4.72Y-3.7
X4.72Y-3.8
X4.72Y-3.9
X4.72Y-4.
X4.72Y-4.1
X4.72Y-4.2
X4.72Y-4.3
X4.72Y-4.4
X4.82Y-2.6
X4.82Y-2.7
X4.82Y-2.8
X4.82Y-2.9
X4.82Y-3.
X4.82Y-3.1
X4.82Y-3.2
X4.82Y-3.3
X4.82Y-3.4
X4.82Y-3.5
X6.36Y-3.74
X6.36Y-3.84
X6.36Y-3.94
X6.62Y-2.6
X6.62Y-2.7
X6.62Y-2.8
X6.62Y-2.9
X6.62Y-3.
X6.62Y-3.1
X6.62Y-3.2
X6.62Y-3.3
X6.62Y-3.4
X6.62Y-3.5
X6.62Y-3.7
X6.62Y-3.8
X6.62Y-3.9
X6.72Y-3.7
X6.72Y-3.8
X6.72Y-3.9
X6.72Y-4.
X6.72Y-4.1
X6.72Y-4.2
X6.72Y-4.3
X6.72Y-4.4
T9
X4.65Y-2.215
X4.965Y-4.365
X5.905Y-2.215
X6.585Y-4.365
T1
X6.8586Y-2.1751G85X6.831Y-2.1751
G05
X6.8586Y-2.4349G85X6.831Y-2.4349
G05
T7
X5.172Y-4.19G85X5.172Y-4.19
G05
X5.272Y-4.19G85X5.272Y-4.19
G05
T0
M30
