G04 #@! TF.FileFunction,Copper,L2,Bot,Signal*
%FSLAX46Y46*%
G04 Gerber Fmt 4.6, Leading zero omitted, Abs format (unit mm)*
G04 Created by KiCad (PCBNEW (2015-11-29 BZR 6336, Git 7b0d981)-product) date 12/9/2015 5:57:17 PM*
%MOMM*%
G01*
G04 APERTURE LIST*
%ADD10C,0.100000*%
%ADD11R,2.032000X1.727200*%
%ADD12O,2.032000X1.727200*%
%ADD13C,1.524000*%
%ADD14R,1.524000X1.524000*%
%ADD15C,1.397000*%
%ADD16O,2.300000X1.600000*%
%ADD17R,1.300000X1.300000*%
%ADD18C,1.300000*%
%ADD19O,1.501140X0.899160*%
%ADD20R,0.300000X0.800000*%
%ADD21R,1.600000X0.400000*%
%ADD22R,1.400000X1.600000*%
%ADD23O,1.600000X0.900000*%
%ADD24C,4.064000*%
%ADD25C,1.143000*%
%ADD26C,0.762000*%
%ADD27C,0.508000*%
%ADD28C,0.399800*%
%ADD29C,0.203200*%
%ADD30C,0.254000*%
G04 APERTURE END LIST*
D10*
D11*
X170688000Y-93980000D03*
D12*
X170688000Y-96520000D03*
X170688000Y-99060000D03*
X170688000Y-101600000D03*
X170688000Y-104140000D03*
X170688000Y-106680000D03*
X170688000Y-109220000D03*
X170688000Y-111760000D03*
D13*
X164378640Y-60655200D03*
X161838640Y-60655200D03*
X159298640Y-60655200D03*
X156758640Y-60655200D03*
X154218640Y-60655200D03*
X151678640Y-60655200D03*
X149138640Y-60655200D03*
X144058640Y-60655200D03*
X141518640Y-60655200D03*
X138978640Y-60655200D03*
X136438640Y-60655200D03*
X133898640Y-60655200D03*
X131358640Y-60655200D03*
X128818640Y-60655200D03*
X126278640Y-60655200D03*
X164388800Y-106426000D03*
X161848800Y-106426000D03*
X159308800Y-106426000D03*
X156768800Y-106426000D03*
X154228800Y-106426000D03*
X151688800Y-106426000D03*
X149148800Y-106426000D03*
X146608800Y-106426000D03*
X144068800Y-106426000D03*
X141528800Y-106426000D03*
X138988800Y-106426000D03*
X136448800Y-106426000D03*
X133908800Y-106426000D03*
X131368800Y-106426000D03*
X128828800Y-106426000D03*
D14*
X126288800Y-106426000D03*
D15*
X146598640Y-60655200D03*
D16*
X161544000Y-66040000D03*
X161544000Y-68580000D03*
X161544000Y-71120000D03*
X161544000Y-73660000D03*
X161544000Y-76200000D03*
X161544000Y-78740000D03*
X161544000Y-81280000D03*
X161544000Y-83820000D03*
X161544000Y-86360000D03*
X161544000Y-88900000D03*
X153924000Y-88900000D03*
X153924000Y-86360000D03*
X153924000Y-83820000D03*
X153924000Y-81280000D03*
X153924000Y-78740000D03*
X153924000Y-76200000D03*
X153924000Y-73660000D03*
X153924000Y-71120000D03*
X153924000Y-68580000D03*
X153924000Y-66040000D03*
D17*
X171323000Y-65786000D03*
D18*
X173823000Y-65786000D03*
D17*
X173736000Y-83820000D03*
D18*
X171236000Y-83820000D03*
D17*
X128524000Y-93726000D03*
D18*
X128524000Y-96226000D03*
D17*
X173736000Y-75184000D03*
D18*
X171236000Y-75184000D03*
D11*
X161544000Y-94996000D03*
D12*
X161544000Y-97536000D03*
X161544000Y-100076000D03*
D19*
X172847000Y-70485000D03*
X172847000Y-71755000D03*
X172847000Y-69215000D03*
D16*
X136779000Y-66040000D03*
X136779000Y-68580000D03*
X136779000Y-71120000D03*
X136779000Y-73660000D03*
X136779000Y-76200000D03*
X136779000Y-78740000D03*
X136779000Y-81280000D03*
X136779000Y-83820000D03*
X136779000Y-86360000D03*
X136779000Y-88900000D03*
X129159000Y-88900000D03*
X129159000Y-86360000D03*
X129159000Y-83820000D03*
X129159000Y-81280000D03*
X129159000Y-78740000D03*
X129159000Y-76200000D03*
X129159000Y-73660000D03*
X129159000Y-71120000D03*
X129159000Y-68580000D03*
X129159000Y-66040000D03*
D11*
X122428000Y-66040000D03*
D12*
X122428000Y-68580000D03*
X122428000Y-71120000D03*
X122428000Y-73660000D03*
X122428000Y-76200000D03*
X122428000Y-78740000D03*
X122428000Y-81280000D03*
X122428000Y-83820000D03*
X122428000Y-86360000D03*
X122428000Y-88900000D03*
D11*
X168148000Y-66040000D03*
D12*
X168148000Y-68580000D03*
X168148000Y-71120000D03*
X168148000Y-73660000D03*
X168148000Y-76200000D03*
X168148000Y-78740000D03*
X168148000Y-81280000D03*
X168148000Y-83820000D03*
X168148000Y-86360000D03*
X168148000Y-88900000D03*
D15*
X150876000Y-68580000D03*
X150876000Y-76200000D03*
D20*
X147094000Y-101335000D03*
X147094000Y-103135000D03*
X150594000Y-101335000D03*
X150594000Y-103135000D03*
X147594000Y-101335000D03*
X148094000Y-101335000D03*
X148594000Y-101335000D03*
X149094000Y-101335000D03*
X149594000Y-101335000D03*
X150094000Y-101335000D03*
X147594000Y-103135000D03*
X148094000Y-103135000D03*
X148594000Y-103135000D03*
X149594000Y-103135000D03*
X149094000Y-103135000D03*
X150094000Y-103135000D03*
X143538000Y-64886000D03*
X143538000Y-66686000D03*
X147038000Y-64886000D03*
X147038000Y-66686000D03*
X144038000Y-64886000D03*
X144538000Y-64886000D03*
X145038000Y-64886000D03*
X145538000Y-64886000D03*
X146038000Y-64886000D03*
X146538000Y-64886000D03*
X144038000Y-66686000D03*
X144538000Y-66686000D03*
X145038000Y-66686000D03*
X146038000Y-66686000D03*
X145538000Y-66686000D03*
X146538000Y-66686000D03*
X134394000Y-101335000D03*
X134394000Y-103135000D03*
X137894000Y-101335000D03*
X137894000Y-103135000D03*
X134894000Y-101335000D03*
X135394000Y-101335000D03*
X135894000Y-101335000D03*
X136394000Y-101335000D03*
X136894000Y-101335000D03*
X137394000Y-101335000D03*
X134894000Y-103135000D03*
X135394000Y-103135000D03*
X135894000Y-103135000D03*
X136894000Y-103135000D03*
X136394000Y-103135000D03*
X137394000Y-103135000D03*
D21*
X171157460Y-57246100D03*
X171157460Y-57896100D03*
X171157460Y-58546100D03*
X171157460Y-59196100D03*
X171157460Y-59846100D03*
D22*
X171270000Y-55397000D03*
X171270000Y-61697000D03*
D23*
X173857460Y-55247000D03*
X173857460Y-61847000D03*
D24*
X118110000Y-56261000D03*
X167259000Y-110871000D03*
X149987000Y-56261000D03*
X126111000Y-110871000D03*
D11*
X119888000Y-93980000D03*
D12*
X119888000Y-96520000D03*
X119888000Y-99060000D03*
X119888000Y-101600000D03*
X119888000Y-104140000D03*
X119888000Y-106680000D03*
X119888000Y-109220000D03*
X119888000Y-111760000D03*
D11*
X168148000Y-93980000D03*
D12*
X168148000Y-96520000D03*
X168148000Y-99060000D03*
D25*
X157670500Y-101276700D03*
X144803800Y-94659700D03*
D26*
X149465000Y-72499800D03*
X151980500Y-81373200D03*
X150973900Y-92357700D03*
X138199800Y-91967700D03*
X149833900Y-92175500D03*
X164547100Y-79324300D03*
X135608200Y-92341400D03*
X147277400Y-80483500D03*
X165682400Y-96596000D03*
X169024000Y-63075800D03*
X132614400Y-71729100D03*
X164854700Y-92325900D03*
X135234500Y-87931000D03*
X146221300Y-97755500D03*
X147491300Y-97742700D03*
X148840300Y-97742700D03*
X149985700Y-97753900D03*
X151147900Y-97749900D03*
X152305600Y-102231900D03*
X152486600Y-100937500D03*
X145392800Y-100431100D03*
X147171600Y-95051600D03*
X141690600Y-66102100D03*
X143721400Y-68202000D03*
X144458500Y-68928900D03*
X145093700Y-68186700D03*
X146178800Y-68008900D03*
X147194500Y-67782400D03*
X148180400Y-67802100D03*
X144488300Y-71497700D03*
X142349100Y-67775900D03*
X149336600Y-70715000D03*
X133304000Y-97746500D03*
X132686000Y-102231900D03*
X135172400Y-97754200D03*
X136394000Y-97732500D03*
X138381200Y-97753300D03*
X139708800Y-102140100D03*
X139728600Y-100428000D03*
X132546700Y-101263100D03*
D27*
X170688000Y-93980000D02*
X170688000Y-92658900D01*
X171638900Y-67209400D02*
X171323000Y-66893500D01*
X171638900Y-70485000D02*
X171638900Y-67209400D01*
X172847000Y-70485000D02*
X171638900Y-70485000D01*
X170078200Y-72045700D02*
X171638900Y-70485000D01*
X170078200Y-92658900D02*
X170078200Y-72045700D01*
X170688000Y-92658900D02*
X170078200Y-92658900D01*
X166647800Y-97559800D02*
X168148000Y-99060000D01*
X166647800Y-92919300D02*
X166647800Y-97559800D01*
X166908200Y-92658900D02*
X166647800Y-92919300D01*
X170078200Y-92658900D02*
X166908200Y-92658900D01*
X171323000Y-65793500D02*
X171323000Y-66893500D01*
X129094700Y-64718200D02*
X129159000Y-64782500D01*
X121172800Y-64718200D02*
X129094700Y-64718200D01*
X119888000Y-66003000D02*
X121172800Y-64718200D01*
X119888000Y-93980000D02*
X119888000Y-66003000D01*
X129159000Y-66040000D02*
X129159000Y-64782500D01*
X171323000Y-65793500D02*
X171323000Y-65786000D01*
X170134200Y-57238500D02*
X171149900Y-57238500D01*
X169899900Y-57472800D02*
X170134200Y-57238500D01*
X169899900Y-63255400D02*
X169899900Y-57472800D01*
X171323000Y-64678500D02*
X169899900Y-63255400D01*
D28*
X171149900Y-57238500D02*
X171157500Y-57246100D01*
D27*
X171323000Y-65786000D02*
X171323000Y-64678500D01*
X128524000Y-93726000D02*
X129631500Y-93726000D01*
X150601700Y-94207900D02*
X157670500Y-101276700D01*
X144803800Y-94207900D02*
X150601700Y-94207900D01*
X130113400Y-94207900D02*
X144803800Y-94207900D01*
X129631500Y-93726000D02*
X130113400Y-94207900D01*
X144803800Y-94207900D02*
X144803800Y-94659700D01*
X173857500Y-55247000D02*
X172600000Y-55247000D01*
X153924000Y-66040000D02*
X153924000Y-67297500D01*
X168148000Y-66040000D02*
X166674500Y-66040000D01*
X172251100Y-55397000D02*
X172430600Y-55397000D01*
X172450000Y-55397000D02*
X172600000Y-55247000D01*
X172430600Y-55397000D02*
X172450000Y-55397000D01*
X173823000Y-67331900D02*
X173823000Y-65786000D01*
X172847000Y-68307900D02*
X173823000Y-67331900D01*
X172847000Y-69215000D02*
X172847000Y-68307900D01*
X171356100Y-55397000D02*
X172251100Y-55397000D01*
X165417000Y-67297500D02*
X153924000Y-67297500D01*
X166674500Y-66040000D02*
X165417000Y-67297500D01*
X171356100Y-55397000D02*
X171270000Y-55397000D01*
X168148000Y-57361500D02*
X168148000Y-66040000D01*
X170112500Y-55397000D02*
X168148000Y-57361500D01*
X171270000Y-55397000D02*
X170112500Y-55397000D01*
D28*
X171313700Y-60002300D02*
X171157500Y-59846100D01*
D27*
X172430600Y-59570000D02*
X171998300Y-60002300D01*
X172430600Y-55397000D02*
X172430600Y-59570000D01*
X173823000Y-61986900D02*
X173683100Y-61847000D01*
X173823000Y-65786000D02*
X173823000Y-61986900D01*
X173683100Y-61687100D02*
X171998300Y-60002300D01*
X173683100Y-61847000D02*
X173683100Y-61687100D01*
X173857500Y-61847000D02*
X173683100Y-61847000D01*
X171998300Y-60002300D02*
X171313700Y-60002300D01*
X171313700Y-60395800D02*
X171270000Y-60439500D01*
X171313700Y-60002300D02*
X171313700Y-60395800D01*
X171270000Y-61697000D02*
X171270000Y-60439500D01*
X171236000Y-75184000D02*
X171236000Y-83820000D01*
X168148000Y-93980000D02*
X168148000Y-96520000D01*
X129159000Y-88900000D02*
X129159000Y-90157500D01*
X127416500Y-91900000D02*
X129159000Y-90157500D01*
X127416500Y-95118500D02*
X127416500Y-91900000D01*
X128524000Y-96226000D02*
X127416500Y-95118500D01*
X122769000Y-101981000D02*
X128524000Y-96226000D01*
X122769000Y-108879000D02*
X122769000Y-101981000D01*
X119888000Y-111760000D02*
X122769000Y-108879000D01*
X172193300Y-84777300D02*
X171236000Y-83820000D01*
X172193300Y-110254700D02*
X172193300Y-84777300D01*
X170688000Y-111760000D02*
X172193300Y-110254700D01*
X172847000Y-71755000D02*
X172847000Y-72662100D01*
X173736000Y-73551100D02*
X173736000Y-75184000D01*
X172847000Y-72662100D02*
X173736000Y-73551100D01*
X173736000Y-75184000D02*
X173736000Y-83820000D01*
D29*
X151980500Y-75015300D02*
X151980500Y-81373200D01*
X149465000Y-72499800D02*
X151980500Y-75015300D01*
X121950500Y-82448700D02*
X122428000Y-82448700D01*
X120686000Y-83713200D02*
X121950500Y-82448700D01*
X120686000Y-91744200D02*
X120686000Y-83713200D01*
X121209200Y-92267400D02*
X120686000Y-91744200D01*
X121209200Y-97008400D02*
X121209200Y-92267400D01*
X120326300Y-97891300D02*
X121209200Y-97008400D01*
X119888000Y-97891300D02*
X120326300Y-97891300D01*
X119888000Y-99060000D02*
X119888000Y-97891300D01*
X122428000Y-81280000D02*
X122428000Y-82448700D01*
X170688000Y-104140000D02*
X170688000Y-102971300D01*
X163430100Y-95918800D02*
X163144000Y-96204900D01*
X163430100Y-80626100D02*
X163430100Y-95918800D01*
X161544000Y-78740000D02*
X163430100Y-80626100D01*
X163144000Y-96523000D02*
X163144000Y-96204900D01*
X169592300Y-102971300D02*
X163144000Y-96523000D01*
X170688000Y-102971300D02*
X169592300Y-102971300D01*
X154821100Y-96204900D02*
X150973900Y-92357700D01*
X163144000Y-96204900D02*
X154821100Y-96204900D01*
X136779000Y-88900000D02*
X136779000Y-90005100D01*
X138412900Y-91754600D02*
X138199800Y-91967700D01*
X138412900Y-91639000D02*
X138412900Y-91754600D01*
X138412900Y-91639000D02*
X136779000Y-90005100D01*
X138562500Y-91489400D02*
X138412900Y-91639000D01*
X150118200Y-91489400D02*
X138562500Y-91489400D01*
X150973900Y-92345100D02*
X150118200Y-91489400D01*
X150973900Y-92357700D02*
X150973900Y-92345100D01*
X120365500Y-102971300D02*
X119888000Y-102971300D01*
X121623100Y-101713700D02*
X120365500Y-102971300D01*
X121623100Y-90115900D02*
X121623100Y-101713700D01*
X121092800Y-89585600D02*
X121623100Y-90115900D01*
X121092800Y-85819700D02*
X121092800Y-89585600D01*
X121822500Y-85090000D02*
X121092800Y-85819700D01*
X123015600Y-85090000D02*
X121822500Y-85090000D01*
X123792700Y-84312900D02*
X123015600Y-85090000D01*
X123792700Y-80835100D02*
X123792700Y-84312900D01*
X122866300Y-79908700D02*
X123792700Y-80835100D01*
X122428000Y-79908700D02*
X122866300Y-79908700D01*
X122428000Y-78740000D02*
X122428000Y-79908700D01*
X119888000Y-104140000D02*
X119888000Y-102971300D01*
X149833900Y-92284800D02*
X149833900Y-92175500D01*
X157949100Y-100400000D02*
X149833900Y-92284800D01*
X158440900Y-100400000D02*
X157949100Y-100400000D01*
X159744600Y-101703700D02*
X158440900Y-100400000D01*
X163171700Y-101703700D02*
X159744600Y-101703700D01*
X169519300Y-108051300D02*
X163171700Y-101703700D01*
X170688000Y-108051300D02*
X169519300Y-108051300D01*
X170688000Y-109220000D02*
X170688000Y-108051300D01*
X153924000Y-78740000D02*
X153924000Y-77634900D01*
X162857600Y-77634800D02*
X164547100Y-79324300D01*
X157675000Y-77634800D02*
X162857600Y-77634800D01*
X155117400Y-75077200D02*
X157675000Y-77634800D01*
X153098500Y-75077200D02*
X155117400Y-75077200D01*
X152461500Y-75714200D02*
X153098500Y-75077200D01*
X152461500Y-76724900D02*
X152461500Y-75714200D01*
X153371500Y-77634900D02*
X152461500Y-76724900D01*
X153924000Y-77634900D02*
X153371500Y-77634900D01*
X134548400Y-91281600D02*
X135608200Y-92341400D01*
X134548400Y-86677700D02*
X134548400Y-91281600D01*
X135990800Y-85235300D02*
X134548400Y-86677700D01*
X142525600Y-85235300D02*
X135990800Y-85235300D01*
X147277400Y-80483500D02*
X142525600Y-85235300D01*
X131928300Y-73430700D02*
X129159000Y-76200000D01*
X131928300Y-71444900D02*
X131928300Y-73430700D01*
X132367500Y-71005700D02*
X131928300Y-71444900D01*
X132367500Y-63791300D02*
X132367500Y-71005700D01*
X135168600Y-60990200D02*
X132367500Y-63791300D01*
X135168600Y-60376700D02*
X135168600Y-60990200D01*
X136405500Y-59139800D02*
X135168600Y-60376700D01*
X155243200Y-59139800D02*
X136405500Y-59139800D01*
X156758600Y-60655200D02*
X155243200Y-59139800D01*
X129159000Y-78740000D02*
X129159000Y-77634900D01*
X128606500Y-77634900D02*
X129159000Y-77634900D01*
X127700100Y-76728500D02*
X128606500Y-77634900D01*
X127700100Y-75683600D02*
X127700100Y-76728500D01*
X128453700Y-74930000D02*
X127700100Y-75683600D01*
X129827400Y-74930000D02*
X128453700Y-74930000D01*
X131521600Y-73235800D02*
X129827400Y-74930000D01*
X131521600Y-71276400D02*
X131521600Y-73235800D01*
X131960700Y-70837300D02*
X131521600Y-71276400D01*
X131960700Y-62593100D02*
X131960700Y-70837300D01*
X133898600Y-60655200D02*
X131960700Y-62593100D01*
X129159000Y-81280000D02*
X129159000Y-80174900D01*
X128606400Y-80174900D02*
X129159000Y-80174900D01*
X127272200Y-78840700D02*
X128606400Y-80174900D01*
X127272200Y-73571500D02*
X127272200Y-78840700D01*
X128453700Y-72390000D02*
X127272200Y-73571500D01*
X129804100Y-72390000D02*
X128453700Y-72390000D01*
X131435000Y-70759100D02*
X129804100Y-72390000D01*
X131435000Y-60731600D02*
X131435000Y-70759100D01*
X131358600Y-60655200D02*
X131435000Y-60731600D01*
X129159000Y-83820000D02*
X129159000Y-82714900D01*
X131028300Y-62864900D02*
X128818600Y-60655200D01*
X131028300Y-68625800D02*
X131028300Y-62864900D01*
X129804100Y-69850000D02*
X131028300Y-68625800D01*
X128453700Y-69850000D02*
X129804100Y-69850000D01*
X126842600Y-71461100D02*
X128453700Y-69850000D01*
X126842600Y-80951100D02*
X126842600Y-71461100D01*
X128606400Y-82714900D02*
X126842600Y-80951100D01*
X129159000Y-82714900D02*
X128606400Y-82714900D01*
X129159000Y-86360000D02*
X129159000Y-85254900D01*
X130621500Y-64998100D02*
X126278600Y-60655200D01*
X130621500Y-66496500D02*
X130621500Y-64998100D01*
X129808000Y-67310000D02*
X130621500Y-66496500D01*
X128454500Y-67310000D02*
X129808000Y-67310000D01*
X126433300Y-69331200D02*
X128454500Y-67310000D01*
X126433300Y-83081700D02*
X126433300Y-69331200D01*
X128606500Y-85254900D02*
X126433300Y-83081700D01*
X129159000Y-85254900D02*
X128606500Y-85254900D01*
X163023300Y-92348000D02*
X161544000Y-93827300D01*
X163023300Y-80794600D02*
X163023300Y-92348000D01*
X162094800Y-79866100D02*
X163023300Y-80794600D01*
X157590100Y-79866100D02*
X162094800Y-79866100D01*
X153924000Y-76200000D02*
X157590100Y-79866100D01*
X161544000Y-94996000D02*
X161544000Y-93827300D01*
X168148000Y-73660000D02*
X168148000Y-74828700D01*
X166273100Y-74828700D02*
X165682400Y-75419400D01*
X168148000Y-74828700D02*
X166273100Y-74828700D01*
X159078400Y-73660000D02*
X153924000Y-73660000D01*
X160481900Y-75063500D02*
X159078400Y-73660000D01*
X165326500Y-75063500D02*
X160481900Y-75063500D01*
X165682400Y-75419400D02*
X165326500Y-75063500D01*
X165682400Y-96596000D02*
X165682400Y-75419400D01*
X162753500Y-72329500D02*
X161544000Y-71120000D01*
X168751700Y-72329500D02*
X162753500Y-72329500D01*
X169519000Y-71562200D02*
X168751700Y-72329500D01*
X169519000Y-64149200D02*
X169519000Y-71562200D01*
X169024000Y-63654200D02*
X169519000Y-64149200D01*
X169024000Y-63075800D02*
X169024000Y-63654200D01*
X151869000Y-72554900D02*
X161544000Y-72554900D01*
X151122800Y-71808700D02*
X151869000Y-72554900D01*
X148813100Y-71808700D02*
X151122800Y-71808700D01*
X147974000Y-72647800D02*
X148813100Y-71808700D01*
X144057200Y-72647800D02*
X147974000Y-72647800D01*
X141091800Y-69682400D02*
X144057200Y-72647800D01*
X141091800Y-68430500D02*
X141091800Y-69682400D01*
X137576200Y-64914900D02*
X141091800Y-68430500D01*
X135977900Y-64914900D02*
X137576200Y-64914900D01*
X134858600Y-66034200D02*
X135977900Y-64914900D01*
X134858600Y-69484900D02*
X134858600Y-66034200D01*
X132614400Y-71729100D02*
X134858600Y-69484900D01*
X161544000Y-73660000D02*
X161544000Y-72554900D01*
X161544000Y-76200000D02*
X162999100Y-76200000D01*
X164854700Y-97658400D02*
X164854700Y-92325900D01*
X168796300Y-101600000D02*
X164854700Y-97658400D01*
X170688000Y-101600000D02*
X168796300Y-101600000D01*
X165275600Y-78476500D02*
X162999100Y-76200000D01*
X165275600Y-91905000D02*
X165275600Y-78476500D01*
X164854700Y-92325900D02*
X165275600Y-91905000D01*
X122428000Y-86360000D02*
X122428000Y-87528700D01*
X161544000Y-86360000D02*
X161544000Y-85254900D01*
X153043100Y-85254900D02*
X161544000Y-85254900D01*
X147565100Y-79776900D02*
X153043100Y-85254900D01*
X146677200Y-79776900D02*
X147565100Y-79776900D01*
X143904100Y-82550000D02*
X146677200Y-79776900D01*
X134937100Y-82550000D02*
X143904100Y-82550000D01*
X129958400Y-87528700D02*
X134937100Y-82550000D01*
X122428000Y-87528700D02*
X129958400Y-87528700D01*
X140019900Y-90005100D02*
X161544000Y-90005100D01*
X137779000Y-87764200D02*
X140019900Y-90005100D01*
X135401300Y-87764200D02*
X137779000Y-87764200D01*
X135234500Y-87931000D02*
X135401300Y-87764200D01*
X161544000Y-88900000D02*
X161544000Y-90005100D01*
X153987600Y-69748700D02*
X153924000Y-69685100D01*
X168148000Y-69748700D02*
X153987600Y-69748700D01*
X168148000Y-68580000D02*
X168148000Y-69748700D01*
X153924000Y-68580000D02*
X153924000Y-69685100D01*
X147594000Y-99128200D02*
X147594000Y-101335000D01*
X146221300Y-97755500D02*
X147594000Y-99128200D01*
X148094000Y-98345400D02*
X148094000Y-101335000D01*
X147491300Y-97742700D02*
X148094000Y-98345400D01*
X148594100Y-100629900D02*
X148594000Y-100629900D01*
X148594100Y-97988900D02*
X148594100Y-100629900D01*
X148840300Y-97742700D02*
X148594100Y-97988900D01*
X148594000Y-101335000D02*
X148594000Y-100629900D01*
X149094000Y-98645600D02*
X149985700Y-97753900D01*
X149094000Y-101335000D02*
X149094000Y-98645600D01*
X149594000Y-99303800D02*
X149594000Y-101335000D01*
X151147900Y-97749900D02*
X149594000Y-99303800D01*
X150094000Y-101335000D02*
X150094000Y-102040100D01*
X150285800Y-102231900D02*
X152305600Y-102231900D01*
X150094000Y-102040100D02*
X150285800Y-102231900D01*
X152179000Y-100629900D02*
X152486600Y-100937500D01*
X150594000Y-100629900D02*
X152179000Y-100629900D01*
X150594000Y-101335000D02*
X150594000Y-100629900D01*
X147094000Y-101335000D02*
X147094000Y-100629900D01*
X146895200Y-100431100D02*
X145392800Y-100431100D01*
X147094000Y-100629900D02*
X146895200Y-100431100D01*
X145392800Y-96830400D02*
X147171600Y-95051600D01*
X145392800Y-100431100D02*
X145392800Y-96830400D01*
X141811800Y-65980900D02*
X144038000Y-65980900D01*
X141690600Y-66102100D02*
X141811800Y-65980900D01*
X144038000Y-66686000D02*
X144038000Y-65980900D01*
X143721400Y-68004200D02*
X143721400Y-68202000D01*
X144538000Y-67187600D02*
X143721400Y-68004200D01*
X144538000Y-66686000D02*
X144538000Y-67187600D01*
X145038000Y-66686000D02*
X145038000Y-67391100D01*
X144407600Y-68878000D02*
X144458500Y-68928900D01*
X144407600Y-67902500D02*
X144407600Y-68878000D01*
X144919000Y-67391100D02*
X144407600Y-67902500D01*
X145038000Y-67391100D02*
X144919000Y-67391100D01*
X145093700Y-68123700D02*
X145093700Y-68186700D01*
X145538000Y-67679400D02*
X145093700Y-68123700D01*
X145538000Y-66686000D02*
X145538000Y-67679400D01*
X146038000Y-67868100D02*
X146178800Y-68008900D01*
X146038000Y-66686000D02*
X146038000Y-67868100D01*
X146929300Y-67782400D02*
X146538000Y-67391100D01*
X147194500Y-67782400D02*
X146929300Y-67782400D01*
X146538000Y-66686000D02*
X146538000Y-67391100D01*
X148180400Y-67805600D02*
X144488300Y-71497700D01*
X148180400Y-67802100D02*
X148180400Y-67805600D01*
X147068500Y-66686000D02*
X147038000Y-66686000D01*
X148180400Y-67797900D02*
X147068500Y-66686000D01*
X148180400Y-67802100D02*
X148180400Y-67797900D01*
X143538000Y-66686000D02*
X143538000Y-67391100D01*
X146756500Y-70715000D02*
X149336600Y-70715000D01*
X145235900Y-72235600D02*
X146756500Y-70715000D01*
X144232000Y-72235600D02*
X145235900Y-72235600D01*
X143035300Y-71038900D02*
X144232000Y-72235600D01*
X143035300Y-67777600D02*
X143035300Y-71038900D01*
X143421800Y-67391100D02*
X143035300Y-67777600D01*
X143538000Y-67391100D02*
X143421800Y-67391100D01*
X142350800Y-67777600D02*
X142349100Y-67775900D01*
X143035300Y-67777600D02*
X142350800Y-67777600D01*
X134894000Y-99336500D02*
X133304000Y-97746500D01*
X134894000Y-101335000D02*
X134894000Y-99336500D01*
X135394000Y-101335000D02*
X135394000Y-102040100D01*
X135202200Y-102231900D02*
X132686000Y-102231900D01*
X135394000Y-102040100D02*
X135202200Y-102231900D01*
X135894000Y-98475800D02*
X135172400Y-97754200D01*
X135894000Y-101335000D02*
X135894000Y-98475800D01*
X136394000Y-101335000D02*
X136394000Y-97732500D01*
X136894000Y-99240500D02*
X136894000Y-101335000D01*
X138381200Y-97753300D02*
X136894000Y-99240500D01*
X137394000Y-101335000D02*
X137394000Y-102040100D01*
X139608800Y-102040100D02*
X139708800Y-102140100D01*
X137394000Y-102040100D02*
X139608800Y-102040100D01*
X137894000Y-101335000D02*
X137894000Y-100629900D01*
X139526700Y-100629900D02*
X139728600Y-100428000D01*
X137894000Y-100629900D02*
X139526700Y-100629900D01*
X134394000Y-101335000D02*
X134394000Y-100629900D01*
X133179900Y-100629900D02*
X132546700Y-101263100D01*
X134394000Y-100629900D02*
X133179900Y-100629900D01*
X147151800Y-64180900D02*
X147038000Y-64180900D01*
X150552600Y-60780100D02*
X147151800Y-64180900D01*
X150552600Y-60272000D02*
X150552600Y-60780100D01*
X151278000Y-59546600D02*
X150552600Y-60272000D01*
X153110000Y-59546600D02*
X151278000Y-59546600D01*
X154218600Y-60655200D02*
X153110000Y-59546600D01*
X147038000Y-64886000D02*
X147038000Y-64180900D01*
X147316300Y-65591100D02*
X146538000Y-65591100D01*
X151678600Y-61228800D02*
X147316300Y-65591100D01*
X151678600Y-60655200D02*
X151678600Y-61228800D01*
X146538000Y-64886000D02*
X146538000Y-65591100D01*
X146038000Y-63755800D02*
X146038000Y-64886000D01*
X149138600Y-60655200D02*
X146038000Y-63755800D01*
X145038000Y-61634600D02*
X144058600Y-60655200D01*
X145038000Y-64886000D02*
X145038000Y-61634600D01*
X144538000Y-63674600D02*
X144538000Y-64886000D01*
X141518600Y-60655200D02*
X144538000Y-63674600D01*
X144038000Y-64886000D02*
X144038000Y-64180900D01*
X142097600Y-63774200D02*
X138978600Y-60655200D01*
X143706500Y-63774200D02*
X142097600Y-63774200D01*
X144038000Y-64105700D02*
X143706500Y-63774200D01*
X144038000Y-64180900D02*
X144038000Y-64105700D01*
X139964300Y-64180900D02*
X143538000Y-64180900D01*
X136438600Y-60655200D02*
X139964300Y-64180900D01*
X143538000Y-64886000D02*
X143538000Y-64180900D01*
X161097800Y-103135000D02*
X150594000Y-103135000D01*
X164388800Y-106426000D02*
X161097800Y-103135000D01*
X159262900Y-103840100D02*
X161848800Y-106426000D01*
X150317600Y-103840100D02*
X159262900Y-103840100D01*
X150094000Y-103616500D02*
X150317600Y-103840100D01*
X150094000Y-103135000D02*
X150094000Y-103616500D01*
X150176700Y-104422800D02*
X149594000Y-103840100D01*
X157305600Y-104422800D02*
X150176700Y-104422800D01*
X159308800Y-106426000D02*
X157305600Y-104422800D01*
X149594000Y-103135000D02*
X149594000Y-103840100D01*
X149094000Y-103135000D02*
X149094000Y-103840100D01*
X155172400Y-104829600D02*
X156768800Y-106426000D01*
X150008300Y-104829600D02*
X155172400Y-104829600D01*
X149094000Y-103915300D02*
X150008300Y-104829600D01*
X149094000Y-103840100D02*
X149094000Y-103915300D01*
X148594000Y-104035600D02*
X148594000Y-103135000D01*
X149917200Y-105358800D02*
X148594000Y-104035600D01*
X153161600Y-105358800D02*
X149917200Y-105358800D01*
X154228800Y-106426000D02*
X153161600Y-105358800D01*
X146814600Y-102429900D02*
X148094000Y-102429900D01*
X145540900Y-103703600D02*
X146814600Y-102429900D01*
X145540900Y-106911000D02*
X145540900Y-103703600D01*
X146147100Y-107517200D02*
X145540900Y-106911000D01*
X150597600Y-107517200D02*
X146147100Y-107517200D01*
X151688800Y-106426000D02*
X150597600Y-107517200D01*
X148094000Y-103135000D02*
X148094000Y-102429900D01*
X147594000Y-104871200D02*
X147594000Y-103135000D01*
X149148800Y-106426000D02*
X147594000Y-104871200D01*
X146608800Y-104325300D02*
X146608800Y-106426000D01*
X147094000Y-103840100D02*
X146608800Y-104325300D01*
X147094000Y-103135000D02*
X147094000Y-103840100D01*
X140777800Y-103135000D02*
X144068800Y-106426000D01*
X137894000Y-103135000D02*
X140777800Y-103135000D01*
X138942900Y-103840100D02*
X137394000Y-103840100D01*
X141528800Y-106426000D02*
X138942900Y-103840100D01*
X137394000Y-103135000D02*
X137394000Y-103840100D01*
X136894000Y-104331200D02*
X138988800Y-106426000D01*
X136894000Y-103135000D02*
X136894000Y-104331200D01*
X136394000Y-106371200D02*
X136394000Y-103135000D01*
X136448800Y-106426000D02*
X136394000Y-106371200D01*
X135894000Y-104440800D02*
X135894000Y-103135000D01*
X133908800Y-106426000D02*
X135894000Y-104440800D01*
X135394000Y-103135000D02*
X135394000Y-103840100D01*
X135393900Y-103840100D02*
X135394000Y-103840100D01*
X135393900Y-103915400D02*
X135393900Y-103840100D01*
X135062500Y-104246800D02*
X135393900Y-103915400D01*
X133548000Y-104246800D02*
X135062500Y-104246800D01*
X131368800Y-106426000D02*
X133548000Y-104246800D01*
X134894000Y-103135000D02*
X134894000Y-103840100D01*
X131414700Y-103840100D02*
X134894000Y-103840100D01*
X128828800Y-106426000D02*
X131414700Y-103840100D01*
X130513500Y-103135000D02*
X134394000Y-103135000D01*
X127355900Y-106292600D02*
X130513500Y-103135000D01*
X127355900Y-106426000D02*
X127355900Y-106292600D01*
X126288800Y-106426000D02*
X127355900Y-106426000D01*
X145538000Y-61715800D02*
X146598600Y-60655200D01*
X145538000Y-64886000D02*
X145538000Y-61715800D01*
X136779000Y-66040000D02*
X136779000Y-67145100D01*
X161544000Y-83820000D02*
X161544000Y-82714900D01*
X152340900Y-82714900D02*
X161544000Y-82714900D01*
X151207600Y-81581600D02*
X152340900Y-82714900D01*
X151207600Y-81085100D02*
X151207600Y-81581600D01*
X137267600Y-67145100D02*
X151207600Y-81085100D01*
X136779000Y-67145100D02*
X137267600Y-67145100D01*
D30*
G36*
X147619743Y-54676260D02*
X147193486Y-55702801D01*
X147192516Y-56814323D01*
X147616981Y-57841606D01*
X148050817Y-58276200D01*
X136405500Y-58276200D01*
X136075015Y-58341938D01*
X135794843Y-58529142D01*
X134861444Y-59462541D01*
X134763044Y-59363969D01*
X134203112Y-59131465D01*
X133596828Y-59130936D01*
X133036491Y-59362462D01*
X132628304Y-59769937D01*
X132223044Y-59363969D01*
X131663112Y-59131465D01*
X131056828Y-59130936D01*
X130496491Y-59362462D01*
X130088304Y-59769937D01*
X129683044Y-59363969D01*
X129123112Y-59131465D01*
X128516828Y-59130936D01*
X127956491Y-59362462D01*
X127548304Y-59769937D01*
X127143044Y-59363969D01*
X126583112Y-59131465D01*
X125976828Y-59130936D01*
X125416491Y-59362462D01*
X124987409Y-59790796D01*
X124754905Y-60350728D01*
X124754376Y-60957012D01*
X124985902Y-61517349D01*
X125414236Y-61946431D01*
X125974168Y-62178935D01*
X126580452Y-62179464D01*
X126581229Y-62179143D01*
X128104286Y-63702200D01*
X121172800Y-63702200D01*
X120783993Y-63779538D01*
X120454380Y-63999779D01*
X119169580Y-65284580D01*
X118949338Y-65614193D01*
X118949338Y-65614194D01*
X118872000Y-66003000D01*
X118872000Y-92339472D01*
X118589620Y-92392605D01*
X118330271Y-92559492D01*
X118156283Y-92814131D01*
X118095072Y-93116400D01*
X118095072Y-94843600D01*
X118148205Y-95125980D01*
X118315092Y-95385329D01*
X118470467Y-95491493D01*
X118198908Y-95897910D01*
X118075167Y-96520000D01*
X118198908Y-97142090D01*
X118551294Y-97669473D01*
X118731675Y-97790000D01*
X118551294Y-97910527D01*
X118198908Y-98437910D01*
X118075167Y-99060000D01*
X118198908Y-99682090D01*
X118551294Y-100209473D01*
X118731675Y-100330000D01*
X118551294Y-100450527D01*
X118198908Y-100977910D01*
X118075167Y-101600000D01*
X118198908Y-102222090D01*
X118551294Y-102749473D01*
X118731675Y-102870000D01*
X118551294Y-102990527D01*
X118198908Y-103517910D01*
X118075167Y-104140000D01*
X118198908Y-104762090D01*
X118551294Y-105289473D01*
X118731675Y-105410000D01*
X118551294Y-105530527D01*
X118198908Y-106057910D01*
X118075167Y-106680000D01*
X118198908Y-107302090D01*
X118551294Y-107829473D01*
X118731675Y-107950000D01*
X118551294Y-108070527D01*
X118198908Y-108597910D01*
X118075167Y-109220000D01*
X118198908Y-109842090D01*
X118551294Y-110369473D01*
X118856075Y-110573121D01*
X118537268Y-110857964D01*
X118283291Y-111385209D01*
X118280642Y-111400974D01*
X118401783Y-111633000D01*
X119761000Y-111633000D01*
X119761000Y-111613000D01*
X120015000Y-111613000D01*
X120015000Y-111633000D01*
X121374217Y-111633000D01*
X121495358Y-111400974D01*
X121492709Y-111385209D01*
X121238732Y-110857964D01*
X120919925Y-110573121D01*
X121224706Y-110369473D01*
X121577092Y-109842090D01*
X121700833Y-109220000D01*
X121577092Y-108597910D01*
X121224706Y-108070527D01*
X121044325Y-107950000D01*
X121224706Y-107829473D01*
X121577092Y-107302090D01*
X121700833Y-106680000D01*
X121577092Y-106057910D01*
X121224706Y-105530527D01*
X121044325Y-105410000D01*
X121224706Y-105289473D01*
X121577092Y-104762090D01*
X121700833Y-104140000D01*
X121577092Y-103517910D01*
X121362045Y-103196069D01*
X122233757Y-102324357D01*
X122420962Y-102044185D01*
X122429046Y-102003546D01*
X122486700Y-101713700D01*
X122486700Y-97125016D01*
X127804590Y-97125016D01*
X127860271Y-97355611D01*
X128343078Y-97523622D01*
X128853428Y-97494083D01*
X129187729Y-97355611D01*
X129243410Y-97125016D01*
X128524000Y-96405605D01*
X127804590Y-97125016D01*
X122486700Y-97125016D01*
X122486700Y-96045078D01*
X127226378Y-96045078D01*
X127255917Y-96555428D01*
X127394389Y-96889729D01*
X127624984Y-96945410D01*
X128344395Y-96226000D01*
X128703605Y-96226000D01*
X129423016Y-96945410D01*
X129653611Y-96889729D01*
X129821622Y-96406922D01*
X129792083Y-95896572D01*
X129653611Y-95562271D01*
X129423016Y-95506590D01*
X128703605Y-96226000D01*
X128344395Y-96226000D01*
X127624984Y-95506590D01*
X127394389Y-95562271D01*
X127226378Y-96045078D01*
X122486700Y-96045078D01*
X122486700Y-90525600D01*
X122615233Y-90525600D01*
X123237323Y-90401859D01*
X123764706Y-90049473D01*
X124117092Y-89522090D01*
X124171405Y-89249039D01*
X127417096Y-89249039D01*
X127434633Y-89331819D01*
X127704500Y-89824896D01*
X128142517Y-90177166D01*
X128682000Y-90335000D01*
X129032000Y-90335000D01*
X129032000Y-89027000D01*
X129286000Y-89027000D01*
X129286000Y-90335000D01*
X129636000Y-90335000D01*
X130175483Y-90177166D01*
X130613500Y-89824896D01*
X130883367Y-89331819D01*
X130900904Y-89249039D01*
X130778915Y-89027000D01*
X129286000Y-89027000D01*
X129032000Y-89027000D01*
X127539085Y-89027000D01*
X127417096Y-89249039D01*
X124171405Y-89249039D01*
X124240833Y-88900000D01*
X124139846Y-88392300D01*
X127476164Y-88392300D01*
X127434633Y-88468181D01*
X127417096Y-88550961D01*
X127539085Y-88773000D01*
X129032000Y-88773000D01*
X129032000Y-88753000D01*
X129286000Y-88753000D01*
X129286000Y-88773000D01*
X130778915Y-88773000D01*
X130900904Y-88550961D01*
X130883367Y-88468181D01*
X130655879Y-88052535D01*
X134839309Y-83869105D01*
X134948442Y-84417752D01*
X135204226Y-84800559D01*
X133937743Y-86067043D01*
X133750538Y-86347215D01*
X133684800Y-86677700D01*
X133684800Y-91281600D01*
X133741141Y-91564843D01*
X133750538Y-91612085D01*
X133937743Y-91892257D01*
X134465131Y-92419646D01*
X134465002Y-92567759D01*
X134638646Y-92988012D01*
X134842179Y-93191900D01*
X130534240Y-93191900D01*
X130349920Y-93007580D01*
X130020307Y-92787338D01*
X129910830Y-92765562D01*
X129875177Y-92758470D01*
X129730908Y-92534271D01*
X129476269Y-92360283D01*
X129174000Y-92299072D01*
X127874000Y-92299072D01*
X127591620Y-92352205D01*
X127332271Y-92519092D01*
X127158283Y-92773731D01*
X127097072Y-93076000D01*
X127097072Y-94376000D01*
X127150205Y-94658380D01*
X127317092Y-94917729D01*
X127571731Y-95091717D01*
X127847895Y-95147642D01*
X127804590Y-95326984D01*
X128524000Y-96046395D01*
X129243410Y-95326984D01*
X129200191Y-95148000D01*
X129456380Y-95099795D01*
X129557357Y-95034818D01*
X129724593Y-95146562D01*
X130113400Y-95223900D01*
X143594073Y-95223900D01*
X143672654Y-95414080D01*
X144047447Y-95789527D01*
X144537387Y-95992968D01*
X145008507Y-95993379D01*
X144782143Y-96219743D01*
X144594938Y-96499915D01*
X144529200Y-96830400D01*
X144529200Y-99678156D01*
X144424377Y-99782797D01*
X144249999Y-100202746D01*
X144249602Y-100657459D01*
X144423246Y-101077712D01*
X144744497Y-101399523D01*
X145164446Y-101573901D01*
X145619159Y-101574298D01*
X146039412Y-101400654D01*
X146145551Y-101294700D01*
X146167072Y-101294700D01*
X146167072Y-101735000D01*
X146186252Y-101836933D01*
X144930243Y-103092943D01*
X144743038Y-103373115D01*
X144677300Y-103703600D01*
X144677300Y-105028508D01*
X144373272Y-104902265D01*
X143766988Y-104901736D01*
X143766183Y-104902069D01*
X141388457Y-102524343D01*
X141108285Y-102337138D01*
X140851673Y-102286094D01*
X140851998Y-101913741D01*
X140678354Y-101493488D01*
X140479080Y-101293867D01*
X140697023Y-101076303D01*
X140871401Y-100656354D01*
X140871798Y-100201641D01*
X140698154Y-99781388D01*
X140376903Y-99459577D01*
X139956954Y-99285199D01*
X139502241Y-99284802D01*
X139081988Y-99458446D01*
X138773597Y-99766300D01*
X137894000Y-99766300D01*
X137757600Y-99793432D01*
X137757600Y-99598214D01*
X138459446Y-98896369D01*
X138607559Y-98896498D01*
X139027812Y-98722854D01*
X139349623Y-98401603D01*
X139524001Y-97981654D01*
X139524398Y-97526941D01*
X139350754Y-97106688D01*
X139029503Y-96784877D01*
X138609554Y-96610499D01*
X138154841Y-96610102D01*
X137734588Y-96783746D01*
X137412777Y-97104997D01*
X137392062Y-97154884D01*
X137363554Y-97085888D01*
X137042303Y-96764077D01*
X136622354Y-96589699D01*
X136167641Y-96589302D01*
X135756577Y-96759149D01*
X135400754Y-96611399D01*
X134946041Y-96611002D01*
X134525788Y-96784646D01*
X134241831Y-97068109D01*
X133952303Y-96778077D01*
X133532354Y-96603699D01*
X133077641Y-96603302D01*
X132657388Y-96776946D01*
X132335577Y-97098197D01*
X132161199Y-97518146D01*
X132160802Y-97972859D01*
X132334446Y-98393112D01*
X132655697Y-98714923D01*
X133075646Y-98889301D01*
X133225618Y-98889432D01*
X134030400Y-99694215D01*
X134030400Y-99766300D01*
X133179900Y-99766300D01*
X132907707Y-99820443D01*
X132849415Y-99832038D01*
X132569243Y-100019243D01*
X132468455Y-100120031D01*
X132320341Y-100119902D01*
X131900088Y-100293546D01*
X131578277Y-100614797D01*
X131403899Y-101034746D01*
X131403502Y-101489459D01*
X131577146Y-101909712D01*
X131580689Y-101913261D01*
X131543199Y-102003546D01*
X131542965Y-102271400D01*
X130513500Y-102271400D01*
X130183015Y-102337138D01*
X129902843Y-102524342D01*
X127427824Y-104999361D01*
X127353069Y-104948283D01*
X127050800Y-104887072D01*
X125526800Y-104887072D01*
X125244420Y-104940205D01*
X124985071Y-105107092D01*
X124811083Y-105361731D01*
X124749872Y-105664000D01*
X124749872Y-107188000D01*
X124803005Y-107470380D01*
X124969892Y-107729729D01*
X125224531Y-107903717D01*
X125526800Y-107964928D01*
X127050800Y-107964928D01*
X127333180Y-107911795D01*
X127592529Y-107744908D01*
X127754860Y-107507329D01*
X127964396Y-107717231D01*
X128524328Y-107949735D01*
X129130612Y-107950264D01*
X129690949Y-107718738D01*
X130099136Y-107311263D01*
X130504396Y-107717231D01*
X131064328Y-107949735D01*
X131670612Y-107950264D01*
X132230949Y-107718738D01*
X132639136Y-107311263D01*
X133044396Y-107717231D01*
X133604328Y-107949735D01*
X134210612Y-107950264D01*
X134770949Y-107718738D01*
X135179136Y-107311263D01*
X135584396Y-107717231D01*
X136144328Y-107949735D01*
X136750612Y-107950264D01*
X137310949Y-107718738D01*
X137719136Y-107311263D01*
X138124396Y-107717231D01*
X138684328Y-107949735D01*
X139290612Y-107950264D01*
X139850949Y-107718738D01*
X140259136Y-107311263D01*
X140664396Y-107717231D01*
X141224328Y-107949735D01*
X141830612Y-107950264D01*
X142390949Y-107718738D01*
X142799136Y-107311263D01*
X143204396Y-107717231D01*
X143764328Y-107949735D01*
X144370612Y-107950264D01*
X144930949Y-107718738D01*
X145029222Y-107620636D01*
X145536442Y-108127857D01*
X145816614Y-108315062D01*
X145871445Y-108325969D01*
X146147100Y-108380800D01*
X150597600Y-108380800D01*
X150928085Y-108315062D01*
X151208257Y-108127857D01*
X151386377Y-107949737D01*
X151990612Y-107950264D01*
X152550949Y-107718738D01*
X152959136Y-107311263D01*
X153364396Y-107717231D01*
X153924328Y-107949735D01*
X154530612Y-107950264D01*
X155090949Y-107718738D01*
X155499136Y-107311263D01*
X155904396Y-107717231D01*
X156464328Y-107949735D01*
X157070612Y-107950264D01*
X157630949Y-107718738D01*
X158039136Y-107311263D01*
X158444396Y-107717231D01*
X159004328Y-107949735D01*
X159610612Y-107950264D01*
X160170949Y-107718738D01*
X160579136Y-107311263D01*
X160984396Y-107717231D01*
X161544328Y-107949735D01*
X162150612Y-107950264D01*
X162710949Y-107718738D01*
X163119136Y-107311263D01*
X163524396Y-107717231D01*
X164084328Y-107949735D01*
X164690612Y-107950264D01*
X165250949Y-107718738D01*
X165680031Y-107290404D01*
X165912535Y-106730472D01*
X165913064Y-106124188D01*
X165681538Y-105563851D01*
X165253204Y-105134769D01*
X164693272Y-104902265D01*
X164086988Y-104901736D01*
X164086183Y-104902069D01*
X161751414Y-102567300D01*
X162813986Y-102567300D01*
X168684170Y-108437484D01*
X167817199Y-108077486D01*
X166705677Y-108076516D01*
X165678394Y-108500981D01*
X164891743Y-109286260D01*
X164465486Y-110312801D01*
X164464516Y-111424323D01*
X164888981Y-112451606D01*
X164951765Y-112514500D01*
X128419394Y-112514500D01*
X128478257Y-112455740D01*
X128904514Y-111429199D01*
X128905484Y-110317677D01*
X128481019Y-109290394D01*
X127695740Y-108503743D01*
X126669199Y-108077486D01*
X125557677Y-108076516D01*
X124530394Y-108500981D01*
X123743743Y-109286260D01*
X123317486Y-110312801D01*
X123316516Y-111424323D01*
X123740981Y-112451606D01*
X123803765Y-112514500D01*
X121309801Y-112514500D01*
X121492709Y-112134791D01*
X121495358Y-112119026D01*
X121374217Y-111887000D01*
X120015000Y-111887000D01*
X120015000Y-111907000D01*
X119761000Y-111907000D01*
X119761000Y-111887000D01*
X118401783Y-111887000D01*
X118280642Y-112119026D01*
X118283291Y-112134791D01*
X118466199Y-112514500D01*
X117321995Y-112514500D01*
X116837700Y-112453625D01*
X116562610Y-112296943D01*
X116368420Y-112046917D01*
X116268500Y-111682560D01*
X116268500Y-58371048D01*
X116525260Y-58628257D01*
X117551801Y-59054514D01*
X118663323Y-59055484D01*
X119690606Y-58631019D01*
X120477257Y-57845740D01*
X120903514Y-56819199D01*
X120904484Y-55707677D01*
X120480019Y-54680394D01*
X120219580Y-54419500D01*
X147876952Y-54419500D01*
X147619743Y-54676260D01*
X147619743Y-54676260D01*
G37*
X147619743Y-54676260D02*
X147193486Y-55702801D01*
X147192516Y-56814323D01*
X147616981Y-57841606D01*
X148050817Y-58276200D01*
X136405500Y-58276200D01*
X136075015Y-58341938D01*
X135794843Y-58529142D01*
X134861444Y-59462541D01*
X134763044Y-59363969D01*
X134203112Y-59131465D01*
X133596828Y-59130936D01*
X133036491Y-59362462D01*
X132628304Y-59769937D01*
X132223044Y-59363969D01*
X131663112Y-59131465D01*
X131056828Y-59130936D01*
X130496491Y-59362462D01*
X130088304Y-59769937D01*
X129683044Y-59363969D01*
X129123112Y-59131465D01*
X128516828Y-59130936D01*
X127956491Y-59362462D01*
X127548304Y-59769937D01*
X127143044Y-59363969D01*
X126583112Y-59131465D01*
X125976828Y-59130936D01*
X125416491Y-59362462D01*
X124987409Y-59790796D01*
X124754905Y-60350728D01*
X124754376Y-60957012D01*
X124985902Y-61517349D01*
X125414236Y-61946431D01*
X125974168Y-62178935D01*
X126580452Y-62179464D01*
X126581229Y-62179143D01*
X128104286Y-63702200D01*
X121172800Y-63702200D01*
X120783993Y-63779538D01*
X120454380Y-63999779D01*
X119169580Y-65284580D01*
X118949338Y-65614193D01*
X118949338Y-65614194D01*
X118872000Y-66003000D01*
X118872000Y-92339472D01*
X118589620Y-92392605D01*
X118330271Y-92559492D01*
X118156283Y-92814131D01*
X118095072Y-93116400D01*
X118095072Y-94843600D01*
X118148205Y-95125980D01*
X118315092Y-95385329D01*
X118470467Y-95491493D01*
X118198908Y-95897910D01*
X118075167Y-96520000D01*
X118198908Y-97142090D01*
X118551294Y-97669473D01*
X118731675Y-97790000D01*
X118551294Y-97910527D01*
X118198908Y-98437910D01*
X118075167Y-99060000D01*
X118198908Y-99682090D01*
X118551294Y-100209473D01*
X118731675Y-100330000D01*
X118551294Y-100450527D01*
X118198908Y-100977910D01*
X118075167Y-101600000D01*
X118198908Y-102222090D01*
X118551294Y-102749473D01*
X118731675Y-102870000D01*
X118551294Y-102990527D01*
X118198908Y-103517910D01*
X118075167Y-104140000D01*
X118198908Y-104762090D01*
X118551294Y-105289473D01*
X118731675Y-105410000D01*
X118551294Y-105530527D01*
X118198908Y-106057910D01*
X118075167Y-106680000D01*
X118198908Y-107302090D01*
X118551294Y-107829473D01*
X118731675Y-107950000D01*
X118551294Y-108070527D01*
X118198908Y-108597910D01*
X118075167Y-109220000D01*
X118198908Y-109842090D01*
X118551294Y-110369473D01*
X118856075Y-110573121D01*
X118537268Y-110857964D01*
X118283291Y-111385209D01*
X118280642Y-111400974D01*
X118401783Y-111633000D01*
X119761000Y-111633000D01*
X119761000Y-111613000D01*
X120015000Y-111613000D01*
X120015000Y-111633000D01*
X121374217Y-111633000D01*
X121495358Y-111400974D01*
X121492709Y-111385209D01*
X121238732Y-110857964D01*
X120919925Y-110573121D01*
X121224706Y-110369473D01*
X121577092Y-109842090D01*
X121700833Y-109220000D01*
X121577092Y-108597910D01*
X121224706Y-108070527D01*
X121044325Y-107950000D01*
X121224706Y-107829473D01*
X121577092Y-107302090D01*
X121700833Y-106680000D01*
X121577092Y-106057910D01*
X121224706Y-105530527D01*
X121044325Y-105410000D01*
X121224706Y-105289473D01*
X121577092Y-104762090D01*
X121700833Y-104140000D01*
X121577092Y-103517910D01*
X121362045Y-103196069D01*
X122233757Y-102324357D01*
X122420962Y-102044185D01*
X122429046Y-102003546D01*
X122486700Y-101713700D01*
X122486700Y-97125016D01*
X127804590Y-97125016D01*
X127860271Y-97355611D01*
X128343078Y-97523622D01*
X128853428Y-97494083D01*
X129187729Y-97355611D01*
X129243410Y-97125016D01*
X128524000Y-96405605D01*
X127804590Y-97125016D01*
X122486700Y-97125016D01*
X122486700Y-96045078D01*
X127226378Y-96045078D01*
X127255917Y-96555428D01*
X127394389Y-96889729D01*
X127624984Y-96945410D01*
X128344395Y-96226000D01*
X128703605Y-96226000D01*
X129423016Y-96945410D01*
X129653611Y-96889729D01*
X129821622Y-96406922D01*
X129792083Y-95896572D01*
X129653611Y-95562271D01*
X129423016Y-95506590D01*
X128703605Y-96226000D01*
X128344395Y-96226000D01*
X127624984Y-95506590D01*
X127394389Y-95562271D01*
X127226378Y-96045078D01*
X122486700Y-96045078D01*
X122486700Y-90525600D01*
X122615233Y-90525600D01*
X123237323Y-90401859D01*
X123764706Y-90049473D01*
X124117092Y-89522090D01*
X124171405Y-89249039D01*
X127417096Y-89249039D01*
X127434633Y-89331819D01*
X127704500Y-89824896D01*
X128142517Y-90177166D01*
X128682000Y-90335000D01*
X129032000Y-90335000D01*
X129032000Y-89027000D01*
X129286000Y-89027000D01*
X129286000Y-90335000D01*
X129636000Y-90335000D01*
X130175483Y-90177166D01*
X130613500Y-89824896D01*
X130883367Y-89331819D01*
X130900904Y-89249039D01*
X130778915Y-89027000D01*
X129286000Y-89027000D01*
X129032000Y-89027000D01*
X127539085Y-89027000D01*
X127417096Y-89249039D01*
X124171405Y-89249039D01*
X124240833Y-88900000D01*
X124139846Y-88392300D01*
X127476164Y-88392300D01*
X127434633Y-88468181D01*
X127417096Y-88550961D01*
X127539085Y-88773000D01*
X129032000Y-88773000D01*
X129032000Y-88753000D01*
X129286000Y-88753000D01*
X129286000Y-88773000D01*
X130778915Y-88773000D01*
X130900904Y-88550961D01*
X130883367Y-88468181D01*
X130655879Y-88052535D01*
X134839309Y-83869105D01*
X134948442Y-84417752D01*
X135204226Y-84800559D01*
X133937743Y-86067043D01*
X133750538Y-86347215D01*
X133684800Y-86677700D01*
X133684800Y-91281600D01*
X133741141Y-91564843D01*
X133750538Y-91612085D01*
X133937743Y-91892257D01*
X134465131Y-92419646D01*
X134465002Y-92567759D01*
X134638646Y-92988012D01*
X134842179Y-93191900D01*
X130534240Y-93191900D01*
X130349920Y-93007580D01*
X130020307Y-92787338D01*
X129910830Y-92765562D01*
X129875177Y-92758470D01*
X129730908Y-92534271D01*
X129476269Y-92360283D01*
X129174000Y-92299072D01*
X127874000Y-92299072D01*
X127591620Y-92352205D01*
X127332271Y-92519092D01*
X127158283Y-92773731D01*
X127097072Y-93076000D01*
X127097072Y-94376000D01*
X127150205Y-94658380D01*
X127317092Y-94917729D01*
X127571731Y-95091717D01*
X127847895Y-95147642D01*
X127804590Y-95326984D01*
X128524000Y-96046395D01*
X129243410Y-95326984D01*
X129200191Y-95148000D01*
X129456380Y-95099795D01*
X129557357Y-95034818D01*
X129724593Y-95146562D01*
X130113400Y-95223900D01*
X143594073Y-95223900D01*
X143672654Y-95414080D01*
X144047447Y-95789527D01*
X144537387Y-95992968D01*
X145008507Y-95993379D01*
X144782143Y-96219743D01*
X144594938Y-96499915D01*
X144529200Y-96830400D01*
X144529200Y-99678156D01*
X144424377Y-99782797D01*
X144249999Y-100202746D01*
X144249602Y-100657459D01*
X144423246Y-101077712D01*
X144744497Y-101399523D01*
X145164446Y-101573901D01*
X145619159Y-101574298D01*
X146039412Y-101400654D01*
X146145551Y-101294700D01*
X146167072Y-101294700D01*
X146167072Y-101735000D01*
X146186252Y-101836933D01*
X144930243Y-103092943D01*
X144743038Y-103373115D01*
X144677300Y-103703600D01*
X144677300Y-105028508D01*
X144373272Y-104902265D01*
X143766988Y-104901736D01*
X143766183Y-104902069D01*
X141388457Y-102524343D01*
X141108285Y-102337138D01*
X140851673Y-102286094D01*
X140851998Y-101913741D01*
X140678354Y-101493488D01*
X140479080Y-101293867D01*
X140697023Y-101076303D01*
X140871401Y-100656354D01*
X140871798Y-100201641D01*
X140698154Y-99781388D01*
X140376903Y-99459577D01*
X139956954Y-99285199D01*
X139502241Y-99284802D01*
X139081988Y-99458446D01*
X138773597Y-99766300D01*
X137894000Y-99766300D01*
X137757600Y-99793432D01*
X137757600Y-99598214D01*
X138459446Y-98896369D01*
X138607559Y-98896498D01*
X139027812Y-98722854D01*
X139349623Y-98401603D01*
X139524001Y-97981654D01*
X139524398Y-97526941D01*
X139350754Y-97106688D01*
X139029503Y-96784877D01*
X138609554Y-96610499D01*
X138154841Y-96610102D01*
X137734588Y-96783746D01*
X137412777Y-97104997D01*
X137392062Y-97154884D01*
X137363554Y-97085888D01*
X137042303Y-96764077D01*
X136622354Y-96589699D01*
X136167641Y-96589302D01*
X135756577Y-96759149D01*
X135400754Y-96611399D01*
X134946041Y-96611002D01*
X134525788Y-96784646D01*
X134241831Y-97068109D01*
X133952303Y-96778077D01*
X133532354Y-96603699D01*
X133077641Y-96603302D01*
X132657388Y-96776946D01*
X132335577Y-97098197D01*
X132161199Y-97518146D01*
X132160802Y-97972859D01*
X132334446Y-98393112D01*
X132655697Y-98714923D01*
X133075646Y-98889301D01*
X133225618Y-98889432D01*
X134030400Y-99694215D01*
X134030400Y-99766300D01*
X133179900Y-99766300D01*
X132907707Y-99820443D01*
X132849415Y-99832038D01*
X132569243Y-100019243D01*
X132468455Y-100120031D01*
X132320341Y-100119902D01*
X131900088Y-100293546D01*
X131578277Y-100614797D01*
X131403899Y-101034746D01*
X131403502Y-101489459D01*
X131577146Y-101909712D01*
X131580689Y-101913261D01*
X131543199Y-102003546D01*
X131542965Y-102271400D01*
X130513500Y-102271400D01*
X130183015Y-102337138D01*
X129902843Y-102524342D01*
X127427824Y-104999361D01*
X127353069Y-104948283D01*
X127050800Y-104887072D01*
X125526800Y-104887072D01*
X125244420Y-104940205D01*
X124985071Y-105107092D01*
X124811083Y-105361731D01*
X124749872Y-105664000D01*
X124749872Y-107188000D01*
X124803005Y-107470380D01*
X124969892Y-107729729D01*
X125224531Y-107903717D01*
X125526800Y-107964928D01*
X127050800Y-107964928D01*
X127333180Y-107911795D01*
X127592529Y-107744908D01*
X127754860Y-107507329D01*
X127964396Y-107717231D01*
X128524328Y-107949735D01*
X129130612Y-107950264D01*
X129690949Y-107718738D01*
X130099136Y-107311263D01*
X130504396Y-107717231D01*
X131064328Y-107949735D01*
X131670612Y-107950264D01*
X132230949Y-107718738D01*
X132639136Y-107311263D01*
X133044396Y-107717231D01*
X133604328Y-107949735D01*
X134210612Y-107950264D01*
X134770949Y-107718738D01*
X135179136Y-107311263D01*
X135584396Y-107717231D01*
X136144328Y-107949735D01*
X136750612Y-107950264D01*
X137310949Y-107718738D01*
X137719136Y-107311263D01*
X138124396Y-107717231D01*
X138684328Y-107949735D01*
X139290612Y-107950264D01*
X139850949Y-107718738D01*
X140259136Y-107311263D01*
X140664396Y-107717231D01*
X141224328Y-107949735D01*
X141830612Y-107950264D01*
X142390949Y-107718738D01*
X142799136Y-107311263D01*
X143204396Y-107717231D01*
X143764328Y-107949735D01*
X144370612Y-107950264D01*
X144930949Y-107718738D01*
X145029222Y-107620636D01*
X145536442Y-108127857D01*
X145816614Y-108315062D01*
X145871445Y-108325969D01*
X146147100Y-108380800D01*
X150597600Y-108380800D01*
X150928085Y-108315062D01*
X151208257Y-108127857D01*
X151386377Y-107949737D01*
X151990612Y-107950264D01*
X152550949Y-107718738D01*
X152959136Y-107311263D01*
X153364396Y-107717231D01*
X153924328Y-107949735D01*
X154530612Y-107950264D01*
X155090949Y-107718738D01*
X155499136Y-107311263D01*
X155904396Y-107717231D01*
X156464328Y-107949735D01*
X157070612Y-107950264D01*
X157630949Y-107718738D01*
X158039136Y-107311263D01*
X158444396Y-107717231D01*
X159004328Y-107949735D01*
X159610612Y-107950264D01*
X160170949Y-107718738D01*
X160579136Y-107311263D01*
X160984396Y-107717231D01*
X161544328Y-107949735D01*
X162150612Y-107950264D01*
X162710949Y-107718738D01*
X163119136Y-107311263D01*
X163524396Y-107717231D01*
X164084328Y-107949735D01*
X164690612Y-107950264D01*
X165250949Y-107718738D01*
X165680031Y-107290404D01*
X165912535Y-106730472D01*
X165913064Y-106124188D01*
X165681538Y-105563851D01*
X165253204Y-105134769D01*
X164693272Y-104902265D01*
X164086988Y-104901736D01*
X164086183Y-104902069D01*
X161751414Y-102567300D01*
X162813986Y-102567300D01*
X168684170Y-108437484D01*
X167817199Y-108077486D01*
X166705677Y-108076516D01*
X165678394Y-108500981D01*
X164891743Y-109286260D01*
X164465486Y-110312801D01*
X164464516Y-111424323D01*
X164888981Y-112451606D01*
X164951765Y-112514500D01*
X128419394Y-112514500D01*
X128478257Y-112455740D01*
X128904514Y-111429199D01*
X128905484Y-110317677D01*
X128481019Y-109290394D01*
X127695740Y-108503743D01*
X126669199Y-108077486D01*
X125557677Y-108076516D01*
X124530394Y-108500981D01*
X123743743Y-109286260D01*
X123317486Y-110312801D01*
X123316516Y-111424323D01*
X123740981Y-112451606D01*
X123803765Y-112514500D01*
X121309801Y-112514500D01*
X121492709Y-112134791D01*
X121495358Y-112119026D01*
X121374217Y-111887000D01*
X120015000Y-111887000D01*
X120015000Y-111907000D01*
X119761000Y-111907000D01*
X119761000Y-111887000D01*
X118401783Y-111887000D01*
X118280642Y-112119026D01*
X118283291Y-112134791D01*
X118466199Y-112514500D01*
X117321995Y-112514500D01*
X116837700Y-112453625D01*
X116562610Y-112296943D01*
X116368420Y-112046917D01*
X116268500Y-111682560D01*
X116268500Y-58371048D01*
X116525260Y-58628257D01*
X117551801Y-59054514D01*
X118663323Y-59055484D01*
X119690606Y-58631019D01*
X120477257Y-57845740D01*
X120903514Y-56819199D01*
X120904484Y-55707677D01*
X120480019Y-54680394D01*
X120219580Y-54419500D01*
X147876952Y-54419500D01*
X147619743Y-54676260D01*
G36*
X171397023Y-72218652D02*
X171659661Y-72611716D01*
X171845705Y-72736027D01*
X171891565Y-72966580D01*
X171908338Y-73050907D01*
X172128580Y-73380520D01*
X172654330Y-73906271D01*
X172544271Y-73977092D01*
X172370283Y-74231731D01*
X172314358Y-74507895D01*
X172135016Y-74464590D01*
X171415605Y-75184000D01*
X172135016Y-75903410D01*
X172314000Y-75860191D01*
X172362205Y-76116380D01*
X172529092Y-76375729D01*
X172720000Y-76506171D01*
X172720000Y-82500013D01*
X172544271Y-82613092D01*
X172370283Y-82867731D01*
X172314358Y-83143895D01*
X172135016Y-83100590D01*
X171415605Y-83820000D01*
X172135016Y-84539410D01*
X172314000Y-84496191D01*
X172362205Y-84752380D01*
X172529092Y-85011729D01*
X172783731Y-85185717D01*
X173086000Y-85246928D01*
X174363500Y-85246928D01*
X174363500Y-111506000D01*
X174375198Y-111564811D01*
X174328025Y-111940100D01*
X174171343Y-112215190D01*
X173921317Y-112409380D01*
X173537999Y-112514500D01*
X172109801Y-112514500D01*
X172292709Y-112134791D01*
X172295358Y-112119026D01*
X172174217Y-111887000D01*
X170815000Y-111887000D01*
X170815000Y-111907000D01*
X170561000Y-111907000D01*
X170561000Y-111887000D01*
X170541000Y-111887000D01*
X170541000Y-111633000D01*
X170561000Y-111633000D01*
X170561000Y-111613000D01*
X170815000Y-111613000D01*
X170815000Y-111633000D01*
X172174217Y-111633000D01*
X172295358Y-111400974D01*
X172292709Y-111385209D01*
X172038732Y-110857964D01*
X171719925Y-110573121D01*
X172024706Y-110369473D01*
X172377092Y-109842090D01*
X172500833Y-109220000D01*
X172377092Y-108597910D01*
X172024706Y-108070527D01*
X171844325Y-107950000D01*
X172024706Y-107829473D01*
X172377092Y-107302090D01*
X172500833Y-106680000D01*
X172377092Y-106057910D01*
X172024706Y-105530527D01*
X171844325Y-105410000D01*
X172024706Y-105289473D01*
X172377092Y-104762090D01*
X172500833Y-104140000D01*
X172377092Y-103517910D01*
X172024706Y-102990527D01*
X171844325Y-102870000D01*
X172024706Y-102749473D01*
X172377092Y-102222090D01*
X172500833Y-101600000D01*
X172377092Y-100977910D01*
X172024706Y-100450527D01*
X171844325Y-100330000D01*
X172024706Y-100209473D01*
X172377092Y-99682090D01*
X172500833Y-99060000D01*
X172377092Y-98437910D01*
X172024706Y-97910527D01*
X171844325Y-97790000D01*
X172024706Y-97669473D01*
X172377092Y-97142090D01*
X172500833Y-96520000D01*
X172377092Y-95897910D01*
X172105173Y-95490954D01*
X172245729Y-95400508D01*
X172419717Y-95145869D01*
X172480928Y-94843600D01*
X172480928Y-93116400D01*
X172427795Y-92834020D01*
X172260908Y-92574671D01*
X172006269Y-92400683D01*
X171704000Y-92339472D01*
X171640462Y-92339472D01*
X171626662Y-92270094D01*
X171406420Y-91940480D01*
X171094200Y-91731860D01*
X171094200Y-85115358D01*
X171565428Y-85088083D01*
X171899729Y-84949611D01*
X171955410Y-84719016D01*
X171236000Y-83999605D01*
X171221858Y-84013748D01*
X171094200Y-83886090D01*
X171094200Y-83753910D01*
X171221858Y-83626253D01*
X171236000Y-83640395D01*
X171955410Y-82920984D01*
X171899729Y-82690389D01*
X171416922Y-82522378D01*
X171094200Y-82541057D01*
X171094200Y-76479358D01*
X171565428Y-76452083D01*
X171899729Y-76313611D01*
X171955410Y-76083016D01*
X171236000Y-75363605D01*
X171221858Y-75377748D01*
X171094200Y-75250090D01*
X171094200Y-75117910D01*
X171221858Y-74990253D01*
X171236000Y-75004395D01*
X171955410Y-74284984D01*
X171899729Y-74054389D01*
X171416922Y-73886378D01*
X171094200Y-73905057D01*
X171094200Y-72466540D01*
X171387909Y-72172832D01*
X171397023Y-72218652D01*
X171397023Y-72218652D01*
G37*
X171397023Y-72218652D02*
X171659661Y-72611716D01*
X171845705Y-72736027D01*
X171891565Y-72966580D01*
X171908338Y-73050907D01*
X172128580Y-73380520D01*
X172654330Y-73906271D01*
X172544271Y-73977092D01*
X172370283Y-74231731D01*
X172314358Y-74507895D01*
X172135016Y-74464590D01*
X171415605Y-75184000D01*
X172135016Y-75903410D01*
X172314000Y-75860191D01*
X172362205Y-76116380D01*
X172529092Y-76375729D01*
X172720000Y-76506171D01*
X172720000Y-82500013D01*
X172544271Y-82613092D01*
X172370283Y-82867731D01*
X172314358Y-83143895D01*
X172135016Y-83100590D01*
X171415605Y-83820000D01*
X172135016Y-84539410D01*
X172314000Y-84496191D01*
X172362205Y-84752380D01*
X172529092Y-85011729D01*
X172783731Y-85185717D01*
X173086000Y-85246928D01*
X174363500Y-85246928D01*
X174363500Y-111506000D01*
X174375198Y-111564811D01*
X174328025Y-111940100D01*
X174171343Y-112215190D01*
X173921317Y-112409380D01*
X173537999Y-112514500D01*
X172109801Y-112514500D01*
X172292709Y-112134791D01*
X172295358Y-112119026D01*
X172174217Y-111887000D01*
X170815000Y-111887000D01*
X170815000Y-111907000D01*
X170561000Y-111907000D01*
X170561000Y-111887000D01*
X170541000Y-111887000D01*
X170541000Y-111633000D01*
X170561000Y-111633000D01*
X170561000Y-111613000D01*
X170815000Y-111613000D01*
X170815000Y-111633000D01*
X172174217Y-111633000D01*
X172295358Y-111400974D01*
X172292709Y-111385209D01*
X172038732Y-110857964D01*
X171719925Y-110573121D01*
X172024706Y-110369473D01*
X172377092Y-109842090D01*
X172500833Y-109220000D01*
X172377092Y-108597910D01*
X172024706Y-108070527D01*
X171844325Y-107950000D01*
X172024706Y-107829473D01*
X172377092Y-107302090D01*
X172500833Y-106680000D01*
X172377092Y-106057910D01*
X172024706Y-105530527D01*
X171844325Y-105410000D01*
X172024706Y-105289473D01*
X172377092Y-104762090D01*
X172500833Y-104140000D01*
X172377092Y-103517910D01*
X172024706Y-102990527D01*
X171844325Y-102870000D01*
X172024706Y-102749473D01*
X172377092Y-102222090D01*
X172500833Y-101600000D01*
X172377092Y-100977910D01*
X172024706Y-100450527D01*
X171844325Y-100330000D01*
X172024706Y-100209473D01*
X172377092Y-99682090D01*
X172500833Y-99060000D01*
X172377092Y-98437910D01*
X172024706Y-97910527D01*
X171844325Y-97790000D01*
X172024706Y-97669473D01*
X172377092Y-97142090D01*
X172500833Y-96520000D01*
X172377092Y-95897910D01*
X172105173Y-95490954D01*
X172245729Y-95400508D01*
X172419717Y-95145869D01*
X172480928Y-94843600D01*
X172480928Y-93116400D01*
X172427795Y-92834020D01*
X172260908Y-92574671D01*
X172006269Y-92400683D01*
X171704000Y-92339472D01*
X171640462Y-92339472D01*
X171626662Y-92270094D01*
X171406420Y-91940480D01*
X171094200Y-91731860D01*
X171094200Y-85115358D01*
X171565428Y-85088083D01*
X171899729Y-84949611D01*
X171955410Y-84719016D01*
X171236000Y-83999605D01*
X171221858Y-84013748D01*
X171094200Y-83886090D01*
X171094200Y-83753910D01*
X171221858Y-83626253D01*
X171236000Y-83640395D01*
X171955410Y-82920984D01*
X171899729Y-82690389D01*
X171416922Y-82522378D01*
X171094200Y-82541057D01*
X171094200Y-76479358D01*
X171565428Y-76452083D01*
X171899729Y-76313611D01*
X171955410Y-76083016D01*
X171236000Y-75363605D01*
X171221858Y-75377748D01*
X171094200Y-75250090D01*
X171094200Y-75117910D01*
X171221858Y-74990253D01*
X171236000Y-75004395D01*
X171955410Y-74284984D01*
X171899729Y-74054389D01*
X171416922Y-73886378D01*
X171094200Y-73905057D01*
X171094200Y-72466540D01*
X171387909Y-72172832D01*
X171397023Y-72218652D01*
G36*
X159731167Y-97536000D02*
X159854908Y-98158090D01*
X160207294Y-98685473D01*
X160512075Y-98889121D01*
X160193268Y-99173964D01*
X159939291Y-99701209D01*
X159936642Y-99716974D01*
X160057783Y-99949000D01*
X161417000Y-99949000D01*
X161417000Y-99929000D01*
X161671000Y-99929000D01*
X161671000Y-99949000D01*
X163030217Y-99949000D01*
X163151358Y-99716974D01*
X163148709Y-99701209D01*
X162894732Y-99173964D01*
X162575925Y-98889121D01*
X162880706Y-98685473D01*
X163233092Y-98158090D01*
X163286960Y-97887274D01*
X168981642Y-103581957D01*
X168985637Y-103584627D01*
X168875167Y-104140000D01*
X168998908Y-104762090D01*
X169351294Y-105289473D01*
X169531675Y-105410000D01*
X169351294Y-105530527D01*
X168998908Y-106057910D01*
X168957151Y-106267837D01*
X163782357Y-101093043D01*
X163502185Y-100905838D01*
X163171700Y-100840100D01*
X162961177Y-100840100D01*
X163148709Y-100450791D01*
X163151358Y-100435026D01*
X163030217Y-100203000D01*
X161671000Y-100203000D01*
X161671000Y-100223000D01*
X161417000Y-100223000D01*
X161417000Y-100203000D01*
X160057783Y-100203000D01*
X159936642Y-100435026D01*
X159939291Y-100450791D01*
X160126823Y-100840100D01*
X160102315Y-100840100D01*
X159051557Y-99789343D01*
X158771385Y-99602138D01*
X158440900Y-99536400D01*
X158306814Y-99536400D01*
X155838914Y-97068500D01*
X159824158Y-97068500D01*
X159731167Y-97536000D01*
X159731167Y-97536000D01*
G37*
X159731167Y-97536000D02*
X159854908Y-98158090D01*
X160207294Y-98685473D01*
X160512075Y-98889121D01*
X160193268Y-99173964D01*
X159939291Y-99701209D01*
X159936642Y-99716974D01*
X160057783Y-99949000D01*
X161417000Y-99949000D01*
X161417000Y-99929000D01*
X161671000Y-99929000D01*
X161671000Y-99949000D01*
X163030217Y-99949000D01*
X163151358Y-99716974D01*
X163148709Y-99701209D01*
X162894732Y-99173964D01*
X162575925Y-98889121D01*
X162880706Y-98685473D01*
X163233092Y-98158090D01*
X163286960Y-97887274D01*
X168981642Y-103581957D01*
X168985637Y-103584627D01*
X168875167Y-104140000D01*
X168998908Y-104762090D01*
X169351294Y-105289473D01*
X169531675Y-105410000D01*
X169351294Y-105530527D01*
X168998908Y-106057910D01*
X168957151Y-106267837D01*
X163782357Y-101093043D01*
X163502185Y-100905838D01*
X163171700Y-100840100D01*
X162961177Y-100840100D01*
X163148709Y-100450791D01*
X163151358Y-100435026D01*
X163030217Y-100203000D01*
X161671000Y-100203000D01*
X161671000Y-100223000D01*
X161417000Y-100223000D01*
X161417000Y-100203000D01*
X160057783Y-100203000D01*
X159936642Y-100435026D01*
X159939291Y-100450791D01*
X160126823Y-100840100D01*
X160102315Y-100840100D01*
X159051557Y-99789343D01*
X158771385Y-99602138D01*
X158440900Y-99536400D01*
X158306814Y-99536400D01*
X155838914Y-97068500D01*
X159824158Y-97068500D01*
X159731167Y-97536000D01*
G36*
X168275000Y-93853000D02*
X168295000Y-93853000D01*
X168295000Y-94107000D01*
X168275000Y-94107000D01*
X168275000Y-96393000D01*
X168295000Y-96393000D01*
X168295000Y-96647000D01*
X168275000Y-96647000D01*
X168275000Y-96667000D01*
X168021000Y-96667000D01*
X168021000Y-96647000D01*
X168001000Y-96647000D01*
X168001000Y-96393000D01*
X168021000Y-96393000D01*
X168021000Y-94107000D01*
X168001000Y-94107000D01*
X168001000Y-93853000D01*
X168021000Y-93853000D01*
X168021000Y-93833000D01*
X168275000Y-93833000D01*
X168275000Y-93853000D01*
X168275000Y-93853000D01*
G37*
X168275000Y-93853000D02*
X168295000Y-93853000D01*
X168295000Y-94107000D01*
X168275000Y-94107000D01*
X168275000Y-96393000D01*
X168295000Y-96393000D01*
X168295000Y-96647000D01*
X168275000Y-96647000D01*
X168275000Y-96667000D01*
X168021000Y-96667000D01*
X168021000Y-96647000D01*
X168001000Y-96647000D01*
X168001000Y-96393000D01*
X168021000Y-96393000D01*
X168021000Y-94107000D01*
X168001000Y-94107000D01*
X168001000Y-93853000D01*
X168021000Y-93853000D01*
X168021000Y-93833000D01*
X168275000Y-93833000D01*
X168275000Y-93853000D01*
G36*
X173984460Y-55120000D02*
X174004460Y-55120000D01*
X174004460Y-55374000D01*
X173984460Y-55374000D01*
X173984460Y-56332000D01*
X174334460Y-56332000D01*
X174363500Y-56322606D01*
X174363500Y-60771394D01*
X174334460Y-60762000D01*
X173984460Y-60762000D01*
X173984460Y-61720000D01*
X174004460Y-61720000D01*
X174004460Y-61974000D01*
X173984460Y-61974000D01*
X173984460Y-62932000D01*
X174334460Y-62932000D01*
X174363500Y-62922606D01*
X174363500Y-64613507D01*
X174003922Y-64488378D01*
X173493572Y-64517917D01*
X173159271Y-64656389D01*
X173103590Y-64886984D01*
X173823000Y-65606395D01*
X173837142Y-65592252D01*
X174016748Y-65771858D01*
X174002605Y-65786000D01*
X174016748Y-65800142D01*
X173837142Y-65979748D01*
X173823000Y-65965605D01*
X173103590Y-66685016D01*
X173159271Y-66915611D01*
X173642078Y-67083622D01*
X174152428Y-67054083D01*
X174363500Y-66966654D01*
X174363500Y-70355782D01*
X174296977Y-70021348D01*
X174091696Y-69714124D01*
X174191981Y-69508935D01*
X174065068Y-69342000D01*
X173522398Y-69342000D01*
X173177623Y-69273420D01*
X172700000Y-69273420D01*
X172700000Y-69088000D01*
X172720000Y-69088000D01*
X172720000Y-68130420D01*
X172974000Y-68130420D01*
X172974000Y-69088000D01*
X174065068Y-69088000D01*
X174191981Y-68921065D01*
X174004706Y-68537889D01*
X173680373Y-68261580D01*
X173274990Y-68130420D01*
X172974000Y-68130420D01*
X172720000Y-68130420D01*
X172654900Y-68130420D01*
X172654900Y-67209400D01*
X172589942Y-66882831D01*
X172688717Y-66738269D01*
X172744642Y-66462105D01*
X172923984Y-66505410D01*
X173643395Y-65786000D01*
X172923984Y-65066590D01*
X172745000Y-65109809D01*
X172696795Y-64853620D01*
X172529908Y-64594271D01*
X172289583Y-64430063D01*
X172261662Y-64289694D01*
X172188581Y-64180321D01*
X172041420Y-63960079D01*
X171098795Y-63017455D01*
X171143000Y-62973250D01*
X171143000Y-61824000D01*
X171123000Y-61824000D01*
X171123000Y-61570000D01*
X171143000Y-61570000D01*
X171143000Y-60420750D01*
X171030460Y-60308210D01*
X171030460Y-60173028D01*
X171284460Y-60173028D01*
X171284460Y-60522350D01*
X171397000Y-60634890D01*
X171397000Y-61570000D01*
X171417000Y-61570000D01*
X171417000Y-61824000D01*
X171397000Y-61824000D01*
X171397000Y-62973250D01*
X171555750Y-63132000D01*
X172096310Y-63132000D01*
X172329699Y-63035327D01*
X172508327Y-62856698D01*
X172605000Y-62623309D01*
X172605000Y-62431424D01*
X172650447Y-62524408D01*
X172974916Y-62800808D01*
X173380460Y-62932000D01*
X173730460Y-62932000D01*
X173730460Y-61974000D01*
X173710460Y-61974000D01*
X173710460Y-61720000D01*
X173730460Y-61720000D01*
X173730460Y-60762000D01*
X173380460Y-60762000D01*
X172974916Y-60893192D01*
X172650447Y-61169592D01*
X172605000Y-61262576D01*
X172605000Y-60770691D01*
X172508327Y-60537302D01*
X172436306Y-60465280D01*
X172495787Y-60405799D01*
X172592460Y-60172410D01*
X172592460Y-60104850D01*
X172463551Y-59975941D01*
X172499189Y-59953008D01*
X172673177Y-59698369D01*
X172734388Y-59396100D01*
X172734388Y-58996100D01*
X172710004Y-58866510D01*
X172734388Y-58746100D01*
X172734388Y-58346100D01*
X172710004Y-58216510D01*
X172734388Y-58096100D01*
X172734388Y-57696100D01*
X172710004Y-57566510D01*
X172734388Y-57446100D01*
X172734388Y-57046100D01*
X172681255Y-56763720D01*
X172523879Y-56519152D01*
X172605000Y-56323309D01*
X172605000Y-55831424D01*
X172650447Y-55924408D01*
X172974916Y-56200808D01*
X173380460Y-56332000D01*
X173730460Y-56332000D01*
X173730460Y-55374000D01*
X173710460Y-55374000D01*
X173710460Y-55120000D01*
X173730460Y-55120000D01*
X173730460Y-55100000D01*
X173984460Y-55100000D01*
X173984460Y-55120000D01*
X173984460Y-55120000D01*
G37*
X173984460Y-55120000D02*
X174004460Y-55120000D01*
X174004460Y-55374000D01*
X173984460Y-55374000D01*
X173984460Y-56332000D01*
X174334460Y-56332000D01*
X174363500Y-56322606D01*
X174363500Y-60771394D01*
X174334460Y-60762000D01*
X173984460Y-60762000D01*
X173984460Y-61720000D01*
X174004460Y-61720000D01*
X174004460Y-61974000D01*
X173984460Y-61974000D01*
X173984460Y-62932000D01*
X174334460Y-62932000D01*
X174363500Y-62922606D01*
X174363500Y-64613507D01*
X174003922Y-64488378D01*
X173493572Y-64517917D01*
X173159271Y-64656389D01*
X173103590Y-64886984D01*
X173823000Y-65606395D01*
X173837142Y-65592252D01*
X174016748Y-65771858D01*
X174002605Y-65786000D01*
X174016748Y-65800142D01*
X173837142Y-65979748D01*
X173823000Y-65965605D01*
X173103590Y-66685016D01*
X173159271Y-66915611D01*
X173642078Y-67083622D01*
X174152428Y-67054083D01*
X174363500Y-66966654D01*
X174363500Y-70355782D01*
X174296977Y-70021348D01*
X174091696Y-69714124D01*
X174191981Y-69508935D01*
X174065068Y-69342000D01*
X173522398Y-69342000D01*
X173177623Y-69273420D01*
X172700000Y-69273420D01*
X172700000Y-69088000D01*
X172720000Y-69088000D01*
X172720000Y-68130420D01*
X172974000Y-68130420D01*
X172974000Y-69088000D01*
X174065068Y-69088000D01*
X174191981Y-68921065D01*
X174004706Y-68537889D01*
X173680373Y-68261580D01*
X173274990Y-68130420D01*
X172974000Y-68130420D01*
X172720000Y-68130420D01*
X172654900Y-68130420D01*
X172654900Y-67209400D01*
X172589942Y-66882831D01*
X172688717Y-66738269D01*
X172744642Y-66462105D01*
X172923984Y-66505410D01*
X173643395Y-65786000D01*
X172923984Y-65066590D01*
X172745000Y-65109809D01*
X172696795Y-64853620D01*
X172529908Y-64594271D01*
X172289583Y-64430063D01*
X172261662Y-64289694D01*
X172188581Y-64180321D01*
X172041420Y-63960079D01*
X171098795Y-63017455D01*
X171143000Y-62973250D01*
X171143000Y-61824000D01*
X171123000Y-61824000D01*
X171123000Y-61570000D01*
X171143000Y-61570000D01*
X171143000Y-60420750D01*
X171030460Y-60308210D01*
X171030460Y-60173028D01*
X171284460Y-60173028D01*
X171284460Y-60522350D01*
X171397000Y-60634890D01*
X171397000Y-61570000D01*
X171417000Y-61570000D01*
X171417000Y-61824000D01*
X171397000Y-61824000D01*
X171397000Y-62973250D01*
X171555750Y-63132000D01*
X172096310Y-63132000D01*
X172329699Y-63035327D01*
X172508327Y-62856698D01*
X172605000Y-62623309D01*
X172605000Y-62431424D01*
X172650447Y-62524408D01*
X172974916Y-62800808D01*
X173380460Y-62932000D01*
X173730460Y-62932000D01*
X173730460Y-61974000D01*
X173710460Y-61974000D01*
X173710460Y-61720000D01*
X173730460Y-61720000D01*
X173730460Y-60762000D01*
X173380460Y-60762000D01*
X172974916Y-60893192D01*
X172650447Y-61169592D01*
X172605000Y-61262576D01*
X172605000Y-60770691D01*
X172508327Y-60537302D01*
X172436306Y-60465280D01*
X172495787Y-60405799D01*
X172592460Y-60172410D01*
X172592460Y-60104850D01*
X172463551Y-59975941D01*
X172499189Y-59953008D01*
X172673177Y-59698369D01*
X172734388Y-59396100D01*
X172734388Y-58996100D01*
X172710004Y-58866510D01*
X172734388Y-58746100D01*
X172734388Y-58346100D01*
X172710004Y-58216510D01*
X172734388Y-58096100D01*
X172734388Y-57696100D01*
X172710004Y-57566510D01*
X172734388Y-57446100D01*
X172734388Y-57046100D01*
X172681255Y-56763720D01*
X172523879Y-56519152D01*
X172605000Y-56323309D01*
X172605000Y-55831424D01*
X172650447Y-55924408D01*
X172974916Y-56200808D01*
X173380460Y-56332000D01*
X173730460Y-56332000D01*
X173730460Y-55374000D01*
X173710460Y-55374000D01*
X173710460Y-55120000D01*
X173730460Y-55120000D01*
X173730460Y-55100000D01*
X173984460Y-55100000D01*
X173984460Y-55120000D01*
G36*
X169935000Y-54470691D02*
X169935000Y-55111250D01*
X170093750Y-55270000D01*
X171143000Y-55270000D01*
X171143000Y-55250000D01*
X171397000Y-55250000D01*
X171397000Y-55270000D01*
X171417000Y-55270000D01*
X171417000Y-55524000D01*
X171397000Y-55524000D01*
X171397000Y-55544000D01*
X171143000Y-55544000D01*
X171143000Y-55524000D01*
X170093750Y-55524000D01*
X169935000Y-55682750D01*
X169935000Y-56262123D01*
X169745394Y-56299838D01*
X169670591Y-56349820D01*
X169415779Y-56520080D01*
X169181480Y-56754380D01*
X168961238Y-57083993D01*
X168961238Y-57083994D01*
X168883900Y-57472800D01*
X168883900Y-61932677D01*
X168797641Y-61932602D01*
X168377388Y-62106246D01*
X168055577Y-62427497D01*
X167881199Y-62847446D01*
X167880802Y-63302159D01*
X168054446Y-63722412D01*
X168203711Y-63871938D01*
X168226138Y-63984685D01*
X168413343Y-64264857D01*
X168655400Y-64506914D01*
X168655400Y-64541400D01*
X168433750Y-64541400D01*
X168275000Y-64700150D01*
X168275000Y-65913000D01*
X168295000Y-65913000D01*
X168295000Y-66167000D01*
X168275000Y-66167000D01*
X168275000Y-66187000D01*
X168021000Y-66187000D01*
X168021000Y-66167000D01*
X166655750Y-66167000D01*
X166497000Y-66325750D01*
X166497000Y-67029910D01*
X166593673Y-67263299D01*
X166772302Y-67441927D01*
X166796876Y-67452106D01*
X166458908Y-67957910D01*
X166335167Y-68580000D01*
X166395855Y-68885100D01*
X163432770Y-68885100D01*
X163493458Y-68580000D01*
X163374558Y-67982248D01*
X163035959Y-67475499D01*
X162788272Y-67310000D01*
X163035959Y-67144501D01*
X163374558Y-66637752D01*
X163493458Y-66040000D01*
X163374558Y-65442248D01*
X163112527Y-65050090D01*
X166497000Y-65050090D01*
X166497000Y-65754250D01*
X166655750Y-65913000D01*
X168021000Y-65913000D01*
X168021000Y-64700150D01*
X167862250Y-64541400D01*
X167005691Y-64541400D01*
X166772302Y-64638073D01*
X166593673Y-64816701D01*
X166497000Y-65050090D01*
X163112527Y-65050090D01*
X163035959Y-64935499D01*
X162529210Y-64596900D01*
X161931458Y-64478000D01*
X161156542Y-64478000D01*
X160558790Y-64596900D01*
X160052041Y-64935499D01*
X159713442Y-65442248D01*
X159594542Y-66040000D01*
X159713442Y-66637752D01*
X160052041Y-67144501D01*
X160299728Y-67310000D01*
X160052041Y-67475499D01*
X159713442Y-67982248D01*
X159594542Y-68580000D01*
X159655230Y-68885100D01*
X155812770Y-68885100D01*
X155873458Y-68580000D01*
X155754558Y-67982248D01*
X155415959Y-67475499D01*
X155048720Y-67230118D01*
X155378500Y-66964896D01*
X155648367Y-66471819D01*
X155665904Y-66389039D01*
X155543915Y-66167000D01*
X154051000Y-66167000D01*
X154051000Y-66187000D01*
X153797000Y-66187000D01*
X153797000Y-66167000D01*
X152304085Y-66167000D01*
X152182096Y-66389039D01*
X152199633Y-66471819D01*
X152469500Y-66964896D01*
X152799280Y-67230118D01*
X152432041Y-67475499D01*
X152165017Y-67875129D01*
X152114874Y-67753774D01*
X151704387Y-67342570D01*
X151167786Y-67119754D01*
X150586763Y-67119247D01*
X150049774Y-67341126D01*
X149638570Y-67751613D01*
X149415754Y-68288214D01*
X149415247Y-68869237D01*
X149637126Y-69406226D01*
X149971206Y-69740889D01*
X149564954Y-69572199D01*
X149110241Y-69571802D01*
X148689988Y-69745446D01*
X148583849Y-69851400D01*
X147355914Y-69851400D01*
X148262142Y-68945172D01*
X148406759Y-68945298D01*
X148827012Y-68771654D01*
X149148823Y-68450403D01*
X149323201Y-68030454D01*
X149323598Y-67575741D01*
X149149954Y-67155488D01*
X148828703Y-66833677D01*
X148408754Y-66659299D01*
X148262986Y-66659172D01*
X147964928Y-66361114D01*
X147964928Y-66286000D01*
X147945574Y-66183140D01*
X148437753Y-65690961D01*
X152182096Y-65690961D01*
X152304085Y-65913000D01*
X153797000Y-65913000D01*
X153797000Y-64605000D01*
X154051000Y-64605000D01*
X154051000Y-65913000D01*
X155543915Y-65913000D01*
X155665904Y-65690961D01*
X155648367Y-65608181D01*
X155378500Y-65115104D01*
X154940483Y-64762834D01*
X154401000Y-64605000D01*
X154051000Y-64605000D01*
X153797000Y-64605000D01*
X153447000Y-64605000D01*
X152907517Y-64762834D01*
X152469500Y-65115104D01*
X152199633Y-65608181D01*
X152182096Y-65690961D01*
X148437753Y-65690961D01*
X151949278Y-62179437D01*
X151980452Y-62179464D01*
X152540789Y-61947938D01*
X152948976Y-61540463D01*
X153354236Y-61946431D01*
X153914168Y-62178935D01*
X154520452Y-62179464D01*
X155080789Y-61947938D01*
X155488976Y-61540463D01*
X155894236Y-61946431D01*
X156454168Y-62178935D01*
X157060452Y-62179464D01*
X157620789Y-61947938D01*
X158028976Y-61540463D01*
X158434236Y-61946431D01*
X158994168Y-62178935D01*
X159600452Y-62179464D01*
X160160789Y-61947938D01*
X160568976Y-61540463D01*
X160974236Y-61946431D01*
X161534168Y-62178935D01*
X162140452Y-62179464D01*
X162700789Y-61947938D01*
X163108976Y-61540463D01*
X163514236Y-61946431D01*
X164074168Y-62178935D01*
X164680452Y-62179464D01*
X165240789Y-61947938D01*
X165669871Y-61519604D01*
X165902375Y-60959672D01*
X165902904Y-60353388D01*
X165671378Y-59793051D01*
X165243044Y-59363969D01*
X164683112Y-59131465D01*
X164076828Y-59130936D01*
X163516491Y-59362462D01*
X163108304Y-59769937D01*
X162703044Y-59363969D01*
X162143112Y-59131465D01*
X161536828Y-59130936D01*
X160976491Y-59362462D01*
X160568304Y-59769937D01*
X160163044Y-59363969D01*
X159603112Y-59131465D01*
X158996828Y-59130936D01*
X158436491Y-59362462D01*
X158028304Y-59769937D01*
X157623044Y-59363969D01*
X157063112Y-59131465D01*
X156456828Y-59130936D01*
X156455995Y-59131280D01*
X155853857Y-58529143D01*
X155573685Y-58341938D01*
X155243200Y-58276200D01*
X151923045Y-58276200D01*
X152354257Y-57845740D01*
X152780514Y-56819199D01*
X152781484Y-55707677D01*
X152357019Y-54680394D01*
X152096580Y-54419500D01*
X169956204Y-54419500D01*
X169935000Y-54470691D01*
X169935000Y-54470691D01*
G37*
X169935000Y-54470691D02*
X169935000Y-55111250D01*
X170093750Y-55270000D01*
X171143000Y-55270000D01*
X171143000Y-55250000D01*
X171397000Y-55250000D01*
X171397000Y-55270000D01*
X171417000Y-55270000D01*
X171417000Y-55524000D01*
X171397000Y-55524000D01*
X171397000Y-55544000D01*
X171143000Y-55544000D01*
X171143000Y-55524000D01*
X170093750Y-55524000D01*
X169935000Y-55682750D01*
X169935000Y-56262123D01*
X169745394Y-56299838D01*
X169670591Y-56349820D01*
X169415779Y-56520080D01*
X169181480Y-56754380D01*
X168961238Y-57083993D01*
X168961238Y-57083994D01*
X168883900Y-57472800D01*
X168883900Y-61932677D01*
X168797641Y-61932602D01*
X168377388Y-62106246D01*
X168055577Y-62427497D01*
X167881199Y-62847446D01*
X167880802Y-63302159D01*
X168054446Y-63722412D01*
X168203711Y-63871938D01*
X168226138Y-63984685D01*
X168413343Y-64264857D01*
X168655400Y-64506914D01*
X168655400Y-64541400D01*
X168433750Y-64541400D01*
X168275000Y-64700150D01*
X168275000Y-65913000D01*
X168295000Y-65913000D01*
X168295000Y-66167000D01*
X168275000Y-66167000D01*
X168275000Y-66187000D01*
X168021000Y-66187000D01*
X168021000Y-66167000D01*
X166655750Y-66167000D01*
X166497000Y-66325750D01*
X166497000Y-67029910D01*
X166593673Y-67263299D01*
X166772302Y-67441927D01*
X166796876Y-67452106D01*
X166458908Y-67957910D01*
X166335167Y-68580000D01*
X166395855Y-68885100D01*
X163432770Y-68885100D01*
X163493458Y-68580000D01*
X163374558Y-67982248D01*
X163035959Y-67475499D01*
X162788272Y-67310000D01*
X163035959Y-67144501D01*
X163374558Y-66637752D01*
X163493458Y-66040000D01*
X163374558Y-65442248D01*
X163112527Y-65050090D01*
X166497000Y-65050090D01*
X166497000Y-65754250D01*
X166655750Y-65913000D01*
X168021000Y-65913000D01*
X168021000Y-64700150D01*
X167862250Y-64541400D01*
X167005691Y-64541400D01*
X166772302Y-64638073D01*
X166593673Y-64816701D01*
X166497000Y-65050090D01*
X163112527Y-65050090D01*
X163035959Y-64935499D01*
X162529210Y-64596900D01*
X161931458Y-64478000D01*
X161156542Y-64478000D01*
X160558790Y-64596900D01*
X160052041Y-64935499D01*
X159713442Y-65442248D01*
X159594542Y-66040000D01*
X159713442Y-66637752D01*
X160052041Y-67144501D01*
X160299728Y-67310000D01*
X160052041Y-67475499D01*
X159713442Y-67982248D01*
X159594542Y-68580000D01*
X159655230Y-68885100D01*
X155812770Y-68885100D01*
X155873458Y-68580000D01*
X155754558Y-67982248D01*
X155415959Y-67475499D01*
X155048720Y-67230118D01*
X155378500Y-66964896D01*
X155648367Y-66471819D01*
X155665904Y-66389039D01*
X155543915Y-66167000D01*
X154051000Y-66167000D01*
X154051000Y-66187000D01*
X153797000Y-66187000D01*
X153797000Y-66167000D01*
X152304085Y-66167000D01*
X152182096Y-66389039D01*
X152199633Y-66471819D01*
X152469500Y-66964896D01*
X152799280Y-67230118D01*
X152432041Y-67475499D01*
X152165017Y-67875129D01*
X152114874Y-67753774D01*
X151704387Y-67342570D01*
X151167786Y-67119754D01*
X150586763Y-67119247D01*
X150049774Y-67341126D01*
X149638570Y-67751613D01*
X149415754Y-68288214D01*
X149415247Y-68869237D01*
X149637126Y-69406226D01*
X149971206Y-69740889D01*
X149564954Y-69572199D01*
X149110241Y-69571802D01*
X148689988Y-69745446D01*
X148583849Y-69851400D01*
X147355914Y-69851400D01*
X148262142Y-68945172D01*
X148406759Y-68945298D01*
X148827012Y-68771654D01*
X149148823Y-68450403D01*
X149323201Y-68030454D01*
X149323598Y-67575741D01*
X149149954Y-67155488D01*
X148828703Y-66833677D01*
X148408754Y-66659299D01*
X148262986Y-66659172D01*
X147964928Y-66361114D01*
X147964928Y-66286000D01*
X147945574Y-66183140D01*
X148437753Y-65690961D01*
X152182096Y-65690961D01*
X152304085Y-65913000D01*
X153797000Y-65913000D01*
X153797000Y-64605000D01*
X154051000Y-64605000D01*
X154051000Y-65913000D01*
X155543915Y-65913000D01*
X155665904Y-65690961D01*
X155648367Y-65608181D01*
X155378500Y-65115104D01*
X154940483Y-64762834D01*
X154401000Y-64605000D01*
X154051000Y-64605000D01*
X153797000Y-64605000D01*
X153447000Y-64605000D01*
X152907517Y-64762834D01*
X152469500Y-65115104D01*
X152199633Y-65608181D01*
X152182096Y-65690961D01*
X148437753Y-65690961D01*
X151949278Y-62179437D01*
X151980452Y-62179464D01*
X152540789Y-61947938D01*
X152948976Y-61540463D01*
X153354236Y-61946431D01*
X153914168Y-62178935D01*
X154520452Y-62179464D01*
X155080789Y-61947938D01*
X155488976Y-61540463D01*
X155894236Y-61946431D01*
X156454168Y-62178935D01*
X157060452Y-62179464D01*
X157620789Y-61947938D01*
X158028976Y-61540463D01*
X158434236Y-61946431D01*
X158994168Y-62178935D01*
X159600452Y-62179464D01*
X160160789Y-61947938D01*
X160568976Y-61540463D01*
X160974236Y-61946431D01*
X161534168Y-62178935D01*
X162140452Y-62179464D01*
X162700789Y-61947938D01*
X163108976Y-61540463D01*
X163514236Y-61946431D01*
X164074168Y-62178935D01*
X164680452Y-62179464D01*
X165240789Y-61947938D01*
X165669871Y-61519604D01*
X165902375Y-60959672D01*
X165902904Y-60353388D01*
X165671378Y-59793051D01*
X165243044Y-59363969D01*
X164683112Y-59131465D01*
X164076828Y-59130936D01*
X163516491Y-59362462D01*
X163108304Y-59769937D01*
X162703044Y-59363969D01*
X162143112Y-59131465D01*
X161536828Y-59130936D01*
X160976491Y-59362462D01*
X160568304Y-59769937D01*
X160163044Y-59363969D01*
X159603112Y-59131465D01*
X158996828Y-59130936D01*
X158436491Y-59362462D01*
X158028304Y-59769937D01*
X157623044Y-59363969D01*
X157063112Y-59131465D01*
X156456828Y-59130936D01*
X156455995Y-59131280D01*
X155853857Y-58529143D01*
X155573685Y-58341938D01*
X155243200Y-58276200D01*
X151923045Y-58276200D01*
X152354257Y-57845740D01*
X152780514Y-56819199D01*
X152781484Y-55707677D01*
X152357019Y-54680394D01*
X152096580Y-54419500D01*
X169956204Y-54419500D01*
X169935000Y-54470691D01*
M02*
