G04 #@! TF.FileFunction,Copper,L1,Top,Signal*
%FSLAX46Y46*%
G04 Gerber Fmt 4.6, Leading zero omitted, Abs format (unit mm)*
G04 Created by KiCad (PCBNEW (2015-11-29 BZR 6336, Git 7b0d981)-product) date 12/9/2015 5:57:17 PM*
%MOMM*%
G01*
G04 APERTURE LIST*
%ADD10C,0.100000*%
%ADD11R,2.032000X1.727200*%
%ADD12O,2.032000X1.727200*%
%ADD13C,1.524000*%
%ADD14R,1.524000X1.524000*%
%ADD15C,1.397000*%
%ADD16O,2.300000X1.600000*%
%ADD17R,1.300000X1.300000*%
%ADD18C,1.300000*%
%ADD19O,1.501140X0.899160*%
%ADD20R,0.600000X1.500000*%
%ADD21R,1.500000X0.600000*%
%ADD22R,0.425000X1.000000*%
%ADD23O,1.600000X0.900000*%
%ADD24C,4.064000*%
%ADD25C,1.143000*%
%ADD26C,0.762000*%
%ADD27C,0.508000*%
%ADD28C,0.203200*%
%ADD29C,0.254000*%
G04 APERTURE END LIST*
D10*
D11*
X170688000Y-93980000D03*
D12*
X170688000Y-96520000D03*
X170688000Y-99060000D03*
X170688000Y-101600000D03*
X170688000Y-104140000D03*
X170688000Y-106680000D03*
X170688000Y-109220000D03*
X170688000Y-111760000D03*
D13*
X164378640Y-60655200D03*
X161838640Y-60655200D03*
X159298640Y-60655200D03*
X156758640Y-60655200D03*
X154218640Y-60655200D03*
X151678640Y-60655200D03*
X149138640Y-60655200D03*
X144058640Y-60655200D03*
X141518640Y-60655200D03*
X138978640Y-60655200D03*
X136438640Y-60655200D03*
X133898640Y-60655200D03*
X131358640Y-60655200D03*
X128818640Y-60655200D03*
X126278640Y-60655200D03*
X164388800Y-106426000D03*
X161848800Y-106426000D03*
X159308800Y-106426000D03*
X156768800Y-106426000D03*
X154228800Y-106426000D03*
X151688800Y-106426000D03*
X149148800Y-106426000D03*
X146608800Y-106426000D03*
X144068800Y-106426000D03*
X141528800Y-106426000D03*
X138988800Y-106426000D03*
X136448800Y-106426000D03*
X133908800Y-106426000D03*
X131368800Y-106426000D03*
X128828800Y-106426000D03*
D14*
X126288800Y-106426000D03*
D15*
X146598640Y-60655200D03*
D16*
X161544000Y-66040000D03*
X161544000Y-68580000D03*
X161544000Y-71120000D03*
X161544000Y-73660000D03*
X161544000Y-76200000D03*
X161544000Y-78740000D03*
X161544000Y-81280000D03*
X161544000Y-83820000D03*
X161544000Y-86360000D03*
X161544000Y-88900000D03*
X153924000Y-88900000D03*
X153924000Y-86360000D03*
X153924000Y-83820000D03*
X153924000Y-81280000D03*
X153924000Y-78740000D03*
X153924000Y-76200000D03*
X153924000Y-73660000D03*
X153924000Y-71120000D03*
X153924000Y-68580000D03*
X153924000Y-66040000D03*
D17*
X171323000Y-65786000D03*
D18*
X173823000Y-65786000D03*
D17*
X173736000Y-83820000D03*
D18*
X171236000Y-83820000D03*
D17*
X128524000Y-93726000D03*
D18*
X128524000Y-96226000D03*
D17*
X173736000Y-75184000D03*
D18*
X171236000Y-75184000D03*
D11*
X161544000Y-94996000D03*
D12*
X161544000Y-97536000D03*
X161544000Y-100076000D03*
D19*
X172847000Y-70485000D03*
X172847000Y-71755000D03*
X172847000Y-69215000D03*
D16*
X136779000Y-66040000D03*
X136779000Y-68580000D03*
X136779000Y-71120000D03*
X136779000Y-73660000D03*
X136779000Y-76200000D03*
X136779000Y-78740000D03*
X136779000Y-81280000D03*
X136779000Y-83820000D03*
X136779000Y-86360000D03*
X136779000Y-88900000D03*
X129159000Y-88900000D03*
X129159000Y-86360000D03*
X129159000Y-83820000D03*
X129159000Y-81280000D03*
X129159000Y-78740000D03*
X129159000Y-76200000D03*
X129159000Y-73660000D03*
X129159000Y-71120000D03*
X129159000Y-68580000D03*
X129159000Y-66040000D03*
D20*
X145923000Y-99093000D03*
X147193000Y-99093000D03*
X148463000Y-99093000D03*
X149733000Y-99093000D03*
X151003000Y-99093000D03*
X152273000Y-99093000D03*
X153543000Y-99093000D03*
X154813000Y-99093000D03*
X154813000Y-93693000D03*
X153543000Y-93693000D03*
X152273000Y-93693000D03*
X151003000Y-93693000D03*
X149733000Y-93693000D03*
X148463000Y-93693000D03*
X147193000Y-93693000D03*
X145923000Y-93693000D03*
D21*
X142588000Y-69469000D03*
X142588000Y-70739000D03*
X142588000Y-72009000D03*
X142588000Y-73279000D03*
X142588000Y-74549000D03*
X142588000Y-75819000D03*
X142588000Y-77089000D03*
X142588000Y-78359000D03*
X147988000Y-78359000D03*
X147988000Y-77089000D03*
X147988000Y-75819000D03*
X147988000Y-74549000D03*
X147988000Y-73279000D03*
X147988000Y-72009000D03*
X147988000Y-70739000D03*
X147988000Y-69469000D03*
D20*
X132969000Y-99093000D03*
X134239000Y-99093000D03*
X135509000Y-99093000D03*
X136779000Y-99093000D03*
X138049000Y-99093000D03*
X139319000Y-99093000D03*
X140589000Y-99093000D03*
X141859000Y-99093000D03*
X141859000Y-93693000D03*
X140589000Y-93693000D03*
X139319000Y-93693000D03*
X138049000Y-93693000D03*
X136779000Y-93693000D03*
X135509000Y-93693000D03*
X134239000Y-93693000D03*
X132969000Y-93693000D03*
D21*
X142588000Y-81407000D03*
X142588000Y-82677000D03*
X142588000Y-83947000D03*
X142588000Y-85217000D03*
X142588000Y-86487000D03*
X142588000Y-87757000D03*
X142588000Y-89027000D03*
X142588000Y-90297000D03*
X147988000Y-90297000D03*
X147988000Y-89027000D03*
X147988000Y-87757000D03*
X147988000Y-86487000D03*
X147988000Y-85217000D03*
X147988000Y-83947000D03*
X147988000Y-82677000D03*
X147988000Y-81407000D03*
D11*
X122428000Y-66040000D03*
D12*
X122428000Y-68580000D03*
X122428000Y-71120000D03*
X122428000Y-73660000D03*
X122428000Y-76200000D03*
X122428000Y-78740000D03*
X122428000Y-81280000D03*
X122428000Y-83820000D03*
X122428000Y-86360000D03*
X122428000Y-88900000D03*
D11*
X168148000Y-66040000D03*
D12*
X168148000Y-68580000D03*
X168148000Y-71120000D03*
X168148000Y-73660000D03*
X168148000Y-76200000D03*
X168148000Y-78740000D03*
X168148000Y-81280000D03*
X168148000Y-83820000D03*
X168148000Y-86360000D03*
X168148000Y-88900000D03*
D15*
X150876000Y-68580000D03*
X150876000Y-76200000D03*
D22*
X146044000Y-103135000D03*
X146044000Y-101335000D03*
X151644000Y-103135000D03*
X151644000Y-101335000D03*
X146844000Y-103135000D03*
X147644000Y-103135000D03*
X148444000Y-103135000D03*
X149244000Y-103135000D03*
X150044000Y-103135000D03*
X150844000Y-103135000D03*
X146844000Y-101335000D03*
X147644000Y-101335000D03*
X148444000Y-101335000D03*
X150044000Y-101335000D03*
X149244000Y-101335000D03*
X150844000Y-101335000D03*
X142488000Y-66686000D03*
X142488000Y-64886000D03*
X148088000Y-66686000D03*
X148088000Y-64886000D03*
X143288000Y-66686000D03*
X144088000Y-66686000D03*
X144888000Y-66686000D03*
X145688000Y-66686000D03*
X146488000Y-66686000D03*
X147288000Y-66686000D03*
X143288000Y-64886000D03*
X144088000Y-64886000D03*
X144888000Y-64886000D03*
X146488000Y-64886000D03*
X145688000Y-64886000D03*
X147288000Y-64886000D03*
X133344000Y-103135000D03*
X133344000Y-101335000D03*
X138944000Y-103135000D03*
X138944000Y-101335000D03*
X134144000Y-103135000D03*
X134944000Y-103135000D03*
X135744000Y-103135000D03*
X136544000Y-103135000D03*
X137344000Y-103135000D03*
X138144000Y-103135000D03*
X134144000Y-101335000D03*
X134944000Y-101335000D03*
X135744000Y-101335000D03*
X137344000Y-101335000D03*
X136544000Y-101335000D03*
X138144000Y-101335000D03*
D23*
X173857460Y-55247000D03*
X173857460Y-61847000D03*
D24*
X118110000Y-56261000D03*
X167259000Y-110871000D03*
X149987000Y-56261000D03*
X126111000Y-110871000D03*
D11*
X119888000Y-93980000D03*
D12*
X119888000Y-96520000D03*
X119888000Y-99060000D03*
X119888000Y-101600000D03*
X119888000Y-104140000D03*
X119888000Y-106680000D03*
X119888000Y-109220000D03*
X119888000Y-111760000D03*
D11*
X168148000Y-93980000D03*
D12*
X168148000Y-96520000D03*
X168148000Y-99060000D03*
D25*
X157670500Y-101276700D03*
X144803800Y-94659700D03*
D26*
X149465000Y-72499800D03*
X151980500Y-81373200D03*
X150973900Y-92357700D03*
X138199800Y-91967700D03*
X149833900Y-92175500D03*
X164547100Y-79324300D03*
X135608200Y-92341400D03*
X147277400Y-80483500D03*
X165682400Y-96596000D03*
X169024000Y-63075800D03*
X132614400Y-71729100D03*
X164854700Y-92325900D03*
X135234500Y-87931000D03*
X146221300Y-97755500D03*
X147491300Y-97742700D03*
X148840300Y-97742700D03*
X149985700Y-97753900D03*
X151147900Y-97749900D03*
X152305600Y-102231900D03*
X152486600Y-100937500D03*
X145392800Y-100431100D03*
X147171600Y-95051600D03*
X141690600Y-66102100D03*
X143721400Y-68202000D03*
X144458500Y-68928900D03*
X145093700Y-68186700D03*
X146178800Y-68008900D03*
X147194500Y-67782400D03*
X148180400Y-67802100D03*
X144488300Y-71497700D03*
X142349100Y-67775900D03*
X149336600Y-70715000D03*
X133304000Y-97746500D03*
X132686000Y-102231900D03*
X135172400Y-97754200D03*
X136394000Y-97732500D03*
X138381200Y-97753300D03*
X139708800Y-102140100D03*
X139728600Y-100428000D03*
X132546700Y-101263100D03*
D27*
X127162500Y-93980000D02*
X121361500Y-93980000D01*
X127416500Y-93726000D02*
X127162500Y-93980000D01*
X128524000Y-93726000D02*
X127416500Y-93726000D01*
X119888000Y-93980000D02*
X121361500Y-93980000D01*
X132969000Y-93693000D02*
X132969000Y-94436600D01*
X128524000Y-93726000D02*
X129631500Y-93726000D01*
X147988000Y-81407000D02*
X147097800Y-81407000D01*
X147988000Y-69469000D02*
X146780500Y-69469000D01*
X171323000Y-65786000D02*
X171323000Y-64678500D01*
X147988000Y-69469000D02*
X149195500Y-69469000D01*
X146996100Y-81407000D02*
X147097800Y-81407000D01*
X146438900Y-80849800D02*
X146996100Y-81407000D01*
X146438900Y-80136200D02*
X146438900Y-80849800D01*
X146780500Y-79794600D02*
X146438900Y-80136200D01*
X146780500Y-69469000D02*
X146780500Y-79794600D01*
X130342100Y-94436600D02*
X129631500Y-93726000D01*
X132969000Y-94436600D02*
X130342100Y-94436600D01*
X149195500Y-68598900D02*
X149195500Y-69469000D01*
X153829900Y-63964500D02*
X149195500Y-68598900D01*
X170609000Y-63964500D02*
X153829900Y-63964500D01*
X171323000Y-64678500D02*
X170609000Y-63964500D01*
X167079700Y-101449400D02*
X168148000Y-100381100D01*
X157843200Y-101449400D02*
X167079700Y-101449400D01*
X157670500Y-101276700D02*
X157843200Y-101449400D01*
X168148000Y-99060000D02*
X168148000Y-100381100D01*
X145923000Y-93693000D02*
X145923000Y-94900500D01*
X145044600Y-94900500D02*
X144803800Y-94659700D01*
X145923000Y-94900500D02*
X145044600Y-94900500D01*
X142588000Y-90297000D02*
X143795500Y-90297000D01*
X141859000Y-99093000D02*
X141859000Y-97885500D01*
X143795500Y-78359000D02*
X143795500Y-90297000D01*
X142588000Y-78359000D02*
X143795500Y-78359000D01*
X171236000Y-89570900D02*
X171236000Y-83820000D01*
X168148000Y-92658900D02*
X171236000Y-89570900D01*
X168148000Y-93980000D02*
X168148000Y-92658900D01*
X129159000Y-88900000D02*
X129159000Y-89979600D01*
X142588000Y-90297000D02*
X141380500Y-90297000D01*
X154813000Y-99093000D02*
X154813000Y-100300500D01*
X161544000Y-100076000D02*
X160070500Y-100076000D01*
X154813000Y-99093000D02*
X154813000Y-97885500D01*
X174055100Y-72364900D02*
X174055100Y-69215000D01*
X171236000Y-75184000D02*
X174055100Y-72364900D01*
X172847000Y-69215000D02*
X174055100Y-69215000D01*
X164592000Y-100076000D02*
X161544000Y-100076000D01*
X168148000Y-96520000D02*
X164592000Y-100076000D01*
X129476400Y-90297000D02*
X129159000Y-89979600D01*
X141380500Y-90297000D02*
X129476400Y-90297000D01*
X141859000Y-97885500D02*
X141859000Y-97269000D01*
X157191500Y-100300500D02*
X154813000Y-100300500D01*
X157416000Y-100076000D02*
X157191500Y-100300500D01*
X160070500Y-100076000D02*
X157416000Y-100076000D01*
X141339500Y-96749500D02*
X141859000Y-97269000D01*
X129047500Y-96749500D02*
X141339500Y-96749500D01*
X128524000Y-96226000D02*
X129047500Y-96749500D01*
X142269100Y-96858900D02*
X141859000Y-97269000D01*
X153786400Y-96858900D02*
X142269100Y-96858900D01*
X154813000Y-97885500D02*
X153786400Y-96858900D01*
X161650400Y-64676100D02*
X161544000Y-64782500D01*
X169353800Y-64676100D02*
X161650400Y-64676100D01*
X169712100Y-65034400D02*
X169353800Y-64676100D01*
X169712100Y-69828200D02*
X169712100Y-65034400D01*
X171638900Y-71755000D02*
X169712100Y-69828200D01*
X172847000Y-71755000D02*
X171638900Y-71755000D01*
X161544000Y-66040000D02*
X161544000Y-64782500D01*
X152158500Y-67297500D02*
X161544000Y-67297500D01*
X150876000Y-68580000D02*
X152158500Y-67297500D01*
X161544000Y-66040000D02*
X161544000Y-67297500D01*
D28*
X149043100Y-72077900D02*
X149465000Y-72499800D01*
X149043100Y-72009000D02*
X149043100Y-72077900D01*
X147988000Y-72009000D02*
X149043100Y-72009000D01*
X151980500Y-89495600D02*
X151980500Y-81373200D01*
X154813000Y-92328100D02*
X151980500Y-89495600D01*
X154813000Y-93693000D02*
X154813000Y-92328100D01*
X161544000Y-81280000D02*
X161544000Y-80174900D01*
X152273000Y-93165400D02*
X152273000Y-92637900D01*
X152273000Y-93165400D02*
X152273000Y-93693000D01*
X119888000Y-98548700D02*
X119888000Y-97891300D01*
X170688000Y-99060000D02*
X170688000Y-97891300D01*
X170688000Y-99060000D02*
X170688000Y-100228700D01*
X139319000Y-92116500D02*
X139319000Y-93693000D01*
X138484100Y-91281600D02*
X139319000Y-92116500D01*
X119669300Y-91281600D02*
X138484100Y-91281600D01*
X118125500Y-92825400D02*
X119669300Y-91281600D01*
X118125500Y-96567100D02*
X118125500Y-92825400D01*
X119449700Y-97891300D02*
X118125500Y-96567100D01*
X119888000Y-97891300D02*
X119449700Y-97891300D01*
X162649100Y-80174900D02*
X161544000Y-80174900D01*
X165289600Y-77534400D02*
X162649100Y-80174900D01*
X168793000Y-77534400D02*
X165289600Y-77534400D01*
X172238400Y-80979800D02*
X168793000Y-77534400D01*
X172238400Y-96779200D02*
X172238400Y-80979800D01*
X171126300Y-97891300D02*
X172238400Y-96779200D01*
X170688000Y-97891300D02*
X171126300Y-97891300D01*
X147062500Y-85852000D02*
X149030500Y-85852000D01*
X146932900Y-85981600D02*
X147062500Y-85852000D01*
X146932900Y-86913400D02*
X146932900Y-85981600D01*
X147776500Y-87757000D02*
X146932900Y-86913400D01*
X147988000Y-87757000D02*
X147776500Y-87757000D01*
X150887600Y-91252500D02*
X152273000Y-92637900D01*
X150887600Y-87709100D02*
X150887600Y-91252500D01*
X149030500Y-85852000D02*
X150887600Y-87709100D01*
X151223500Y-81123600D02*
X152438800Y-79908300D01*
X151223500Y-83659000D02*
X151223500Y-81123600D01*
X149030500Y-85852000D02*
X151223500Y-83659000D01*
X152705400Y-80174900D02*
X152438800Y-79908300D01*
X161544000Y-80174900D02*
X152705400Y-80174900D01*
X148349500Y-75819000D02*
X147988000Y-75819000D01*
X152438800Y-79908300D02*
X148349500Y-75819000D01*
X119888000Y-99060000D02*
X119888000Y-98548700D01*
X124493700Y-103665700D02*
X119888000Y-99060000D01*
X124493700Y-106586300D02*
X124493700Y-103665700D01*
X125443600Y-107536200D02*
X124493700Y-106586300D01*
X164836600Y-107536200D02*
X125443600Y-107536200D01*
X168707200Y-103665600D02*
X164836600Y-107536200D01*
X168707200Y-101771200D02*
X168707200Y-103665600D01*
X170249700Y-100228700D02*
X168707200Y-101771200D01*
X170688000Y-100228700D02*
X170249700Y-100228700D01*
X122428000Y-78740000D02*
X122428000Y-79908700D01*
X147988000Y-86487000D02*
X149043100Y-86487000D01*
X150973900Y-92608800D02*
X150973900Y-92357700D01*
X151003000Y-92637900D02*
X150973900Y-92608800D01*
X151003000Y-93693000D02*
X151003000Y-92637900D01*
X138199800Y-92487100D02*
X138049000Y-92637900D01*
X138199800Y-91967700D02*
X138199800Y-92487100D01*
X138049000Y-93693000D02*
X138049000Y-92637900D01*
X150480900Y-87924800D02*
X149043100Y-86487000D01*
X150480900Y-91852100D02*
X150480900Y-87924800D01*
X150973900Y-92345100D02*
X150480900Y-91852100D01*
X150973900Y-92357700D02*
X150973900Y-92345100D01*
X149043100Y-75830000D02*
X149043100Y-74549000D01*
X150848000Y-77634900D02*
X149043100Y-75830000D01*
X161544000Y-77634900D02*
X150848000Y-77634900D01*
X161544000Y-78740000D02*
X161544000Y-77634900D01*
X147988000Y-74549000D02*
X149043100Y-74549000D01*
X121950500Y-79908700D02*
X122428000Y-79908700D01*
X121095700Y-80763500D02*
X121950500Y-79908700D01*
X121095700Y-84343900D02*
X121095700Y-80763500D01*
X121841800Y-85090000D02*
X121095700Y-84343900D01*
X133377800Y-85090000D02*
X121841800Y-85090000D01*
X136779000Y-88491200D02*
X133377800Y-85090000D01*
X136779000Y-88900000D02*
X136779000Y-88491200D01*
X121915500Y-108513600D02*
X121209100Y-109220000D01*
X168660500Y-108513600D02*
X121915500Y-108513600D01*
X169366900Y-109220000D02*
X168660500Y-108513600D01*
X119888000Y-109220000D02*
X120399300Y-109220000D01*
X120399300Y-109220000D02*
X121209100Y-109220000D01*
X161544000Y-68580000D02*
X161544000Y-69685100D01*
X122428000Y-68580000D02*
X122428000Y-69748700D01*
X170688000Y-109220000D02*
X170176800Y-109220000D01*
X170176800Y-109220000D02*
X169366900Y-109220000D01*
X147988000Y-73279000D02*
X149043100Y-73279000D01*
X161626400Y-69767500D02*
X161544000Y-69685100D01*
X168659400Y-69767500D02*
X161626400Y-69767500D01*
X170238900Y-71347000D02*
X168659400Y-69767500D01*
X170238900Y-75677800D02*
X170238900Y-71347000D01*
X172645300Y-78084200D02*
X170238900Y-75677800D01*
X172645300Y-106751500D02*
X172645300Y-78084200D01*
X170176800Y-109220000D02*
X172645300Y-106751500D01*
X147988000Y-85217000D02*
X146932900Y-85217000D01*
X153250000Y-69685100D02*
X161544000Y-69685100D01*
X149656100Y-73279000D02*
X153250000Y-69685100D01*
X149043100Y-73279000D02*
X149656100Y-73279000D01*
X136779000Y-94584900D02*
X136779000Y-93693000D01*
X137349000Y-95154900D02*
X136779000Y-94584900D01*
X142486800Y-95154900D02*
X137349000Y-95154900D01*
X143242700Y-94399000D02*
X142486800Y-95154900D01*
X143242700Y-93830500D02*
X143242700Y-94399000D01*
X146108100Y-90965100D02*
X143242700Y-93830500D01*
X146108100Y-89211400D02*
X146108100Y-90965100D01*
X146994400Y-88325100D02*
X146108100Y-89211400D01*
X146526200Y-87856900D02*
X146994400Y-88325100D01*
X146526200Y-85623700D02*
X146526200Y-87856900D01*
X146932900Y-85217000D02*
X146526200Y-85623700D01*
X149833900Y-92175500D02*
X149733000Y-92175500D01*
X149733000Y-89257500D02*
X149733000Y-92175500D01*
X148867500Y-88392000D02*
X149733000Y-89257500D01*
X147061300Y-88392000D02*
X148867500Y-88392000D01*
X146994400Y-88325100D02*
X147061300Y-88392000D01*
X149733000Y-92175500D02*
X149733000Y-93693000D01*
X117273500Y-106094200D02*
X120399300Y-109220000D01*
X117273500Y-74464900D02*
X117273500Y-106094200D01*
X121989700Y-69748700D02*
X117273500Y-74464900D01*
X122428000Y-69748700D02*
X121989700Y-69748700D01*
X148463000Y-93693000D02*
X148463000Y-94748100D01*
X168148000Y-78740000D02*
X168148000Y-79324300D01*
X168148000Y-79324300D02*
X168148000Y-79908700D01*
X168148000Y-79324300D02*
X164547100Y-79324300D01*
X168625500Y-79908700D02*
X168148000Y-79908700D01*
X169925900Y-81209100D02*
X168625500Y-79908700D01*
X169925900Y-89545900D02*
X169925900Y-81209100D01*
X165710400Y-93761400D02*
X169925900Y-89545900D01*
X159026300Y-93761400D02*
X165710400Y-93761400D01*
X157608300Y-95179400D02*
X159026300Y-93761400D01*
X148894300Y-95179400D02*
X157608300Y-95179400D01*
X148463000Y-94748100D02*
X148894300Y-95179400D01*
X135509000Y-93693000D02*
X135509000Y-92637900D01*
X135608200Y-92538700D02*
X135608200Y-92341400D01*
X135509000Y-92637900D02*
X135608200Y-92538700D01*
X147988000Y-79772900D02*
X147277400Y-80483500D01*
X147988000Y-78359000D02*
X147988000Y-79772900D01*
X141859000Y-93693000D02*
X141859000Y-92637900D01*
X147988000Y-83947000D02*
X146932900Y-83947000D01*
X142312800Y-92637900D02*
X141859000Y-92637900D01*
X144888200Y-90062500D02*
X142312800Y-92637900D01*
X144888200Y-85991600D02*
X144888200Y-90062500D01*
X144888300Y-85991600D02*
X144888200Y-85991600D01*
X146932900Y-83947000D02*
X144888300Y-85991600D01*
X136779000Y-71120000D02*
X136779000Y-72225100D01*
X142588000Y-80831900D02*
X142588000Y-81407000D01*
X139051000Y-77294900D02*
X142588000Y-80831900D01*
X139051000Y-73992200D02*
X139051000Y-77294900D01*
X137283900Y-72225100D02*
X139051000Y-73992200D01*
X136779000Y-72225100D02*
X137283900Y-72225100D01*
X142588000Y-82677000D02*
X141532900Y-82677000D01*
X136779000Y-73660000D02*
X136779000Y-74765100D01*
X141532900Y-80639400D02*
X141532900Y-82677000D01*
X138644300Y-77750800D02*
X141532900Y-80639400D01*
X138644300Y-76125400D02*
X138644300Y-77750800D01*
X137284000Y-74765100D02*
X138644300Y-76125400D01*
X136779000Y-74765100D02*
X137284000Y-74765100D01*
X137274900Y-77305100D02*
X136779000Y-77305100D01*
X139322200Y-79352400D02*
X137274900Y-77305100D01*
X139322200Y-81736300D02*
X139322200Y-79352400D01*
X141532900Y-83947000D02*
X139322200Y-81736300D01*
X142588000Y-83947000D02*
X141532900Y-83947000D01*
X136779000Y-76200000D02*
X136779000Y-77305100D01*
X137284000Y-79845100D02*
X136779000Y-79845100D01*
X138644200Y-81205300D02*
X137284000Y-79845100D01*
X138644200Y-82328300D02*
X138644200Y-81205300D01*
X141532900Y-85217000D02*
X138644200Y-82328300D01*
X142588000Y-85217000D02*
X141532900Y-85217000D01*
X136779000Y-78740000D02*
X136779000Y-79845100D01*
X137431000Y-82385100D02*
X136779000Y-82385100D01*
X141532900Y-86487000D02*
X137431000Y-82385100D01*
X142588000Y-86487000D02*
X141532900Y-86487000D01*
X136779000Y-81280000D02*
X136779000Y-82385100D01*
X136779000Y-83820000D02*
X136779000Y-84925100D01*
X138701000Y-84925100D02*
X136779000Y-84925100D01*
X141532900Y-87757000D02*
X138701000Y-84925100D01*
X142588000Y-87757000D02*
X141532900Y-87757000D01*
X137884100Y-87465100D02*
X136779000Y-87465100D01*
X139446000Y-89027000D02*
X137884100Y-87465100D01*
X142588000Y-89027000D02*
X139446000Y-89027000D01*
X136779000Y-86360000D02*
X136779000Y-87465100D01*
X170688000Y-96520000D02*
X170688000Y-95351300D01*
X119888000Y-96520000D02*
X119888000Y-95351300D01*
X147988000Y-90297000D02*
X146932900Y-90297000D01*
X146932900Y-90902100D02*
X146932900Y-90297000D01*
X147828000Y-91797200D02*
X146932900Y-90902100D01*
X147828000Y-94716100D02*
X147828000Y-91797200D01*
X147883400Y-94771500D02*
X147828000Y-94716100D01*
X147883400Y-95783900D02*
X147883400Y-94771500D01*
X165809700Y-95351300D02*
X170688000Y-95351300D01*
X164996200Y-96164800D02*
X165809700Y-95351300D01*
X148264300Y-96164800D02*
X164996200Y-96164800D01*
X147883400Y-95783900D02*
X148264300Y-96164800D01*
X147698900Y-95968400D02*
X147883400Y-95783900D01*
X136291200Y-95968400D02*
X147698900Y-95968400D01*
X134844200Y-94521400D02*
X136291200Y-95968400D01*
X134844200Y-92760800D02*
X134844200Y-94521400D01*
X134701200Y-92617800D02*
X134844200Y-92760800D01*
X118908300Y-92617800D02*
X134701200Y-92617800D01*
X118532200Y-92993900D02*
X118908300Y-92617800D01*
X118532200Y-94945400D02*
X118532200Y-92993900D01*
X118938100Y-95351300D02*
X118532200Y-94945400D01*
X119888000Y-95351300D02*
X118938100Y-95351300D01*
X137284000Y-69685100D02*
X136779000Y-69685100D01*
X139661000Y-72062100D02*
X137284000Y-69685100D01*
X139661000Y-75663400D02*
X139661000Y-72062100D01*
X141751400Y-77753800D02*
X139661000Y-75663400D01*
X143997000Y-77753800D02*
X141751400Y-77753800D01*
X145137800Y-78894600D02*
X143997000Y-77753800D01*
X145137800Y-80881900D02*
X145137800Y-78894600D01*
X146932900Y-82677000D02*
X145137800Y-80881900D01*
X147988000Y-82677000D02*
X146932900Y-82677000D01*
X136779000Y-68580000D02*
X136779000Y-69685100D01*
X162496100Y-58772700D02*
X164378600Y-60655200D01*
X131704000Y-58772700D02*
X162496100Y-58772700D01*
X130276800Y-60199900D02*
X131704000Y-58772700D01*
X130276800Y-64920200D02*
X130276800Y-60199900D01*
X130636300Y-65279700D02*
X130276800Y-64920200D01*
X130636300Y-66550100D02*
X130636300Y-65279700D01*
X129711500Y-67474900D02*
X130636300Y-66550100D01*
X129159000Y-67474900D02*
X129711500Y-67474900D01*
X129159000Y-68580000D02*
X129159000Y-67474900D01*
X160362900Y-59179500D02*
X161838600Y-60655200D01*
X133837200Y-59179500D02*
X160362900Y-59179500D01*
X132628600Y-60388100D02*
X133837200Y-59179500D01*
X132628600Y-67097800D02*
X132628600Y-60388100D01*
X129711500Y-70014900D02*
X132628600Y-67097800D01*
X129159000Y-70014900D02*
X129711500Y-70014900D01*
X129159000Y-71120000D02*
X129159000Y-70014900D01*
X129159000Y-73660000D02*
X129159000Y-72554900D01*
X129711500Y-72554900D02*
X129159000Y-72554900D01*
X135168600Y-67097800D02*
X129711500Y-72554900D01*
X135168600Y-60356700D02*
X135168600Y-67097800D01*
X135938300Y-59587000D02*
X135168600Y-60356700D01*
X158230400Y-59587000D02*
X135938300Y-59587000D01*
X159298600Y-60655200D02*
X158230400Y-59587000D01*
X153987600Y-75031300D02*
X168148000Y-75031300D01*
X153924000Y-75094900D02*
X153987600Y-75031300D01*
X153924000Y-76200000D02*
X153924000Y-75094900D01*
X168148000Y-76200000D02*
X168148000Y-75031300D01*
X150876000Y-76200000D02*
X153924000Y-76200000D01*
X161544000Y-97536000D02*
X162865100Y-97536000D01*
X164742400Y-97536000D02*
X162865100Y-97536000D01*
X165682400Y-96596000D02*
X164742400Y-97536000D01*
X159838800Y-53890600D02*
X169024000Y-63075800D01*
X134046100Y-53890600D02*
X159838800Y-53890600D01*
X127548600Y-60388100D02*
X134046100Y-53890600D01*
X127548600Y-65999400D02*
X127548600Y-60388100D01*
X122428000Y-71120000D02*
X127548600Y-65999400D01*
X132614400Y-72146100D02*
X132614400Y-71729100D01*
X129931800Y-74828700D02*
X132614400Y-72146100D01*
X122428000Y-74828700D02*
X129931800Y-74828700D01*
X122428000Y-73660000D02*
X122428000Y-74828700D01*
X119888000Y-101600000D02*
X119888000Y-100431300D01*
X140589000Y-93693000D02*
X140589000Y-92637900D01*
X147988000Y-77089000D02*
X149043100Y-77089000D01*
X146514800Y-89445100D02*
X146932900Y-89027000D01*
X146514800Y-91133600D02*
X146514800Y-89445100D01*
X144071000Y-93577400D02*
X146514800Y-91133600D01*
X144071000Y-94152700D02*
X144071000Y-93577400D01*
X142662100Y-95561600D02*
X144071000Y-94152700D01*
X137164200Y-95561600D02*
X142662100Y-95561600D01*
X136173900Y-94571300D02*
X137164200Y-95561600D01*
X136173900Y-92816600D02*
X136173900Y-94571300D01*
X136352600Y-92637900D02*
X136173900Y-92816600D01*
X137205400Y-92637900D02*
X136352600Y-92637900D01*
X137384100Y-92816600D02*
X137205400Y-92637900D01*
X137384100Y-94569400D02*
X137384100Y-92816600D01*
X137562900Y-94748200D02*
X137384100Y-94569400D01*
X140589000Y-94748200D02*
X137562900Y-94748200D01*
X140589000Y-94748200D02*
X140589000Y-93693000D01*
X142293000Y-94748200D02*
X140589000Y-94748200D01*
X142836000Y-94205200D02*
X142293000Y-94748200D01*
X142836000Y-93662000D02*
X142836000Y-94205200D01*
X145701400Y-90796600D02*
X142836000Y-93662000D01*
X145701400Y-85753800D02*
X145701400Y-90796600D01*
X146843400Y-84611800D02*
X145701400Y-85753800D01*
X148905700Y-84611800D02*
X146843400Y-84611800D01*
X149043100Y-84474400D02*
X148905700Y-84611800D01*
X149043100Y-77089000D02*
X149043100Y-84474400D01*
X147460500Y-89027000D02*
X146932900Y-89027000D01*
X147460500Y-89027000D02*
X147988000Y-89027000D01*
X149293500Y-94748100D02*
X153543000Y-94748100D01*
X149068200Y-94522800D02*
X149293500Y-94748100D01*
X149068200Y-89893400D02*
X149068200Y-94522800D01*
X148201800Y-89027000D02*
X149068200Y-89893400D01*
X147988000Y-89027000D02*
X148201800Y-89027000D01*
X153543000Y-93693000D02*
X153543000Y-94748100D01*
X156297700Y-94748100D02*
X153543000Y-94748100D01*
X158719900Y-92325900D02*
X156297700Y-94748100D01*
X164854700Y-92325900D02*
X158719900Y-92325900D01*
X122428000Y-76200000D02*
X122428000Y-77368700D01*
X121950500Y-77368700D02*
X122428000Y-77368700D01*
X120651300Y-78667900D02*
X121950500Y-77368700D01*
X120651300Y-90874800D02*
X120651300Y-78667900D01*
X119493000Y-90874800D02*
X120651300Y-90874800D01*
X117718800Y-92649000D02*
X119493000Y-90874800D01*
X117718800Y-98700400D02*
X117718800Y-92649000D01*
X119449700Y-100431300D02*
X117718800Y-98700400D01*
X119888000Y-100431300D02*
X119449700Y-100431300D01*
X138825900Y-90874800D02*
X140589000Y-92637900D01*
X120651300Y-90874800D02*
X138825900Y-90874800D01*
X135034800Y-87731300D02*
X135234500Y-87931000D01*
X122428000Y-87731300D02*
X135034800Y-87731300D01*
X122428000Y-88900000D02*
X122428000Y-87731300D01*
X153987600Y-87731300D02*
X153924000Y-87794900D01*
X168148000Y-87731300D02*
X153987600Y-87731300D01*
X168148000Y-88900000D02*
X168148000Y-87731300D01*
X153924000Y-88900000D02*
X153924000Y-87794900D01*
X153987600Y-85191300D02*
X153924000Y-85254900D01*
X168148000Y-85191300D02*
X153987600Y-85191300D01*
X168148000Y-86360000D02*
X168148000Y-85191300D01*
X153924000Y-86360000D02*
X153924000Y-85254900D01*
X152466900Y-85277100D02*
X153924000Y-83820000D01*
X152466900Y-89364000D02*
X152466900Y-85277100D01*
X153181500Y-90078600D02*
X152466900Y-89364000D01*
X168817900Y-90078600D02*
X153181500Y-90078600D01*
X169519100Y-89377400D02*
X168817900Y-90078600D01*
X169519100Y-85191100D02*
X169519100Y-89377400D01*
X168148000Y-83820000D02*
X169519100Y-85191100D01*
X153987600Y-82448700D02*
X153924000Y-82385100D01*
X168148000Y-82448700D02*
X153987600Y-82448700D01*
X168148000Y-81280000D02*
X168148000Y-82448700D01*
X153924000Y-81280000D02*
X153924000Y-82385100D01*
X153987600Y-72288700D02*
X153924000Y-72225100D01*
X168148000Y-72288700D02*
X153987600Y-72288700D01*
X168148000Y-71120000D02*
X168148000Y-72288700D01*
X153924000Y-71120000D02*
X153924000Y-72225100D01*
X146844000Y-101335000D02*
X146844000Y-100529900D01*
X145923000Y-99608900D02*
X145923000Y-99093000D01*
X146844000Y-100529900D02*
X145923000Y-99608900D01*
X145938900Y-98037900D02*
X146221300Y-97755500D01*
X145923000Y-98037900D02*
X145938900Y-98037900D01*
X145923000Y-99093000D02*
X145923000Y-98037900D01*
X147196100Y-98037900D02*
X147491300Y-97742700D01*
X147193000Y-98037900D02*
X147196100Y-98037900D01*
X147193000Y-99093000D02*
X147193000Y-98037900D01*
X147574800Y-100529900D02*
X147193000Y-100148100D01*
X147644000Y-100529900D02*
X147574800Y-100529900D01*
X147193000Y-99093000D02*
X147193000Y-100148100D01*
X147644000Y-101335000D02*
X147644000Y-100529900D01*
X148545100Y-98037900D02*
X148840300Y-97742700D01*
X148463000Y-98037900D02*
X148545100Y-98037900D01*
X148463000Y-99093000D02*
X148463000Y-98037900D01*
X148444000Y-100167100D02*
X148463000Y-100148100D01*
X148444000Y-101335000D02*
X148444000Y-100167100D01*
X148463000Y-99093000D02*
X148463000Y-100148100D01*
X149733000Y-99093000D02*
X149733000Y-98037900D01*
X149985700Y-97785200D02*
X149985700Y-97753900D01*
X149733000Y-98037900D02*
X149985700Y-97785200D01*
X149351200Y-100529900D02*
X149733000Y-100148100D01*
X149244000Y-100529900D02*
X149351200Y-100529900D01*
X149733000Y-99093000D02*
X149733000Y-100148100D01*
X149244000Y-101335000D02*
X149244000Y-100529900D01*
X150044000Y-101335000D02*
X150044000Y-100529900D01*
X151003000Y-99570900D02*
X151003000Y-99093000D01*
X150044000Y-100529900D02*
X151003000Y-99570900D01*
X151147900Y-97893000D02*
X151147900Y-97749900D01*
X151003000Y-98037900D02*
X151147900Y-97893000D01*
X151003000Y-99093000D02*
X151003000Y-98037900D01*
X152213800Y-102140100D02*
X152305600Y-102231900D01*
X150844000Y-102140100D02*
X152213800Y-102140100D01*
X150844000Y-101737500D02*
X150844000Y-102140100D01*
X150844000Y-101737500D02*
X150844000Y-101335000D01*
X151891200Y-100529900D02*
X152273000Y-100148100D01*
X150844000Y-100529900D02*
X151891200Y-100529900D01*
X150844000Y-101335000D02*
X150844000Y-100529900D01*
X152273000Y-99093000D02*
X152273000Y-100148100D01*
X153543000Y-99093000D02*
X153543000Y-100148100D01*
X152753600Y-100937500D02*
X153543000Y-100148100D01*
X152486600Y-100937500D02*
X152753600Y-100937500D01*
X152089100Y-101335000D02*
X152486600Y-100937500D01*
X151644000Y-101335000D02*
X152089100Y-101335000D01*
X146044000Y-101335000D02*
X146044000Y-100529900D01*
X145491600Y-100529900D02*
X145392800Y-100431100D01*
X146044000Y-100529900D02*
X145491600Y-100529900D01*
X147193000Y-93693000D02*
X147193000Y-94748100D01*
X147193000Y-95030200D02*
X147171600Y-95051600D01*
X147193000Y-94748100D02*
X147193000Y-95030200D01*
X143288000Y-66986800D02*
X143288000Y-67491100D01*
X143035300Y-69021700D02*
X142588000Y-69469000D01*
X143035300Y-67743800D02*
X143035300Y-69021700D01*
X143288000Y-67491100D02*
X143035300Y-67743800D01*
X143288000Y-66986800D02*
X143288000Y-66686000D01*
X141911800Y-65880900D02*
X141690600Y-66102100D01*
X143288000Y-65880900D02*
X141911800Y-65880900D01*
X143288000Y-66686000D02*
X143288000Y-65880900D01*
X144088000Y-66686000D02*
X144088000Y-67491100D01*
X142588000Y-70739000D02*
X143643100Y-70739000D01*
X143721400Y-67857700D02*
X143721400Y-68202000D01*
X144088000Y-67491100D02*
X143721400Y-67857700D01*
X143721400Y-70660700D02*
X143643100Y-70739000D01*
X143721400Y-68202000D02*
X143721400Y-70660700D01*
X142588000Y-72009000D02*
X143643100Y-72009000D01*
X144888000Y-66686000D02*
X144888000Y-67491100D01*
X144407600Y-68878000D02*
X144458500Y-68928900D01*
X144407600Y-67902500D02*
X144407600Y-68878000D01*
X144819000Y-67491100D02*
X144407600Y-67902500D01*
X144888000Y-67491100D02*
X144819000Y-67491100D01*
X143643100Y-71372600D02*
X143643100Y-72009000D01*
X144458500Y-70557200D02*
X143643100Y-71372600D01*
X144458500Y-68928900D02*
X144458500Y-70557200D01*
X142588000Y-73279000D02*
X143643100Y-73279000D01*
X145688000Y-66686000D02*
X145688000Y-67491100D01*
X145150700Y-68186700D02*
X145093700Y-68186700D01*
X145150700Y-68028400D02*
X145150700Y-68186700D01*
X145688000Y-67491100D02*
X145150700Y-68028400D01*
X145174400Y-68210400D02*
X145150700Y-68186700D01*
X145174400Y-71782000D02*
X145174400Y-68210400D01*
X143677400Y-73279000D02*
X145174400Y-71782000D01*
X143643100Y-73279000D02*
X143677400Y-73279000D01*
X142588000Y-74549000D02*
X143643100Y-74549000D01*
X146488000Y-67699700D02*
X146488000Y-66686000D01*
X146178800Y-68008900D02*
X146488000Y-67699700D01*
X145814500Y-72377600D02*
X143643100Y-74549000D01*
X145814500Y-68373200D02*
X145814500Y-72377600D01*
X146178800Y-68008900D02*
X145814500Y-68373200D01*
X142588000Y-75819000D02*
X143643100Y-75819000D01*
X147288000Y-67688900D02*
X147194500Y-67782400D01*
X147288000Y-66686000D02*
X147288000Y-67688900D01*
X146221300Y-73240800D02*
X143643100Y-75819000D01*
X146221300Y-68993900D02*
X146221300Y-73240800D01*
X147194500Y-68020700D02*
X146221300Y-68993900D01*
X147194500Y-67782400D02*
X147194500Y-68020700D01*
X148088000Y-67709700D02*
X148180400Y-67802100D01*
X148088000Y-66686000D02*
X148088000Y-67709700D01*
X142368400Y-77089000D02*
X142588000Y-77089000D01*
X141532800Y-76253400D02*
X142368400Y-77089000D01*
X141532800Y-72746000D02*
X141532800Y-76253400D01*
X141664600Y-72614200D02*
X141532800Y-72746000D01*
X143642400Y-72614200D02*
X141664600Y-72614200D01*
X144488300Y-71768300D02*
X143642400Y-72614200D01*
X144488300Y-71497700D02*
X144488300Y-71768300D01*
X142488000Y-66686000D02*
X142488000Y-67491100D01*
X142349100Y-67630000D02*
X142349100Y-67775900D01*
X142488000Y-67491100D02*
X142349100Y-67630000D01*
X147988000Y-70739000D02*
X149043100Y-70739000D01*
X149067100Y-70715000D02*
X149043100Y-70739000D01*
X149336600Y-70715000D02*
X149067100Y-70715000D01*
X133012600Y-98037900D02*
X133304000Y-97746500D01*
X132969000Y-98037900D02*
X133012600Y-98037900D01*
X132969000Y-99093000D02*
X132969000Y-98037900D01*
X133307600Y-100148100D02*
X132969000Y-100148100D01*
X134144000Y-100984500D02*
X133307600Y-100148100D01*
X134144000Y-101335000D02*
X134144000Y-100984500D01*
X132969000Y-99093000D02*
X132969000Y-100148100D01*
X134620800Y-100529900D02*
X134239000Y-100148100D01*
X134944000Y-100529900D02*
X134620800Y-100529900D01*
X134239000Y-99093000D02*
X134239000Y-100148100D01*
X134944000Y-101034100D02*
X134944000Y-100529900D01*
X134944000Y-101034100D02*
X134944000Y-101335000D01*
X134944000Y-101335000D02*
X134944000Y-102140100D01*
X132777800Y-102140100D02*
X132686000Y-102231900D01*
X134944000Y-102140100D02*
X132777800Y-102140100D01*
X135744000Y-100383100D02*
X135509000Y-100148100D01*
X135744000Y-101335000D02*
X135744000Y-100383100D01*
X135509000Y-99093000D02*
X135509000Y-99620500D01*
X135509000Y-99620500D02*
X135509000Y-100148100D01*
X135172400Y-99283900D02*
X135172400Y-97754200D01*
X135509000Y-99620500D02*
X135172400Y-99283900D01*
X136699400Y-98037900D02*
X136394000Y-97732500D01*
X136779000Y-98037900D02*
X136699400Y-98037900D01*
X136779000Y-99093000D02*
X136779000Y-98037900D01*
X136544000Y-100383100D02*
X136779000Y-100148100D01*
X136544000Y-101335000D02*
X136544000Y-100383100D01*
X136779000Y-99093000D02*
X136779000Y-100148100D01*
X138096600Y-98037900D02*
X138381200Y-97753300D01*
X138049000Y-98037900D02*
X138096600Y-98037900D01*
X138049000Y-99093000D02*
X138049000Y-98037900D01*
X138049000Y-99824900D02*
X138049000Y-99093000D01*
X137344000Y-100529900D02*
X138049000Y-99824900D01*
X137344000Y-101335000D02*
X137344000Y-100529900D01*
X139319000Y-99354900D02*
X139319000Y-99093000D01*
X138144000Y-100529900D02*
X139319000Y-99354900D01*
X138144000Y-101335000D02*
X138144000Y-102140100D01*
X138144000Y-102140100D02*
X139708800Y-102140100D01*
X138144000Y-101335000D02*
X138144000Y-100529900D01*
X140589000Y-99093000D02*
X140589000Y-100148100D01*
X138944000Y-101335000D02*
X138944000Y-100529900D01*
X140309100Y-100428000D02*
X139728600Y-100428000D01*
X140589000Y-100148100D02*
X140309100Y-100428000D01*
X139626700Y-100529900D02*
X138944000Y-100529900D01*
X139728600Y-100428000D02*
X139626700Y-100529900D01*
X134239000Y-93693000D02*
X134239000Y-94748100D01*
X132618600Y-101335000D02*
X132546700Y-101263100D01*
X133344000Y-101335000D02*
X132618600Y-101335000D01*
X133933000Y-95054100D02*
X134239000Y-94748100D01*
X128344000Y-95054100D02*
X133933000Y-95054100D01*
X127563000Y-95835100D02*
X128344000Y-95054100D01*
X127563000Y-96683300D02*
X127563000Y-95835100D01*
X132142800Y-101263100D02*
X127563000Y-96683300D01*
X132546700Y-101263100D02*
X132142800Y-101263100D01*
X149987800Y-64886000D02*
X154218600Y-60655200D01*
X148088000Y-64886000D02*
X149987800Y-64886000D01*
X148252900Y-64080900D02*
X151678600Y-60655200D01*
X147288000Y-64080900D02*
X148252900Y-64080900D01*
X147288000Y-64886000D02*
X147288000Y-64080900D01*
X146488000Y-63305800D02*
X149138600Y-60655200D01*
X146488000Y-64886000D02*
X146488000Y-63305800D01*
X144888000Y-61484600D02*
X144058600Y-60655200D01*
X144888000Y-64886000D02*
X144888000Y-61484600D01*
X144088000Y-63224600D02*
X141518600Y-60655200D01*
X144088000Y-64886000D02*
X144088000Y-63224600D01*
X142404300Y-64080900D02*
X138978600Y-60655200D01*
X143288000Y-64080900D02*
X142404300Y-64080900D01*
X143288000Y-64886000D02*
X143288000Y-64080900D01*
X140669400Y-64886000D02*
X136438600Y-60655200D01*
X142488000Y-64886000D02*
X140669400Y-64886000D01*
X161097800Y-103135000D02*
X164388800Y-106426000D01*
X151644000Y-103135000D02*
X161097800Y-103135000D01*
X159362900Y-103940100D02*
X161848800Y-106426000D01*
X150844000Y-103940100D02*
X159362900Y-103940100D01*
X150844000Y-103135000D02*
X150844000Y-103940100D01*
X157229700Y-104346900D02*
X159308800Y-106426000D01*
X150620600Y-104346900D02*
X157229700Y-104346900D01*
X150044000Y-103770300D02*
X150620600Y-104346900D01*
X150044000Y-103135000D02*
X150044000Y-103770300D01*
X155096500Y-104753700D02*
X156768800Y-106426000D01*
X150452100Y-104753700D02*
X155096500Y-104753700D01*
X149638500Y-103940100D02*
X150452100Y-104753700D01*
X149244000Y-103940100D02*
X149638500Y-103940100D01*
X149244000Y-103135000D02*
X149244000Y-103940100D01*
X148444000Y-103135000D02*
X148444000Y-103940100D01*
X149357600Y-104853700D02*
X148444000Y-103940100D01*
X149886000Y-104853700D02*
X149357600Y-104853700D01*
X150268600Y-105236300D02*
X149886000Y-104853700D01*
X153039100Y-105236300D02*
X150268600Y-105236300D01*
X154228800Y-106426000D02*
X153039100Y-105236300D01*
X150770500Y-106426000D02*
X151688800Y-106426000D01*
X149605000Y-105260500D02*
X150770500Y-106426000D01*
X148964400Y-105260500D02*
X149605000Y-105260500D01*
X147644000Y-103940100D02*
X148964400Y-105260500D01*
X147644000Y-103135000D02*
X147644000Y-103940100D01*
X146844000Y-104121200D02*
X149148800Y-106426000D01*
X146844000Y-103135000D02*
X146844000Y-104121200D01*
X146044000Y-105861200D02*
X146608800Y-106426000D01*
X146044000Y-103135000D02*
X146044000Y-105861200D01*
X140777800Y-103135000D02*
X144068800Y-106426000D01*
X138944000Y-103135000D02*
X140777800Y-103135000D01*
X139042900Y-103940100D02*
X141528800Y-106426000D01*
X138144000Y-103940100D02*
X139042900Y-103940100D01*
X138144000Y-103135000D02*
X138144000Y-103940100D01*
X137344000Y-104781200D02*
X138988800Y-106426000D01*
X137344000Y-103135000D02*
X137344000Y-104781200D01*
X136544000Y-106330800D02*
X136448800Y-106426000D01*
X136544000Y-103135000D02*
X136544000Y-106330800D01*
X135744000Y-104590800D02*
X133908800Y-106426000D01*
X135744000Y-103135000D02*
X135744000Y-104590800D01*
X132306300Y-106426000D02*
X131368800Y-106426000D01*
X134792200Y-103940100D02*
X132306300Y-106426000D01*
X134944000Y-103940100D02*
X134792200Y-103940100D01*
X134944000Y-103135000D02*
X134944000Y-103940100D01*
X134144000Y-103135000D02*
X134144000Y-103940100D01*
X131314700Y-103940100D02*
X134144000Y-103940100D01*
X128828800Y-106426000D02*
X131314700Y-103940100D01*
X127355900Y-106292600D02*
X127355900Y-106426000D01*
X130513500Y-103135000D02*
X127355900Y-106292600D01*
X133344000Y-103135000D02*
X130513500Y-103135000D01*
X126288800Y-106426000D02*
X127355900Y-106426000D01*
X145688000Y-61565800D02*
X146598600Y-60655200D01*
X145688000Y-64886000D02*
X145688000Y-61565800D01*
X170688000Y-106680000D02*
X169366900Y-106680000D01*
X119888000Y-106680000D02*
X121209100Y-106680000D01*
X168510700Y-107536200D02*
X169366900Y-106680000D01*
X165827900Y-107536200D02*
X168510700Y-107536200D01*
X165421200Y-107942900D02*
X165827900Y-107536200D01*
X124325200Y-107942900D02*
X165421200Y-107942900D01*
X124087000Y-107704700D02*
X124325200Y-107942900D01*
X124087000Y-107536200D02*
X124087000Y-107704700D01*
X122065300Y-107536200D02*
X124087000Y-107536200D01*
X121209100Y-106680000D02*
X122065300Y-107536200D01*
X122428000Y-83820000D02*
X122428000Y-82651300D01*
X136779000Y-66040000D02*
X136779000Y-67145100D01*
X136280400Y-67145100D02*
X136779000Y-67145100D01*
X134513400Y-68912100D02*
X136280400Y-67145100D01*
X134513400Y-72774500D02*
X134513400Y-68912100D01*
X129817900Y-77470000D02*
X134513400Y-72774500D01*
X128490700Y-77470000D02*
X129817900Y-77470000D01*
X123309400Y-82651300D02*
X128490700Y-77470000D01*
X122428000Y-82651300D02*
X123309400Y-82651300D01*
D29*
G36*
X127247140Y-59468246D02*
X127143044Y-59363969D01*
X126583112Y-59131465D01*
X125976828Y-59130936D01*
X125416491Y-59362462D01*
X124987409Y-59790796D01*
X124754905Y-60350728D01*
X124754376Y-60957012D01*
X124985902Y-61517349D01*
X125414236Y-61946431D01*
X125974168Y-62178935D01*
X126580452Y-62179464D01*
X126685000Y-62136266D01*
X126685000Y-65641686D01*
X124158849Y-68167837D01*
X124117092Y-67957910D01*
X123845173Y-67550954D01*
X123985729Y-67460508D01*
X124159717Y-67205869D01*
X124220928Y-66903600D01*
X124220928Y-65176400D01*
X124167795Y-64894020D01*
X124000908Y-64634671D01*
X123746269Y-64460683D01*
X123444000Y-64399472D01*
X121412000Y-64399472D01*
X121129620Y-64452605D01*
X120870271Y-64619492D01*
X120696283Y-64874131D01*
X120635072Y-65176400D01*
X120635072Y-66903600D01*
X120688205Y-67185980D01*
X120855092Y-67445329D01*
X121010467Y-67551493D01*
X120738908Y-67957910D01*
X120615167Y-68580000D01*
X120738908Y-69202090D01*
X120969656Y-69547430D01*
X116662843Y-73854243D01*
X116475638Y-74134415D01*
X116409900Y-74464900D01*
X116409900Y-106094200D01*
X116460686Y-106349515D01*
X116475638Y-106424685D01*
X116662843Y-106704857D01*
X118341897Y-108383912D01*
X118198908Y-108597910D01*
X118075167Y-109220000D01*
X118198908Y-109842090D01*
X118551294Y-110369473D01*
X118856075Y-110573121D01*
X118537268Y-110857964D01*
X118283291Y-111385209D01*
X118280642Y-111400974D01*
X118401783Y-111633000D01*
X119761000Y-111633000D01*
X119761000Y-111613000D01*
X120015000Y-111613000D01*
X120015000Y-111633000D01*
X121374217Y-111633000D01*
X121495358Y-111400974D01*
X121492709Y-111385209D01*
X121238732Y-110857964D01*
X120919925Y-110573121D01*
X121224706Y-110369473D01*
X121447391Y-110036201D01*
X121539585Y-110017862D01*
X121819757Y-109830657D01*
X122273215Y-109377200D01*
X123705981Y-109377200D01*
X123317486Y-110312801D01*
X123316516Y-111424323D01*
X123740981Y-112451606D01*
X123803765Y-112514500D01*
X121309801Y-112514500D01*
X121492709Y-112134791D01*
X121495358Y-112119026D01*
X121374217Y-111887000D01*
X120015000Y-111887000D01*
X120015000Y-111907000D01*
X119761000Y-111907000D01*
X119761000Y-111887000D01*
X118401783Y-111887000D01*
X118280642Y-112119026D01*
X118283291Y-112134791D01*
X118466199Y-112514500D01*
X117321995Y-112514500D01*
X116837700Y-112453625D01*
X116562610Y-112296943D01*
X116368420Y-112046917D01*
X116268500Y-111682560D01*
X116268500Y-58371048D01*
X116525260Y-58628257D01*
X117551801Y-59054514D01*
X118663323Y-59055484D01*
X119690606Y-58631019D01*
X120477257Y-57845740D01*
X120903514Y-56819199D01*
X120904484Y-55707677D01*
X120480019Y-54680394D01*
X120219580Y-54419500D01*
X132295885Y-54419500D01*
X127247140Y-59468246D01*
X127247140Y-59468246D01*
G37*
X127247140Y-59468246D02*
X127143044Y-59363969D01*
X126583112Y-59131465D01*
X125976828Y-59130936D01*
X125416491Y-59362462D01*
X124987409Y-59790796D01*
X124754905Y-60350728D01*
X124754376Y-60957012D01*
X124985902Y-61517349D01*
X125414236Y-61946431D01*
X125974168Y-62178935D01*
X126580452Y-62179464D01*
X126685000Y-62136266D01*
X126685000Y-65641686D01*
X124158849Y-68167837D01*
X124117092Y-67957910D01*
X123845173Y-67550954D01*
X123985729Y-67460508D01*
X124159717Y-67205869D01*
X124220928Y-66903600D01*
X124220928Y-65176400D01*
X124167795Y-64894020D01*
X124000908Y-64634671D01*
X123746269Y-64460683D01*
X123444000Y-64399472D01*
X121412000Y-64399472D01*
X121129620Y-64452605D01*
X120870271Y-64619492D01*
X120696283Y-64874131D01*
X120635072Y-65176400D01*
X120635072Y-66903600D01*
X120688205Y-67185980D01*
X120855092Y-67445329D01*
X121010467Y-67551493D01*
X120738908Y-67957910D01*
X120615167Y-68580000D01*
X120738908Y-69202090D01*
X120969656Y-69547430D01*
X116662843Y-73854243D01*
X116475638Y-74134415D01*
X116409900Y-74464900D01*
X116409900Y-106094200D01*
X116460686Y-106349515D01*
X116475638Y-106424685D01*
X116662843Y-106704857D01*
X118341897Y-108383912D01*
X118198908Y-108597910D01*
X118075167Y-109220000D01*
X118198908Y-109842090D01*
X118551294Y-110369473D01*
X118856075Y-110573121D01*
X118537268Y-110857964D01*
X118283291Y-111385209D01*
X118280642Y-111400974D01*
X118401783Y-111633000D01*
X119761000Y-111633000D01*
X119761000Y-111613000D01*
X120015000Y-111613000D01*
X120015000Y-111633000D01*
X121374217Y-111633000D01*
X121495358Y-111400974D01*
X121492709Y-111385209D01*
X121238732Y-110857964D01*
X120919925Y-110573121D01*
X121224706Y-110369473D01*
X121447391Y-110036201D01*
X121539585Y-110017862D01*
X121819757Y-109830657D01*
X122273215Y-109377200D01*
X123705981Y-109377200D01*
X123317486Y-110312801D01*
X123316516Y-111424323D01*
X123740981Y-112451606D01*
X123803765Y-112514500D01*
X121309801Y-112514500D01*
X121492709Y-112134791D01*
X121495358Y-112119026D01*
X121374217Y-111887000D01*
X120015000Y-111887000D01*
X120015000Y-111907000D01*
X119761000Y-111907000D01*
X119761000Y-111887000D01*
X118401783Y-111887000D01*
X118280642Y-112119026D01*
X118283291Y-112134791D01*
X118466199Y-112514500D01*
X117321995Y-112514500D01*
X116837700Y-112453625D01*
X116562610Y-112296943D01*
X116368420Y-112046917D01*
X116268500Y-111682560D01*
X116268500Y-58371048D01*
X116525260Y-58628257D01*
X117551801Y-59054514D01*
X118663323Y-59055484D01*
X119690606Y-58631019D01*
X120477257Y-57845740D01*
X120903514Y-56819199D01*
X120904484Y-55707677D01*
X120480019Y-54680394D01*
X120219580Y-54419500D01*
X132295885Y-54419500D01*
X127247140Y-59468246D01*
G36*
X174363500Y-111506000D02*
X174375198Y-111564811D01*
X174328025Y-111940100D01*
X174171343Y-112215190D01*
X173921317Y-112409380D01*
X173537999Y-112514500D01*
X172109801Y-112514500D01*
X172292709Y-112134791D01*
X172295358Y-112119026D01*
X172174217Y-111887000D01*
X170815000Y-111887000D01*
X170815000Y-111907000D01*
X170561000Y-111907000D01*
X170561000Y-111887000D01*
X170541000Y-111887000D01*
X170541000Y-111633000D01*
X170561000Y-111633000D01*
X170561000Y-111613000D01*
X170815000Y-111613000D01*
X170815000Y-111633000D01*
X172174217Y-111633000D01*
X172295358Y-111400974D01*
X172292709Y-111385209D01*
X172038732Y-110857964D01*
X171719925Y-110573121D01*
X172024706Y-110369473D01*
X172377092Y-109842090D01*
X172500833Y-109220000D01*
X172377092Y-108597910D01*
X172234143Y-108383972D01*
X173255957Y-107362158D01*
X173443162Y-107081986D01*
X173467864Y-106957800D01*
X173508900Y-106751500D01*
X173508900Y-85246928D01*
X174363500Y-85246928D01*
X174363500Y-111506000D01*
X174363500Y-111506000D01*
G37*
X174363500Y-111506000D02*
X174375198Y-111564811D01*
X174328025Y-111940100D01*
X174171343Y-112215190D01*
X173921317Y-112409380D01*
X173537999Y-112514500D01*
X172109801Y-112514500D01*
X172292709Y-112134791D01*
X172295358Y-112119026D01*
X172174217Y-111887000D01*
X170815000Y-111887000D01*
X170815000Y-111907000D01*
X170561000Y-111907000D01*
X170561000Y-111887000D01*
X170541000Y-111887000D01*
X170541000Y-111633000D01*
X170561000Y-111633000D01*
X170561000Y-111613000D01*
X170815000Y-111613000D01*
X170815000Y-111633000D01*
X172174217Y-111633000D01*
X172295358Y-111400974D01*
X172292709Y-111385209D01*
X172038732Y-110857964D01*
X171719925Y-110573121D01*
X172024706Y-110369473D01*
X172377092Y-109842090D01*
X172500833Y-109220000D01*
X172377092Y-108597910D01*
X172234143Y-108383972D01*
X173255957Y-107362158D01*
X173443162Y-107081986D01*
X173467864Y-106957800D01*
X173508900Y-106751500D01*
X173508900Y-85246928D01*
X174363500Y-85246928D01*
X174363500Y-111506000D01*
G36*
X145252877Y-97107197D02*
X145078499Y-97527146D01*
X145078269Y-97790485D01*
X144907283Y-98040731D01*
X144846072Y-98343000D01*
X144846072Y-99420275D01*
X144746188Y-99461546D01*
X144424377Y-99782797D01*
X144249999Y-100202746D01*
X144249602Y-100657459D01*
X144423246Y-101077712D01*
X144744497Y-101399523D01*
X145054572Y-101528277D01*
X145054572Y-101835000D01*
X145107705Y-102117380D01*
X145182988Y-102234373D01*
X145115783Y-102332731D01*
X145054572Y-102635000D01*
X145054572Y-103635000D01*
X145107705Y-103917380D01*
X145180400Y-104030351D01*
X145180400Y-105382397D01*
X144933204Y-105134769D01*
X144373272Y-104902265D01*
X143766988Y-104901736D01*
X143766183Y-104902069D01*
X141388457Y-102524343D01*
X141108285Y-102337138D01*
X140851673Y-102286094D01*
X140851998Y-101913741D01*
X140678354Y-101493488D01*
X140479080Y-101293867D01*
X140524215Y-101248811D01*
X140639585Y-101225862D01*
X140919757Y-101038657D01*
X141199657Y-100758758D01*
X141386862Y-100478586D01*
X141390458Y-100460507D01*
X141432690Y-100478000D01*
X141573250Y-100478000D01*
X141732000Y-100319250D01*
X141732000Y-99220000D01*
X141986000Y-99220000D01*
X141986000Y-100319250D01*
X142144750Y-100478000D01*
X142285310Y-100478000D01*
X142518699Y-100381327D01*
X142697327Y-100202698D01*
X142794000Y-99969309D01*
X142794000Y-99378750D01*
X142635250Y-99220000D01*
X141986000Y-99220000D01*
X141732000Y-99220000D01*
X141712000Y-99220000D01*
X141712000Y-98966000D01*
X141732000Y-98966000D01*
X141732000Y-97866750D01*
X141986000Y-97866750D01*
X141986000Y-98966000D01*
X142635250Y-98966000D01*
X142794000Y-98807250D01*
X142794000Y-98216691D01*
X142697327Y-97983302D01*
X142518699Y-97804673D01*
X142285310Y-97708000D01*
X142144750Y-97708000D01*
X141986000Y-97866750D01*
X141732000Y-97866750D01*
X141573250Y-97708000D01*
X141432690Y-97708000D01*
X141355933Y-97739794D01*
X141191269Y-97627283D01*
X140889000Y-97566072D01*
X140289000Y-97566072D01*
X140006620Y-97619205D01*
X139956576Y-97651407D01*
X139921269Y-97627283D01*
X139619000Y-97566072D01*
X139524364Y-97566072D01*
X139524398Y-97526941D01*
X139350754Y-97106688D01*
X139076544Y-96832000D01*
X145528554Y-96832000D01*
X145252877Y-97107197D01*
X145252877Y-97107197D01*
G37*
X145252877Y-97107197D02*
X145078499Y-97527146D01*
X145078269Y-97790485D01*
X144907283Y-98040731D01*
X144846072Y-98343000D01*
X144846072Y-99420275D01*
X144746188Y-99461546D01*
X144424377Y-99782797D01*
X144249999Y-100202746D01*
X144249602Y-100657459D01*
X144423246Y-101077712D01*
X144744497Y-101399523D01*
X145054572Y-101528277D01*
X145054572Y-101835000D01*
X145107705Y-102117380D01*
X145182988Y-102234373D01*
X145115783Y-102332731D01*
X145054572Y-102635000D01*
X145054572Y-103635000D01*
X145107705Y-103917380D01*
X145180400Y-104030351D01*
X145180400Y-105382397D01*
X144933204Y-105134769D01*
X144373272Y-104902265D01*
X143766988Y-104901736D01*
X143766183Y-104902069D01*
X141388457Y-102524343D01*
X141108285Y-102337138D01*
X140851673Y-102286094D01*
X140851998Y-101913741D01*
X140678354Y-101493488D01*
X140479080Y-101293867D01*
X140524215Y-101248811D01*
X140639585Y-101225862D01*
X140919757Y-101038657D01*
X141199657Y-100758758D01*
X141386862Y-100478586D01*
X141390458Y-100460507D01*
X141432690Y-100478000D01*
X141573250Y-100478000D01*
X141732000Y-100319250D01*
X141732000Y-99220000D01*
X141986000Y-99220000D01*
X141986000Y-100319250D01*
X142144750Y-100478000D01*
X142285310Y-100478000D01*
X142518699Y-100381327D01*
X142697327Y-100202698D01*
X142794000Y-99969309D01*
X142794000Y-99378750D01*
X142635250Y-99220000D01*
X141986000Y-99220000D01*
X141732000Y-99220000D01*
X141712000Y-99220000D01*
X141712000Y-98966000D01*
X141732000Y-98966000D01*
X141732000Y-97866750D01*
X141986000Y-97866750D01*
X141986000Y-98966000D01*
X142635250Y-98966000D01*
X142794000Y-98807250D01*
X142794000Y-98216691D01*
X142697327Y-97983302D01*
X142518699Y-97804673D01*
X142285310Y-97708000D01*
X142144750Y-97708000D01*
X141986000Y-97866750D01*
X141732000Y-97866750D01*
X141573250Y-97708000D01*
X141432690Y-97708000D01*
X141355933Y-97739794D01*
X141191269Y-97627283D01*
X140889000Y-97566072D01*
X140289000Y-97566072D01*
X140006620Y-97619205D01*
X139956576Y-97651407D01*
X139921269Y-97627283D01*
X139619000Y-97566072D01*
X139524364Y-97566072D01*
X139524398Y-97526941D01*
X139350754Y-97106688D01*
X139076544Y-96832000D01*
X145528554Y-96832000D01*
X145252877Y-97107197D01*
G36*
X159731167Y-97536000D02*
X159854908Y-98158090D01*
X160207294Y-98685473D01*
X160512075Y-98889121D01*
X160193268Y-99173964D01*
X159939291Y-99701209D01*
X159936642Y-99716974D01*
X160057783Y-99949000D01*
X161417000Y-99949000D01*
X161417000Y-99929000D01*
X161671000Y-99929000D01*
X161671000Y-99949000D01*
X163030217Y-99949000D01*
X163151358Y-99716974D01*
X163148709Y-99701209D01*
X162894732Y-99173964D01*
X162575925Y-98889121D01*
X162880706Y-98685473D01*
X163071720Y-98399600D01*
X164742400Y-98399600D01*
X165072885Y-98333862D01*
X165353057Y-98146657D01*
X165760646Y-97739069D01*
X165908759Y-97739198D01*
X166329012Y-97565554D01*
X166650823Y-97244303D01*
X166678984Y-97176484D01*
X166797268Y-97422036D01*
X167116075Y-97706879D01*
X166811294Y-97910527D01*
X166458908Y-98437910D01*
X166335167Y-99060000D01*
X166458908Y-99682090D01*
X166811294Y-100209473D01*
X166854151Y-100238109D01*
X166658860Y-100433400D01*
X163150509Y-100433400D01*
X163030217Y-100203000D01*
X161671000Y-100203000D01*
X161671000Y-100223000D01*
X161417000Y-100223000D01*
X161417000Y-100203000D01*
X160057783Y-100203000D01*
X159937491Y-100433400D01*
X158712881Y-100433400D01*
X158426853Y-100146873D01*
X157936913Y-99943432D01*
X157406414Y-99942969D01*
X156916120Y-100145554D01*
X156540673Y-100520347D01*
X156337232Y-101010287D01*
X156336769Y-101540786D01*
X156539354Y-102031080D01*
X156779255Y-102271400D01*
X153448566Y-102271400D01*
X153448798Y-102005541D01*
X153327830Y-101712775D01*
X153455023Y-101585803D01*
X153546207Y-101366207D01*
X154153657Y-100758758D01*
X154340862Y-100478586D01*
X154344458Y-100460507D01*
X154386690Y-100478000D01*
X154527250Y-100478000D01*
X154686000Y-100319250D01*
X154686000Y-99220000D01*
X154940000Y-99220000D01*
X154940000Y-100319250D01*
X155098750Y-100478000D01*
X155239310Y-100478000D01*
X155472699Y-100381327D01*
X155651327Y-100202698D01*
X155748000Y-99969309D01*
X155748000Y-99378750D01*
X155589250Y-99220000D01*
X154940000Y-99220000D01*
X154686000Y-99220000D01*
X154666000Y-99220000D01*
X154666000Y-98966000D01*
X154686000Y-98966000D01*
X154686000Y-97866750D01*
X154940000Y-97866750D01*
X154940000Y-98966000D01*
X155589250Y-98966000D01*
X155748000Y-98807250D01*
X155748000Y-98216691D01*
X155651327Y-97983302D01*
X155472699Y-97804673D01*
X155239310Y-97708000D01*
X155098750Y-97708000D01*
X154940000Y-97866750D01*
X154686000Y-97866750D01*
X154527250Y-97708000D01*
X154386690Y-97708000D01*
X154309933Y-97739794D01*
X154145269Y-97627283D01*
X153843000Y-97566072D01*
X153243000Y-97566072D01*
X152960620Y-97619205D01*
X152910576Y-97651407D01*
X152875269Y-97627283D01*
X152573000Y-97566072D01*
X152291061Y-97566072D01*
X152291098Y-97523541D01*
X152117454Y-97103288D01*
X152042696Y-97028400D01*
X159832135Y-97028400D01*
X159731167Y-97536000D01*
X159731167Y-97536000D01*
G37*
X159731167Y-97536000D02*
X159854908Y-98158090D01*
X160207294Y-98685473D01*
X160512075Y-98889121D01*
X160193268Y-99173964D01*
X159939291Y-99701209D01*
X159936642Y-99716974D01*
X160057783Y-99949000D01*
X161417000Y-99949000D01*
X161417000Y-99929000D01*
X161671000Y-99929000D01*
X161671000Y-99949000D01*
X163030217Y-99949000D01*
X163151358Y-99716974D01*
X163148709Y-99701209D01*
X162894732Y-99173964D01*
X162575925Y-98889121D01*
X162880706Y-98685473D01*
X163071720Y-98399600D01*
X164742400Y-98399600D01*
X165072885Y-98333862D01*
X165353057Y-98146657D01*
X165760646Y-97739069D01*
X165908759Y-97739198D01*
X166329012Y-97565554D01*
X166650823Y-97244303D01*
X166678984Y-97176484D01*
X166797268Y-97422036D01*
X167116075Y-97706879D01*
X166811294Y-97910527D01*
X166458908Y-98437910D01*
X166335167Y-99060000D01*
X166458908Y-99682090D01*
X166811294Y-100209473D01*
X166854151Y-100238109D01*
X166658860Y-100433400D01*
X163150509Y-100433400D01*
X163030217Y-100203000D01*
X161671000Y-100203000D01*
X161671000Y-100223000D01*
X161417000Y-100223000D01*
X161417000Y-100203000D01*
X160057783Y-100203000D01*
X159937491Y-100433400D01*
X158712881Y-100433400D01*
X158426853Y-100146873D01*
X157936913Y-99943432D01*
X157406414Y-99942969D01*
X156916120Y-100145554D01*
X156540673Y-100520347D01*
X156337232Y-101010287D01*
X156336769Y-101540786D01*
X156539354Y-102031080D01*
X156779255Y-102271400D01*
X153448566Y-102271400D01*
X153448798Y-102005541D01*
X153327830Y-101712775D01*
X153455023Y-101585803D01*
X153546207Y-101366207D01*
X154153657Y-100758758D01*
X154340862Y-100478586D01*
X154344458Y-100460507D01*
X154386690Y-100478000D01*
X154527250Y-100478000D01*
X154686000Y-100319250D01*
X154686000Y-99220000D01*
X154940000Y-99220000D01*
X154940000Y-100319250D01*
X155098750Y-100478000D01*
X155239310Y-100478000D01*
X155472699Y-100381327D01*
X155651327Y-100202698D01*
X155748000Y-99969309D01*
X155748000Y-99378750D01*
X155589250Y-99220000D01*
X154940000Y-99220000D01*
X154686000Y-99220000D01*
X154666000Y-99220000D01*
X154666000Y-98966000D01*
X154686000Y-98966000D01*
X154686000Y-97866750D01*
X154940000Y-97866750D01*
X154940000Y-98966000D01*
X155589250Y-98966000D01*
X155748000Y-98807250D01*
X155748000Y-98216691D01*
X155651327Y-97983302D01*
X155472699Y-97804673D01*
X155239310Y-97708000D01*
X155098750Y-97708000D01*
X154940000Y-97866750D01*
X154686000Y-97866750D01*
X154527250Y-97708000D01*
X154386690Y-97708000D01*
X154309933Y-97739794D01*
X154145269Y-97627283D01*
X153843000Y-97566072D01*
X153243000Y-97566072D01*
X152960620Y-97619205D01*
X152910576Y-97651407D01*
X152875269Y-97627283D01*
X152573000Y-97566072D01*
X152291061Y-97566072D01*
X152291098Y-97523541D01*
X152117454Y-97103288D01*
X152042696Y-97028400D01*
X159832135Y-97028400D01*
X159731167Y-97536000D01*
G36*
X135680543Y-96579057D02*
X135876137Y-96709748D01*
X135756577Y-96759149D01*
X135400754Y-96611399D01*
X134946041Y-96611002D01*
X134525788Y-96784646D01*
X134241831Y-97068109D01*
X133952303Y-96778077D01*
X133532354Y-96603699D01*
X133077641Y-96603302D01*
X132657388Y-96776946D01*
X132335577Y-97098197D01*
X132161199Y-97518146D01*
X132160989Y-97758436D01*
X132159630Y-97765270D01*
X132127271Y-97786092D01*
X131953283Y-98040731D01*
X131892072Y-98343000D01*
X131892072Y-99791057D01*
X129240030Y-97139015D01*
X129243410Y-97125016D01*
X128524000Y-96405605D01*
X128515310Y-96414295D01*
X128426600Y-96325586D01*
X128426600Y-96192814D01*
X128562652Y-96056762D01*
X128717748Y-96211858D01*
X128703605Y-96226000D01*
X129423016Y-96945410D01*
X129653611Y-96889729D01*
X129821622Y-96406922D01*
X129793306Y-95917700D01*
X133933000Y-95917700D01*
X134263485Y-95851962D01*
X134543657Y-95664757D01*
X134654950Y-95553464D01*
X135680543Y-96579057D01*
X135680543Y-96579057D01*
G37*
X135680543Y-96579057D02*
X135876137Y-96709748D01*
X135756577Y-96759149D01*
X135400754Y-96611399D01*
X134946041Y-96611002D01*
X134525788Y-96784646D01*
X134241831Y-97068109D01*
X133952303Y-96778077D01*
X133532354Y-96603699D01*
X133077641Y-96603302D01*
X132657388Y-96776946D01*
X132335577Y-97098197D01*
X132161199Y-97518146D01*
X132160989Y-97758436D01*
X132159630Y-97765270D01*
X132127271Y-97786092D01*
X131953283Y-98040731D01*
X131892072Y-98343000D01*
X131892072Y-99791057D01*
X129240030Y-97139015D01*
X129243410Y-97125016D01*
X128524000Y-96405605D01*
X128515310Y-96414295D01*
X128426600Y-96325586D01*
X128426600Y-96192814D01*
X128562652Y-96056762D01*
X128717748Y-96211858D01*
X128703605Y-96226000D01*
X129423016Y-96945410D01*
X129653611Y-96889729D01*
X129821622Y-96406922D01*
X129793306Y-95917700D01*
X133933000Y-95917700D01*
X134263485Y-95851962D01*
X134543657Y-95664757D01*
X134654950Y-95553464D01*
X135680543Y-96579057D01*
G36*
X168275000Y-96393000D02*
X168295000Y-96393000D01*
X168295000Y-96647000D01*
X168275000Y-96647000D01*
X168275000Y-96667000D01*
X168021000Y-96667000D01*
X168021000Y-96647000D01*
X168001000Y-96647000D01*
X168001000Y-96393000D01*
X168021000Y-96393000D01*
X168021000Y-96373000D01*
X168275000Y-96373000D01*
X168275000Y-96393000D01*
X168275000Y-96393000D01*
G37*
X168275000Y-96393000D02*
X168295000Y-96393000D01*
X168295000Y-96647000D01*
X168275000Y-96647000D01*
X168275000Y-96667000D01*
X168021000Y-96667000D01*
X168021000Y-96647000D01*
X168001000Y-96647000D01*
X168001000Y-96393000D01*
X168021000Y-96393000D01*
X168021000Y-96373000D01*
X168275000Y-96373000D01*
X168275000Y-96393000D01*
G36*
X168275000Y-93853000D02*
X168295000Y-93853000D01*
X168295000Y-94107000D01*
X168275000Y-94107000D01*
X168275000Y-94127000D01*
X168021000Y-94127000D01*
X168021000Y-94107000D01*
X168001000Y-94107000D01*
X168001000Y-93853000D01*
X168021000Y-93853000D01*
X168021000Y-93833000D01*
X168275000Y-93833000D01*
X168275000Y-93853000D01*
X168275000Y-93853000D01*
G37*
X168275000Y-93853000D02*
X168295000Y-93853000D01*
X168295000Y-94107000D01*
X168275000Y-94107000D01*
X168275000Y-94127000D01*
X168021000Y-94127000D01*
X168021000Y-94107000D01*
X168001000Y-94107000D01*
X168001000Y-93853000D01*
X168021000Y-93853000D01*
X168021000Y-93833000D01*
X168275000Y-93833000D01*
X168275000Y-93853000D01*
G36*
X171055078Y-85117622D02*
X171374800Y-85099117D01*
X171374800Y-92339472D01*
X169672000Y-92339472D01*
X169389620Y-92392605D01*
X169251629Y-92481400D01*
X168433750Y-92481400D01*
X168275002Y-92640148D01*
X168275002Y-92481400D01*
X168211714Y-92481400D01*
X170536557Y-90156558D01*
X170723762Y-89876386D01*
X170734669Y-89821555D01*
X170789500Y-89545900D01*
X170789500Y-85025204D01*
X171055078Y-85117622D01*
X171055078Y-85117622D01*
G37*
X171055078Y-85117622D02*
X171374800Y-85099117D01*
X171374800Y-92339472D01*
X169672000Y-92339472D01*
X169389620Y-92392605D01*
X169251629Y-92481400D01*
X168433750Y-92481400D01*
X168275002Y-92640148D01*
X168275002Y-92481400D01*
X168211714Y-92481400D01*
X170536557Y-90156558D01*
X170723762Y-89876386D01*
X170734669Y-89821555D01*
X170789500Y-89545900D01*
X170789500Y-85025204D01*
X171055078Y-85117622D01*
G36*
X138835342Y-89637657D02*
X139115514Y-89824862D01*
X139121663Y-89826085D01*
X139446000Y-89890600D01*
X141203000Y-89890600D01*
X141203000Y-90011250D01*
X141361750Y-90170000D01*
X142461000Y-90170000D01*
X142461000Y-90150000D01*
X142715000Y-90150000D01*
X142715000Y-90170000D01*
X142735000Y-90170000D01*
X142735000Y-90424000D01*
X142715000Y-90424000D01*
X142715000Y-90444000D01*
X142461000Y-90444000D01*
X142461000Y-90424000D01*
X141361750Y-90424000D01*
X141203000Y-90582750D01*
X141203000Y-90723310D01*
X141299673Y-90956699D01*
X141478302Y-91135327D01*
X141711691Y-91232000D01*
X142302250Y-91232000D01*
X142460998Y-91073252D01*
X142460998Y-91232000D01*
X142497386Y-91232000D01*
X141955086Y-91774300D01*
X141859000Y-91774300D01*
X141528515Y-91840038D01*
X141248343Y-92027243D01*
X141224000Y-92063675D01*
X141199657Y-92027243D01*
X139436557Y-90264143D01*
X139156385Y-90076938D01*
X139146637Y-90074999D01*
X138825900Y-90011200D01*
X138260933Y-90011200D01*
X138270959Y-90004501D01*
X138609558Y-89497752D01*
X138623806Y-89426121D01*
X138835342Y-89637657D01*
X138835342Y-89637657D01*
G37*
X138835342Y-89637657D02*
X139115514Y-89824862D01*
X139121663Y-89826085D01*
X139446000Y-89890600D01*
X141203000Y-89890600D01*
X141203000Y-90011250D01*
X141361750Y-90170000D01*
X142461000Y-90170000D01*
X142461000Y-90150000D01*
X142715000Y-90150000D01*
X142715000Y-90170000D01*
X142735000Y-90170000D01*
X142735000Y-90424000D01*
X142715000Y-90424000D01*
X142715000Y-90444000D01*
X142461000Y-90444000D01*
X142461000Y-90424000D01*
X141361750Y-90424000D01*
X141203000Y-90582750D01*
X141203000Y-90723310D01*
X141299673Y-90956699D01*
X141478302Y-91135327D01*
X141711691Y-91232000D01*
X142302250Y-91232000D01*
X142460998Y-91073252D01*
X142460998Y-91232000D01*
X142497386Y-91232000D01*
X141955086Y-91774300D01*
X141859000Y-91774300D01*
X141528515Y-91840038D01*
X141248343Y-92027243D01*
X141224000Y-92063675D01*
X141199657Y-92027243D01*
X139436557Y-90264143D01*
X139156385Y-90076938D01*
X139146637Y-90074999D01*
X138825900Y-90011200D01*
X138260933Y-90011200D01*
X138270959Y-90004501D01*
X138609558Y-89497752D01*
X138623806Y-89426121D01*
X138835342Y-89637657D01*
G36*
X127539085Y-88773000D02*
X129032000Y-88773000D01*
X129032000Y-88753000D01*
X129286000Y-88753000D01*
X129286000Y-88773000D01*
X130778915Y-88773000D01*
X130876764Y-88594900D01*
X134282204Y-88594900D01*
X134586197Y-88899423D01*
X134851326Y-89009514D01*
X134948442Y-89497752D01*
X135287041Y-90004501D01*
X135297067Y-90011200D01*
X130381847Y-90011200D01*
X130613500Y-89824896D01*
X130883367Y-89331819D01*
X130900904Y-89249039D01*
X130778915Y-89027000D01*
X129286000Y-89027000D01*
X129286000Y-89047000D01*
X129032000Y-89047000D01*
X129032000Y-89027000D01*
X127539085Y-89027000D01*
X127417096Y-89249039D01*
X127434633Y-89331819D01*
X127704500Y-89824896D01*
X127936153Y-90011200D01*
X123790279Y-90011200D01*
X124117092Y-89522090D01*
X124240833Y-88900000D01*
X124180145Y-88594900D01*
X127441236Y-88594900D01*
X127539085Y-88773000D01*
X127539085Y-88773000D01*
G37*
X127539085Y-88773000D02*
X129032000Y-88773000D01*
X129032000Y-88753000D01*
X129286000Y-88753000D01*
X129286000Y-88773000D01*
X130778915Y-88773000D01*
X130876764Y-88594900D01*
X134282204Y-88594900D01*
X134586197Y-88899423D01*
X134851326Y-89009514D01*
X134948442Y-89497752D01*
X135287041Y-90004501D01*
X135297067Y-90011200D01*
X130381847Y-90011200D01*
X130613500Y-89824896D01*
X130883367Y-89331819D01*
X130900904Y-89249039D01*
X130778915Y-89027000D01*
X129286000Y-89027000D01*
X129286000Y-89047000D01*
X129032000Y-89047000D01*
X129032000Y-89027000D01*
X127539085Y-89027000D01*
X127417096Y-89249039D01*
X127434633Y-89331819D01*
X127704500Y-89824896D01*
X127936153Y-90011200D01*
X123790279Y-90011200D01*
X124117092Y-89522090D01*
X124240833Y-88900000D01*
X124180145Y-88594900D01*
X127441236Y-88594900D01*
X127539085Y-88773000D01*
G36*
X171236000Y-83640395D02*
X171250143Y-83626253D01*
X171374800Y-83750910D01*
X171374800Y-83889090D01*
X171250143Y-84013748D01*
X171236000Y-83999605D01*
X171221858Y-84013748D01*
X171042253Y-83834143D01*
X171056395Y-83820000D01*
X171042253Y-83805858D01*
X171221858Y-83626252D01*
X171236000Y-83640395D01*
X171236000Y-83640395D01*
G37*
X171236000Y-83640395D02*
X171250143Y-83626253D01*
X171374800Y-83750910D01*
X171374800Y-83889090D01*
X171250143Y-84013748D01*
X171236000Y-83999605D01*
X171221858Y-84013748D01*
X171042253Y-83834143D01*
X171056395Y-83820000D01*
X171042253Y-83805858D01*
X171221858Y-83626252D01*
X171236000Y-83640395D01*
G36*
X174363500Y-73757072D02*
X173086000Y-73757072D01*
X172803620Y-73810205D01*
X172544271Y-73977092D01*
X172370283Y-74231731D01*
X172314358Y-74507895D01*
X172135016Y-74464590D01*
X171415605Y-75184000D01*
X172135016Y-75903410D01*
X172314000Y-75860191D01*
X172362205Y-76116380D01*
X172529092Y-76375729D01*
X172783731Y-76549717D01*
X173086000Y-76610928D01*
X174363500Y-76610928D01*
X174363500Y-82393072D01*
X173508900Y-82393072D01*
X173508900Y-78084200D01*
X173443162Y-77753715D01*
X173401437Y-77691269D01*
X173255958Y-77473543D01*
X171937909Y-76155494D01*
X171955410Y-76083016D01*
X171236000Y-75363605D01*
X171221858Y-75377748D01*
X171102500Y-75258390D01*
X171102500Y-75109610D01*
X171221858Y-74990253D01*
X171236000Y-75004395D01*
X171955410Y-74284984D01*
X171899729Y-74054389D01*
X171416922Y-73886378D01*
X171102500Y-73904577D01*
X171102500Y-72595043D01*
X171250093Y-72693662D01*
X171638900Y-72771000D01*
X171898045Y-72771000D01*
X172052725Y-72874354D01*
X172516377Y-72966580D01*
X173177623Y-72966580D01*
X173641275Y-72874354D01*
X174034339Y-72611716D01*
X174296977Y-72218652D01*
X174363500Y-71884218D01*
X174363500Y-73757072D01*
X174363500Y-73757072D01*
G37*
X174363500Y-73757072D02*
X173086000Y-73757072D01*
X172803620Y-73810205D01*
X172544271Y-73977092D01*
X172370283Y-74231731D01*
X172314358Y-74507895D01*
X172135016Y-74464590D01*
X171415605Y-75184000D01*
X172135016Y-75903410D01*
X172314000Y-75860191D01*
X172362205Y-76116380D01*
X172529092Y-76375729D01*
X172783731Y-76549717D01*
X173086000Y-76610928D01*
X174363500Y-76610928D01*
X174363500Y-82393072D01*
X173508900Y-82393072D01*
X173508900Y-78084200D01*
X173443162Y-77753715D01*
X173401437Y-77691269D01*
X173255958Y-77473543D01*
X171937909Y-76155494D01*
X171955410Y-76083016D01*
X171236000Y-75363605D01*
X171221858Y-75377748D01*
X171102500Y-75258390D01*
X171102500Y-75109610D01*
X171221858Y-74990253D01*
X171236000Y-75004395D01*
X171955410Y-74284984D01*
X171899729Y-74054389D01*
X171416922Y-73886378D01*
X171102500Y-73904577D01*
X171102500Y-72595043D01*
X171250093Y-72693662D01*
X171638900Y-72771000D01*
X171898045Y-72771000D01*
X172052725Y-72874354D01*
X172516377Y-72966580D01*
X173177623Y-72966580D01*
X173641275Y-72874354D01*
X174034339Y-72611716D01*
X174296977Y-72218652D01*
X174363500Y-71884218D01*
X174363500Y-73757072D01*
G36*
X172650447Y-54569592D02*
X172463052Y-54952999D01*
X172589958Y-55120000D01*
X173730460Y-55120000D01*
X173730460Y-55100000D01*
X173984460Y-55100000D01*
X173984460Y-55120000D01*
X174004460Y-55120000D01*
X174004460Y-55374000D01*
X173984460Y-55374000D01*
X173984460Y-56332000D01*
X174334460Y-56332000D01*
X174363500Y-56322606D01*
X174363500Y-60771394D01*
X174334460Y-60762000D01*
X173984460Y-60762000D01*
X173984460Y-61720000D01*
X174004460Y-61720000D01*
X174004460Y-61974000D01*
X173984460Y-61974000D01*
X173984460Y-62932000D01*
X174334460Y-62932000D01*
X174363500Y-62922606D01*
X174363500Y-64613507D01*
X174003922Y-64488378D01*
X173493572Y-64517917D01*
X173159271Y-64656389D01*
X173103590Y-64886984D01*
X173823000Y-65606395D01*
X173837142Y-65592252D01*
X174016748Y-65771858D01*
X174002605Y-65786000D01*
X174016748Y-65800142D01*
X173837142Y-65979748D01*
X173823000Y-65965605D01*
X173103590Y-66685016D01*
X173159271Y-66915611D01*
X173642078Y-67083622D01*
X174152428Y-67054083D01*
X174363500Y-66966654D01*
X174363500Y-70355782D01*
X174296977Y-70021348D01*
X174091696Y-69714124D01*
X174191981Y-69508935D01*
X174065068Y-69342000D01*
X173522398Y-69342000D01*
X173177623Y-69273420D01*
X172516377Y-69273420D01*
X172171602Y-69342000D01*
X171628932Y-69342000D01*
X171502019Y-69508935D01*
X171602304Y-69714124D01*
X171397023Y-70021348D01*
X171387909Y-70067168D01*
X170728100Y-69407360D01*
X170728100Y-68921065D01*
X171502019Y-68921065D01*
X171628932Y-69088000D01*
X172720000Y-69088000D01*
X172720000Y-68130420D01*
X172974000Y-68130420D01*
X172974000Y-69088000D01*
X174065068Y-69088000D01*
X174191981Y-68921065D01*
X174004706Y-68537889D01*
X173680373Y-68261580D01*
X173274990Y-68130420D01*
X172974000Y-68130420D01*
X172720000Y-68130420D01*
X172419010Y-68130420D01*
X172013627Y-68261580D01*
X171689294Y-68537889D01*
X171502019Y-68921065D01*
X170728100Y-68921065D01*
X170728100Y-67212928D01*
X171973000Y-67212928D01*
X172255380Y-67159795D01*
X172514729Y-66992908D01*
X172688717Y-66738269D01*
X172744642Y-66462105D01*
X172923984Y-66505410D01*
X173643395Y-65786000D01*
X172923984Y-65066590D01*
X172745000Y-65109809D01*
X172696795Y-64853620D01*
X172529908Y-64594271D01*
X172289583Y-64430063D01*
X172261662Y-64289694D01*
X172126986Y-64088138D01*
X172041420Y-63960079D01*
X171327420Y-63246080D01*
X170997807Y-63025838D01*
X170933300Y-63013007D01*
X170609000Y-62948500D01*
X170167112Y-62948500D01*
X170167198Y-62849441D01*
X169993554Y-62429188D01*
X169705869Y-62141001D01*
X172463052Y-62141001D01*
X172650447Y-62524408D01*
X172974916Y-62800808D01*
X173380460Y-62932000D01*
X173730460Y-62932000D01*
X173730460Y-61974000D01*
X172589958Y-61974000D01*
X172463052Y-62141001D01*
X169705869Y-62141001D01*
X169672303Y-62107377D01*
X169252354Y-61932999D01*
X169102383Y-61932868D01*
X168722514Y-61552999D01*
X172463052Y-61552999D01*
X172589958Y-61720000D01*
X173730460Y-61720000D01*
X173730460Y-60762000D01*
X173380460Y-60762000D01*
X172974916Y-60893192D01*
X172650447Y-61169592D01*
X172463052Y-61552999D01*
X168722514Y-61552999D01*
X162710516Y-55541001D01*
X172463052Y-55541001D01*
X172650447Y-55924408D01*
X172974916Y-56200808D01*
X173380460Y-56332000D01*
X173730460Y-56332000D01*
X173730460Y-55374000D01*
X172589958Y-55374000D01*
X172463052Y-55541001D01*
X162710516Y-55541001D01*
X161589014Y-54419500D01*
X172826642Y-54419500D01*
X172650447Y-54569592D01*
X172650447Y-54569592D01*
G37*
X172650447Y-54569592D02*
X172463052Y-54952999D01*
X172589958Y-55120000D01*
X173730460Y-55120000D01*
X173730460Y-55100000D01*
X173984460Y-55100000D01*
X173984460Y-55120000D01*
X174004460Y-55120000D01*
X174004460Y-55374000D01*
X173984460Y-55374000D01*
X173984460Y-56332000D01*
X174334460Y-56332000D01*
X174363500Y-56322606D01*
X174363500Y-60771394D01*
X174334460Y-60762000D01*
X173984460Y-60762000D01*
X173984460Y-61720000D01*
X174004460Y-61720000D01*
X174004460Y-61974000D01*
X173984460Y-61974000D01*
X173984460Y-62932000D01*
X174334460Y-62932000D01*
X174363500Y-62922606D01*
X174363500Y-64613507D01*
X174003922Y-64488378D01*
X173493572Y-64517917D01*
X173159271Y-64656389D01*
X173103590Y-64886984D01*
X173823000Y-65606395D01*
X173837142Y-65592252D01*
X174016748Y-65771858D01*
X174002605Y-65786000D01*
X174016748Y-65800142D01*
X173837142Y-65979748D01*
X173823000Y-65965605D01*
X173103590Y-66685016D01*
X173159271Y-66915611D01*
X173642078Y-67083622D01*
X174152428Y-67054083D01*
X174363500Y-66966654D01*
X174363500Y-70355782D01*
X174296977Y-70021348D01*
X174091696Y-69714124D01*
X174191981Y-69508935D01*
X174065068Y-69342000D01*
X173522398Y-69342000D01*
X173177623Y-69273420D01*
X172516377Y-69273420D01*
X172171602Y-69342000D01*
X171628932Y-69342000D01*
X171502019Y-69508935D01*
X171602304Y-69714124D01*
X171397023Y-70021348D01*
X171387909Y-70067168D01*
X170728100Y-69407360D01*
X170728100Y-68921065D01*
X171502019Y-68921065D01*
X171628932Y-69088000D01*
X172720000Y-69088000D01*
X172720000Y-68130420D01*
X172974000Y-68130420D01*
X172974000Y-69088000D01*
X174065068Y-69088000D01*
X174191981Y-68921065D01*
X174004706Y-68537889D01*
X173680373Y-68261580D01*
X173274990Y-68130420D01*
X172974000Y-68130420D01*
X172720000Y-68130420D01*
X172419010Y-68130420D01*
X172013627Y-68261580D01*
X171689294Y-68537889D01*
X171502019Y-68921065D01*
X170728100Y-68921065D01*
X170728100Y-67212928D01*
X171973000Y-67212928D01*
X172255380Y-67159795D01*
X172514729Y-66992908D01*
X172688717Y-66738269D01*
X172744642Y-66462105D01*
X172923984Y-66505410D01*
X173643395Y-65786000D01*
X172923984Y-65066590D01*
X172745000Y-65109809D01*
X172696795Y-64853620D01*
X172529908Y-64594271D01*
X172289583Y-64430063D01*
X172261662Y-64289694D01*
X172126986Y-64088138D01*
X172041420Y-63960079D01*
X171327420Y-63246080D01*
X170997807Y-63025838D01*
X170933300Y-63013007D01*
X170609000Y-62948500D01*
X170167112Y-62948500D01*
X170167198Y-62849441D01*
X169993554Y-62429188D01*
X169705869Y-62141001D01*
X172463052Y-62141001D01*
X172650447Y-62524408D01*
X172974916Y-62800808D01*
X173380460Y-62932000D01*
X173730460Y-62932000D01*
X173730460Y-61974000D01*
X172589958Y-61974000D01*
X172463052Y-62141001D01*
X169705869Y-62141001D01*
X169672303Y-62107377D01*
X169252354Y-61932999D01*
X169102383Y-61932868D01*
X168722514Y-61552999D01*
X172463052Y-61552999D01*
X172589958Y-61720000D01*
X173730460Y-61720000D01*
X173730460Y-60762000D01*
X173380460Y-60762000D01*
X172974916Y-60893192D01*
X172650447Y-61169592D01*
X172463052Y-61552999D01*
X168722514Y-61552999D01*
X162710516Y-55541001D01*
X172463052Y-55541001D01*
X172650447Y-55924408D01*
X172974916Y-56200808D01*
X173380460Y-56332000D01*
X173730460Y-56332000D01*
X173730460Y-55374000D01*
X172589958Y-55374000D01*
X172463052Y-55541001D01*
X162710516Y-55541001D01*
X161589014Y-54419500D01*
X172826642Y-54419500D01*
X172650447Y-54569592D01*
G36*
X166497000Y-65754250D02*
X166655750Y-65913000D01*
X168021000Y-65913000D01*
X168021000Y-65893000D01*
X168275000Y-65893000D01*
X168275000Y-65913000D01*
X168295000Y-65913000D01*
X168295000Y-66167000D01*
X168275000Y-66167000D01*
X168275000Y-66187000D01*
X168021000Y-66187000D01*
X168021000Y-66167000D01*
X166655750Y-66167000D01*
X166497000Y-66325750D01*
X166497000Y-67029910D01*
X166593673Y-67263299D01*
X166772302Y-67441927D01*
X166796876Y-67452106D01*
X166458908Y-67957910D01*
X166335167Y-68580000D01*
X166399595Y-68903900D01*
X163429030Y-68903900D01*
X163493458Y-68580000D01*
X163374558Y-67982248D01*
X163035959Y-67475499D01*
X162788272Y-67310000D01*
X163035959Y-67144501D01*
X163374558Y-66637752D01*
X163493458Y-66040000D01*
X163424257Y-65692100D01*
X166497000Y-65692100D01*
X166497000Y-65754250D01*
X166497000Y-65754250D01*
G37*
X166497000Y-65754250D02*
X166655750Y-65913000D01*
X168021000Y-65913000D01*
X168021000Y-65893000D01*
X168275000Y-65893000D01*
X168275000Y-65913000D01*
X168295000Y-65913000D01*
X168295000Y-66167000D01*
X168275000Y-66167000D01*
X168275000Y-66187000D01*
X168021000Y-66187000D01*
X168021000Y-66167000D01*
X166655750Y-66167000D01*
X166497000Y-66325750D01*
X166497000Y-67029910D01*
X166593673Y-67263299D01*
X166772302Y-67441927D01*
X166796876Y-67452106D01*
X166458908Y-67957910D01*
X166335167Y-68580000D01*
X166399595Y-68903900D01*
X163429030Y-68903900D01*
X163493458Y-68580000D01*
X163374558Y-67982248D01*
X163035959Y-67475499D01*
X162788272Y-67310000D01*
X163035959Y-67144501D01*
X163374558Y-66637752D01*
X163493458Y-66040000D01*
X163424257Y-65692100D01*
X166497000Y-65692100D01*
X166497000Y-65754250D01*
G36*
X159713442Y-65442248D02*
X159594542Y-66040000D01*
X159642579Y-66281500D01*
X155606822Y-66281500D01*
X155543915Y-66167000D01*
X154051000Y-66167000D01*
X154051000Y-66187000D01*
X153797000Y-66187000D01*
X153797000Y-66167000D01*
X153777000Y-66167000D01*
X153777000Y-65913000D01*
X153797000Y-65913000D01*
X153797000Y-65893000D01*
X154051000Y-65893000D01*
X154051000Y-65913000D01*
X155543915Y-65913000D01*
X155665904Y-65690961D01*
X155648367Y-65608181D01*
X155378500Y-65115104D01*
X155211132Y-64980500D01*
X160021972Y-64980500D01*
X159713442Y-65442248D01*
X159713442Y-65442248D01*
G37*
X159713442Y-65442248D02*
X159594542Y-66040000D01*
X159642579Y-66281500D01*
X155606822Y-66281500D01*
X155543915Y-66167000D01*
X154051000Y-66167000D01*
X154051000Y-66187000D01*
X153797000Y-66187000D01*
X153797000Y-66167000D01*
X153777000Y-66167000D01*
X153777000Y-65913000D01*
X153797000Y-65913000D01*
X153797000Y-65893000D01*
X154051000Y-65893000D01*
X154051000Y-65913000D01*
X155543915Y-65913000D01*
X155665904Y-65690961D01*
X155648367Y-65608181D01*
X155378500Y-65115104D01*
X155211132Y-64980500D01*
X160021972Y-64980500D01*
X159713442Y-65442248D01*
M02*
